<?xml version="1.0" encoding="UTF-8"?>
<svg width="520.0" height="640.0" viewBox="0 0 520.0 640.0" xmlns="http://www.w3.org/2000/svg" font-family="Arial, Helvetica, sans-serif">
<defs>
  <filter id="whiteShadow" x="-20%" y="-20%" width="140%" height="140%">
    <feGaussianBlur in="SourceAlpha" stdDeviation="3"/>
    <feOffset dx="0" dy="0" result="offsetblur"/>
    <feFlood flood-color="white" flood-opacity="1"/>
    <feComposite in2="offsetblur" operator="in"/>
    <feMerge>
      <feMergeNode/>
      <feMergeNode in="SourceGraphic"/>
    </feMerge>
  </filter>
  <filter id="hierarchicalShadow" x="-20%" y="-20%" width="140%" height="140%">
    <feGaussianBlur in="SourceAlpha" stdDeviation="5"/>
    <feOffset dx="2" dy="2" result="offsetblur"/>
    <feFlood flood-color="rgba(0,0,0,0.1)" flood-opacity="0.8"/>
    <feComposite in2="offsetblur" operator="in"/>
    <feMerge>
      <feMergeNode/>
      <feMergeNode in="SourceGraphic"/>
    </feMerge>
  </filter>
  <filter id="outlineWhite">
    <feMorphology in="SourceAlpha" result="DILATED" operator="dilate" radius="2"/>
    <feFlood flood-color="white" flood-opacity="0.5" result="WHITE"/>
    <feComposite in="WHITE" in2="DILATED" operator="in" result="OUTLINE"/>
    <feMerge>
      <feMergeNode in="OUTLINE"/>
      <feMergeNode in="SourceGraphic"/>
    </feMerge>
  </filter>
  <linearGradient id="horizontalGradient" x1="0%" y1="0%" x2="100%" y2="0%">
    <stop offset="0%" stop-color="#28a745"/>
    <stop offset="100%" stop-color="#007bff"/>
  </linearGradient>
  <linearGradient id="verticalGradient" x1="0%" y1="0%" x2="0%" y2="100%">
    <stop offset="0%" stop-color="#28a745"/>
    <stop offset="100%" stop-color="#007bff"/>
  </linearGradient>
</defs>
<style>  
  .layerBackground { 
    fill: rgba(52, 58, 64, 0.08);     
  }

  .layerBackground:hover { 
    fill: PaleGoldenRod ;
    transition: all 0.1s ease-in-out; 
  }

  .layerBackgroundVirtualFolder { 
    fill: rgba(52, 58, 64, 0.05); 
    stroke: gray; 
    stroke-width: 1; 
    stroke-dasharray: 4,4; 
  }

  .layerBackgroundVirtualFolder:hover { 
    fill: PaleGoldenRod ;
    stroke: gray; 
    stroke-width: 0; 
    stroke-dasharray: 4,4;
    transition: all 0.1s ease-in-out; 
  }
  
  .layerTitle,
  .layerTitleSmall { 
    fill: black; 
    font-weight: bold; 
    text-anchor: middle; 
    filter: url(#outlineWhite); 
  }

  .layerTitle { 
    font-size: 16px; 
  }

  .layerTitleSmall { 
    font-size: 12px; 
  }
  
  /* File node styles */
  .fileNode { 
    fill: white; 
    stroke: gray; 
    stroke-width: 0.5; 
    rx: 6; 
    ry: 6;    
  }
  
  .fileNode:hover {     
    fill: PaleGoldenRod;
    transition: all 0.1s ease-in-out; 
  }

  .textNormal,
  .textSmall { 
    fill: #212529; 
    font-weight: 900; 
    text-anchor: middle; 
    dominant-baseline: middle; 
    filter: url(#outlineWhite); 
  }

  .textNormal { 
    font-size: 14px; 
  }

  .textSmall { 
    font-size: 12px; 
  }

  /* Unified edge styles */
  .edge { 
    fill: none; 
    stroke: url(#horizontalGradient); 
    stroke-width: 1; 
    opacity: 0.5;
    cursor: pointer;
    transition: all 0.1s ease-in-out; 
  }


  .edge:hover { 
    stroke: url(#horizontalGradient); 
    stroke-width: 3; 
    opacity: 1.0; 
  }
  
  .edgeVertical { 
    fill: none; 
    stroke: url(#verticalGradient); 
    stroke-width: 1; 
    opacity: 0.5; 
    cursor: pointer;
    transition: all 0.1s ease-in-out; 
  }
  
  .edgeVertical:hover { 
    stroke: url(#verticalGradient); 
    stroke-width: 3; 
    opacity: 1.0; 
  }
  
  /* Special edge styles */
  .cycleEdge { 
    fill: none; 
    stroke: red; 
    stroke-width: 5; 
    opacity: 0.9; 
    cursor: pointer;
  }
  
  .warningEdge { 
    fill: none; 
    stroke: orange; 
    stroke-width: 3; 
    opacity: 0.9; 
    cursor: pointer;
    transition: all 0.1s ease-in-out; 
  }
  
  .warningEdge:hover { 
    fill: none; 
    stroke: orange; 
    stroke-width: 5; 
    opacity: 1.0; 
  }
  
  /* Unified badge styles with pointer cursor */
  .badge { 
    font-size: 10px; 
    font-weight: bold; 
    fill: white; 
    text-anchor: middle; 
    dominant-baseline: middle; 
    cursor: pointer; 
    transition: all 0.1s ease-in-out; 
  }
  
  .badge:hover { 
    opacity: 0.8; 
  }
  
  /* Special styles */
  .folderTitleLayer { 
    pointer-events: none; 
    isolation: isolate; 
  }
</style>
<rect width="100%" height="100%" fill="#f8f9fa"/>
<g>
  <path d="M 124.0 261.0 C 144.0 261.0, 116.0 261.0, 136.0 261.0" class="edgeVertical"/>
  <title>. ▶ ...</title>
</g>
<g>
  <path d="M 124.0 463.0 C 144.0 463.0, 116.0 463.0, 136.0 463.0" class="edgeVertical"/>
  <title>. ▶ subfolder</title>
</g>
<g class="folderLayer">
<rect x="80.0" y="80.0" width="348.0" height="480.0" rx="12.0" ry="12.0" class="layerBackground" style="fill: #e05545"><title>Folder: .

18 Dead Code warnings
11 Documentation warnings
3 Hardcoded Strings warnings
2 Magic Numbers warnings
2 Source Sorting warnings</title></rect>
</g>
<g class="folderLayer">
<rect x="144.0" y="132.0" width="260.0" height="258.0" rx="12.0" ry="12.0" class="layerBackgroundVirtualFolder" stroke-dasharray="4 2"><title>Folder: ...</title></rect>
</g>
<g class="folderLayer">
<rect x="144.0" y="414.0" width="260.0" height="98.0" rx="12.0" ry="12.0" class="layerBackground" style="fill: #e05545"><title>Folder: subfolder

2 Dead Code warnings
1 Documentation warning</title></rect>
</g>
<rect x="152.0" y="170.0" width="244.0" height="28.0" rx="5.0" ry="5.0" class="fileNode" style="fill: #e05545"><title>File: main.dart

3 Documentation warnings
2 Dead Code warnings
1 Hardcoded Strings warning</title></rect>
<rect x="152.0" y="202.0" width="244.0" height="28.0" rx="5.0" ry="5.0" class="fileNode" style="fill: #f2a23a"><title>File: home_page.dart

1 Documentation warning
1 Source Sorting warning</title></rect>
<rect x="152.0" y="234.0" width="244.0" height="28.0" rx="5.0" ry="5.0" class="fileNode" style="fill: #e05545"><title>File: counter_widget.dart

4 Dead Code warnings
2 Documentation warnings
2 Hardcoded Strings warnings
1 Source Sorting warning</title></rect>
<rect x="152.0" y="266.0" width="244.0" height="28.0" rx="5.0" ry="5.0" class="fileNode" style="fill: #e05545"><title>File: comments_example.dart

4 Dead Code warnings
1 Documentation warning</title></rect>
<rect x="152.0" y="298.0" width="244.0" height="28.0" rx="5.0" ry="5.0" class="fileNode" style="fill: #e05545"><title>File: models.dart

5 Dead Code warnings
4 Documentation warnings
2 Magic Numbers warnings</title></rect>
<rect x="152.0" y="330.0" width="244.0" height="28.0" rx="5.0" ry="5.0" class="fileNode" style="fill: #e05545"><title>File: utils.dart

3 Dead Code warnings</title></rect>
<rect x="152.0" y="452.0" width="244.0" height="28.0" rx="5.0" ry="5.0" class="fileNode" style="fill: #e05545"><title>File: subfolder/subclass.dart

2 Dead Code warnings
1 Documentation warning</title></rect>
<g>
  <path d="M 392.0 254.0 H 408.0 Q 414.0 254.0 414.0 260.0 V 333.0 Q 414.0 339.0 408.0 339.0 H 388.0" class="edgeVertical"/>
  <title>counter_widget.dart ▶ utils.dart</title>
</g>
<g>
  <path d="M 392.0 222.0 H 408.0 Q 414.0 222.0 414.0 228.0 V 237.0 Q 414.0 243.0 408.0 243.0 H 388.0" class="edgeVertical"/>
  <title>home_page.dart ▶ counter_widget.dart</title>
</g>
<g>
  <path d="M 392.0 190.0 H 408.0 Q 414.0 190.0 414.0 196.0 V 205.0 Q 414.0 211.0 408.0 211.0 H 388.0" class="edgeVertical"/>
  <title>main.dart ▶ home_page.dart</title>
</g>
<g>
  <path d="M 392.0 222.0 H 411.0 Q 417.0 222.0 417.0 228.0 V 301.0 Q 417.0 307.0 411.0 307.0 H 388.0" class="edgeVertical"/>
  <title>home_page.dart ▶ models.dart</title>
</g>
<g class="badge outgoingBadge">
  <path d="M 398.0,190.0 L 386.0,183.0 Q 383.0,183.0 383.0,186.0 L 383.0,194.0 Q 383.0,197.0 386.0,197.0 Z" fill="#10b981"/>
  <text x="387.68" y="191.0" text-anchor="middle" fill="white" font-size="8.0" font-weight="bold">1</text><title>1. home_page.dart</title></g><text x="266.0" y="184.0" text-anchor="middle" dominant-baseline="middle" class="textNormal">main.dart</text>
<g class="badge incomingBadge">
  <path d="M 382.0,211.0 L 394.0,204.0 Q 397.0,204.0 397.0,207.0 L 397.0,215.0 Q 397.0,218.0 394.0,218.0 Z" fill="#3b82f6"/>
  <text x="392.32" y="212.0" text-anchor="middle" fill="white" font-size="8.0" font-weight="bold">1</text><title>1. main.dart</title></g><g class="badge outgoingBadge">
  <path d="M 398.0,222.0 L 386.0,215.0 Q 383.0,215.0 383.0,218.0 L 383.0,226.0 Q 383.0,229.0 386.0,229.0 Z" fill="#10b981"/>
  <text x="387.68" y="223.0" text-anchor="middle" fill="white" font-size="8.0" font-weight="bold">2</text><title>1. counter_widget.dart
2. models.dart</title></g><text x="266.0" y="216.0" text-anchor="middle" dominant-baseline="middle" class="textNormal">home_page.dart</text>
<g class="badge incomingBadge">
  <path d="M 382.0,243.0 L 394.0,236.0 Q 397.0,236.0 397.0,239.0 L 397.0,247.0 Q 397.0,250.0 394.0,250.0 Z" fill="#3b82f6"/>
  <text x="392.32" y="244.0" text-anchor="middle" fill="white" font-size="8.0" font-weight="bold">1</text><title>1. home_page.dart</title></g><g class="badge outgoingBadge">
  <path d="M 398.0,254.0 L 386.0,247.0 Q 383.0,247.0 383.0,250.0 L 383.0,258.0 Q 383.0,261.0 386.0,261.0 Z" fill="#10b981"/>
  <text x="387.68" y="255.0" text-anchor="middle" fill="white" font-size="8.0" font-weight="bold">1</text><title>1. utils.dart</title></g><text x="266.0" y="248.0" text-anchor="middle" dominant-baseline="middle" class="textNormal">counter_widget.dart</text>
<text x="266.0" y="280.0" text-anchor="middle" dominant-baseline="middle" class="textNormal">comments_example.dart</text>
<g class="badge incomingBadge">
  <path d="M 382.0,307.0 L 394.0,300.0 Q 397.0,300.0 397.0,303.0 L 397.0,311.0 Q 397.0,314.0 394.0,314.0 Z" fill="#3b82f6"/>
  <text x="392.32" y="308.0" text-anchor="middle" fill="white" font-size="8.0" font-weight="bold">1</text><title>1. home_page.dart</title></g><text x="266.0" y="312.0" text-anchor="middle" dominant-baseline="middle" class="textNormal">models.dart</text>
<g class="badge incomingBadge">
  <path d="M 382.0,339.0 L 394.0,332.0 Q 397.0,332.0 397.0,335.0 L 397.0,343.0 Q 397.0,346.0 394.0,346.0 Z" fill="#3b82f6"/>
  <text x="392.32" y="340.0" text-anchor="middle" fill="white" font-size="8.0" font-weight="bold">1</text><title>1. counter_widget.dart</title></g><text x="266.0" y="344.0" text-anchor="middle" dominant-baseline="middle" class="textNormal">utils.dart</text>
<text x="266.0" y="466.0" text-anchor="middle" dominant-baseline="middle" class="textNormal">subclass.dart</text>
<g class="folderTitleLayer">
<text x="254.0" y="105.0" class="layerTitle" text-anchor="middle">
  <tspan x="254.0" dy="0">example</tspan>
  <tspan x="254.0" dy="16.0">example_flutter_app v1.0.0</tspan>
</text>
<text x="274.0" y="157.0" class="layerTitle">  ...</text>
<text x="274.0" y="439.0" class="layerTitle">  subfolder</text>
</g>
</svg>
