<?xml version="1.0" encoding="UTF-8"?>
<svg width="1280" height="260" viewBox="0 0 1280 260" xmlns="http://www.w3.org/2000/svg" font-family="Arial, Helvetica, sans-serif">
<style>
  .layerBackground { fill: #f8f9fa; stroke: #dee2e6; stroke-width: 1; stroke-dasharray: 4,4; }
  .layerTitle { fill: #6c757d; font-size: 14px; font-weight: bold; text-anchor: middle; }
  .nodeRect { fill: #ffffff; stroke: #343a40; stroke-width: 2; rx: 6; ry: 6; cursor: pointer; }
  .nodeRect:hover { stroke: #007bff; stroke-width: 3; }
  .nodeText { fill: #212529; font-size: 13px; font-weight: 500; text-anchor: middle; dominant-baseline: middle; }
  .edge { fill: none; stroke: #adb5bd; stroke-width: 2; opacity: 0.6; }
  .edge:hover { stroke: #007bff; stroke-width: 3; opacity: 1.0; }
  .badge { font-size: 10px; font-weight: bold; fill: white; text-anchor: middle; dominant-baseline: middle; }
</style>
<rect width="100%" height="100%" fill="white"/>
<rect x="25.0" y="50" width="270.0" height="160" rx="8" class="layerBackground"/>
<text x="160.0" y="75" class="layerTitle">Layer 1</text>
<rect x="345.0" y="50" width="270.0" height="160" rx="8" class="layerBackground"/>
<text x="480.0" y="75" class="layerTitle">Layer 2</text>
<rect x="665.0" y="50" width="270.0" height="160" rx="8" class="layerBackground"/>
<text x="800.0" y="75" class="layerTitle">Layer 3</text>
<rect x="985.0" y="50" width="270.0" height="160" rx="8" class="layerBackground"/>
<text x="1120.0" y="75" class="layerTitle">Layer 4</text>
<path d="M 270.0 115.0 C 320.0 115.0, 320.0 115.0, 370.0 115.0" class="edge"/>
<path d="M 910.0 115.0 C 960.0 115.0, 960.0 115.0, 1010.0 115.0" class="edge"/>
<path d="M 590.0 115.0 C 640.0 115.0, 640.0 115.0, 690.0 115.0" class="edge"/>
<path d="M 590.0 115.0 C 640.0 115.0, 640.0 185.0, 690.0 185.0" class="edge"/>
<rect x="50.0" y="90.0" width="220" height="50" class="nodeRect"/>
<text x="160.0" y="115.0" class="nodeText">main.dart</text>
<circle cx="258.0" cy="115.0" r="9" fill="#007bff"/>
<text x="258.0" y="116.0" class="badge">1</text>
<rect x="50.0" y="160.0" width="220" height="50" class="nodeRect"/>
<text x="160.0" y="185.0" class="nodeText">comments_example.dart</text>
<rect x="370.0" y="90.0" width="220" height="50" class="nodeRect"/>
<text x="480.0" y="115.0" class="nodeText">home_page.dart</text>
<circle cx="382.0" cy="115.0" r="9" fill="#28a745"/>
<text x="382.0" y="116.0" class="badge">1</text>
<circle cx="578.0" cy="115.0" r="9" fill="#007bff"/>
<text x="578.0" y="116.0" class="badge">2</text>
<rect x="690.0" y="90.0" width="220" height="50" class="nodeRect"/>
<text x="800.0" y="115.0" class="nodeText">counter_widget.dart</text>
<circle cx="702.0" cy="115.0" r="9" fill="#28a745"/>
<text x="702.0" y="116.0" class="badge">1</text>
<circle cx="898.0" cy="115.0" r="9" fill="#007bff"/>
<text x="898.0" y="116.0" class="badge">1</text>
<rect x="690.0" y="160.0" width="220" height="50" class="nodeRect"/>
<text x="800.0" y="185.0" class="nodeText">models.dart</text>
<circle cx="702.0" cy="185.0" r="9" fill="#28a745"/>
<text x="702.0" y="186.0" class="badge">1</text>
<rect x="1010.0" y="90.0" width="220" height="50" class="nodeRect"/>
<text x="1120.0" y="115.0" class="nodeText">utils.dart</text>
<circle cx="1022.0" cy="115.0" r="9" fill="#28a745"/>
<text x="1022.0" y="116.0" class="badge">1</text>
</svg>
