<?xml version="1.0" encoding="UTF-8"?>
<svg width="1280" height="260" viewBox="0 0 1280 260" xmlns="http://www.w3.org/2000/svg" font-family="Arial, Helvetica, sans-serif">
<defs>
  <filter id="whiteShadow" x="-20%" y="-20%" width="140%" height="140%">
    <feGaussianBlur in="SourceAlpha" stdDeviation="3"/>
    <feOffset dx="0" dy="0" result="offsetblur"/>
    <feFlood flood-color="white" flood-opacity="1"/>
    <feComposite in2="offsetblur" operator="in"/>
    <feMerge>
      <feMergeNode/>
      <feMergeNode in="SourceGraphic"/>
    </feMerge>
  </filter>
  <filter id="outlineWhite">
    <feMorphology in="SourceAlpha" result="DILATED" operator="dilate" radius="2"/>
    <feFlood flood-color="white" flood-opacity="0.5" result="WHITE"/>
    <feComposite in="WHITE" in2="DILATED" operator="in" result="OUTLINE"/>
    <feMerge>
      <feMergeNode in="OUTLINE"/>
      <feMergeNode in="SourceGraphic"/>
    </feMerge>
  </filter>
  <linearGradient id="edgeGradient" x1="0%" y1="0%" x2="100%" y2="0%">
    <stop offset="0%" stop-color="green" stop-opacity="0.3"/>
    <stop offset="100%" stop-color="#007bff" stop-opacity="0.3"/>
  </linearGradient>
</defs>
<style>
  .layerBackground { fill: #f8f9fa; stroke: #dee2e6; stroke-width: 1; stroke-dasharray: 4,4; }
  .layerTitle { fill: #6c757d; font-size: 14px; font-weight: bold; text-anchor: middle; }
  .nodeRect { fill: #ffffff; stroke: #343a40; stroke-width: 2; rx: 6; ry: 6; cursor: pointer; filter: url(#whiteShadow); }
  .nodeRect:hover { stroke: #007bff; stroke-width: 3; }
  .nodeText { fill: #212529; font-size: 14px; font-weight: 900; text-anchor: middle; dominant-baseline: middle; filter: url(#outlineWhite); }
  .edge { fill: none; stroke: url(#edgeGradient); }
  .edge:hover { stroke: #007bff; stroke-width: 3; opacity: 1.0; }
  .badge { font-size: 10px; font-weight: bold; fill: white; text-anchor: middle; dominant-baseline: middle; cursor: help; }
  .badge:hover { opacity: 0.8; }
</style>
<rect width="100%" height="100%" fill="white"/>
<rect x="25.0" y="50" width="270.0" height="160" rx="8" class="layerBackground"/>
<text x="160.0" y="75" class="layerTitle">1</text>
<rect x="345.0" y="50" width="270.0" height="160" rx="8" class="layerBackground"/>
<text x="480.0" y="75" class="layerTitle">2</text>
<rect x="665.0" y="50" width="270.0" height="160" rx="8" class="layerBackground"/>
<text x="800.0" y="75" class="layerTitle">3</text>
<rect x="985.0" y="50" width="270.0" height="160" rx="8" class="layerBackground"/>
<text x="1120.0" y="75" class="layerTitle">4</text>
<rect x="50.0" y="90.0" width="220" height="50" class="nodeRect"/>
<rect x="50.0" y="160.0" width="220" height="50" class="nodeRect"/>
<rect x="370.0" y="90.0" width="220" height="50" class="nodeRect"/>
<rect x="690.0" y="90.0" width="220" height="50" class="nodeRect"/>
<rect x="690.0" y="160.0" width="220" height="50" class="nodeRect"/>
<rect x="1010.0" y="90.0" width="220" height="50" class="nodeRect"/>
<path d="M 258.0 128.0 C 318.0 122.8, 322.0 107.2, 382.0 102.0" class="edge"/>
<path d="M 898.0 128.0 C 958.0 122.8, 962.0 107.2, 1022.0 102.0" class="edge"/>
<path d="M 578.0 128.0 C 638.0 122.8, 642.0 107.2, 702.0 102.0" class="edge"/>
<path d="M 578.0 128.0 C 638.0 136.8, 642.0 163.2, 702.0 172.0" class="edge"/>
<g>
<circle cx="258.0" cy="128.0" r="9" fill="#28a745"/>
<text x="258.0" y="129.0" class="badge">1</text>
<title>home_page.dart</title>
</g>
<text x="160.0" y="115.0" class="nodeText">main.dart</text>
<text x="160.0" y="185.0" class="nodeText">comments_example.dart</text>
<g>
<circle cx="382.0" cy="102.0" r="9" fill="#007bff"/>
<text x="382.0" y="103.0" class="badge">1</text>
<title>main.dart</title>
</g>
<g>
<circle cx="578.0" cy="128.0" r="9" fill="#28a745"/>
<text x="578.0" y="129.0" class="badge">2</text>
<title>counter_widget.dart
models.dart</title>
</g>
<text x="480.0" y="115.0" class="nodeText">home_page.dart</text>
<g>
<circle cx="702.0" cy="102.0" r="9" fill="#007bff"/>
<text x="702.0" y="103.0" class="badge">1</text>
<title>home_page.dart</title>
</g>
<g>
<circle cx="898.0" cy="128.0" r="9" fill="#28a745"/>
<text x="898.0" y="129.0" class="badge">1</text>
<title>utils.dart</title>
</g>
<text x="800.0" y="115.0" class="nodeText">counter_widget.dart</text>
<g>
<circle cx="702.0" cy="172.0" r="9" fill="#007bff"/>
<text x="702.0" y="173.0" class="badge">1</text>
<title>home_page.dart</title>
</g>
<text x="800.0" y="185.0" class="nodeText">models.dart</text>
<g>
<circle cx="1022.0" cy="102.0" r="9" fill="#007bff"/>
<text x="1022.0" y="103.0" class="badge">1</text>
<title>counter_widget.dart</title>
</g>
<text x="1120.0" y="115.0" class="nodeText">utils.dart</text>
</svg>
