<?xml version="1.0" encoding="UTF-8"?>
<svg width="1280" height="330" viewBox="0 0 1280 330" xmlns="http://www.w3.org/2000/svg" font-family="Arial, Helvetica, sans-serif">
<defs>
  <filter id="whiteShadow" x="-20%" y="-20%" width="140%" height="140%">
    <feGaussianBlur in="SourceAlpha" stdDeviation="3"/>
    <feOffset dx="0" dy="0" result="offsetblur"/>
    <feFlood flood-color="white" flood-opacity="1"/>
    <feComposite in2="offsetblur" operator="in"/>
    <feMerge>
      <feMergeNode/>
      <feMergeNode in="SourceGraphic"/>
    </feMerge>
  </filter>
  <filter id="hierarchicalShadow" x="-20%" y="-20%" width="140%" height="140%">
    <feGaussianBlur in="SourceAlpha" stdDeviation="5"/>
    <feOffset dx="2" dy="2" result="offsetblur"/>
    <feFlood flood-color="rgba(0,0,0,0.1)" flood-opacity="0.8"/>
    <feComposite in2="offsetblur" operator="in"/>
    <feMerge>
      <feMergeNode/>
      <feMergeNode in="SourceGraphic"/>
    </feMerge>
  </filter>
  <filter id="outlineWhite">
    <feMorphology in="SourceAlpha" result="DILATED" operator="dilate" radius="2"/>
    <feFlood flood-color="white" flood-opacity="0.5" result="WHITE"/>
    <feComposite in="WHITE" in2="DILATED" operator="in" result="OUTLINE"/>
    <feMerge>
      <feMergeNode in="OUTLINE"/>
      <feMergeNode in="SourceGraphic"/>
    </feMerge>
  </filter>
  <linearGradient id="horizontalGradient" x1="0%" y1="0%" x2="100%" y2="0%">
    <stop offset="0%" stop-color="#28a745"/>
    <stop offset="100%" stop-color="#007bff"/>
  </linearGradient>
  <linearGradient id="verticalGradient" x1="0%" y1="0%" x2="0%" y2="100%">
    <stop offset="0%" stop-color="#28a745"/>
    <stop offset="100%" stop-color="#007bff"/>
  </linearGradient>
</defs>
<style>  
  .layerBackground { 
    fill: rgba(52, 58, 64, 0.08);     
  }

  .layerBackground:hover { 
    fill: PaleGoldenRod ;
    transition: all 0.1s ease-in-out; 
  }

  .layerBackgroundVirtualFolder { 
    fill: rgba(52, 58, 64, 0.05); 
    stroke: gray; 
    stroke-width: 1; 
    stroke-dasharray: 4,4; 
  }

  .layerBackgroundVirtualFolder:hover { 
    fill: PaleGoldenRod ;
    stroke: gray; 
    stroke-width: 0; 
    stroke-dasharray: 4,4;
    transition: all 0.1s ease-in-out; 
  }
  
  .layerTitle,
  .layerTitleSmall { 
    fill: black; 
    font-weight: bold; 
    text-anchor: middle; 
    filter: url(#outlineWhite); 
  }

  .layerTitle { 
    font-size: 16px; 
  }

  .layerTitleSmall { 
    font-size: 12px; 
  }
  
  /* File node styles */
  .fileNode { 
    fill: white; 
    stroke: gray; 
    stroke-width: 0.5; 
    rx: 6; 
    ry: 6;    
  }
  
  .fileNode:hover {     
    fill: PaleGoldenRod;
    transition: all 0.1s ease-in-out; 
  }

  .textNormal,
  .textSmall { 
    fill: #212529; 
    font-weight: 900; 
    text-anchor: middle; 
    dominant-baseline: middle; 
    filter: url(#outlineWhite); 
  }

  .textNormal { 
    font-size: 14px; 
  }

  .textSmall { 
    font-size: 12px; 
  }

  /* Unified edge styles */
  .edge { 
    fill: none; 
    stroke: url(#horizontalGradient); 
    stroke-width: 1; 
    opacity: 0.5;
    cursor: pointer;
    transition: all 0.1s ease-in-out; 
  }


  .edge:hover { 
    stroke: url(#horizontalGradient); 
    stroke-width: 3; 
    opacity: 1.0; 
  }
  
  .edgeVertical { 
    fill: none; 
    stroke: url(#verticalGradient); 
    stroke-width: 1; 
    opacity: 0.5; 
    cursor: pointer;
    transition: all 0.1s ease-in-out; 
  }
  
  .edgeVertical:hover { 
    stroke: url(#verticalGradient); 
    stroke-width: 3; 
    opacity: 1.0; 
  }
  
  /* Special edge styles */
  .cycleEdge { 
    fill: none; 
    stroke: red; 
    stroke-width: 5; 
    opacity: 0.9; 
    cursor: pointer;
  }
  
  .warningEdge { 
    fill: none; 
    stroke: orange; 
    stroke-width: 3; 
    opacity: 0.9; 
    cursor: pointer;
    transition: all 0.1s ease-in-out; 
  }
  
  .warningEdge:hover { 
    fill: none; 
    stroke: orange; 
    stroke-width: 5; 
    opacity: 1.0; 
  }
  
  /* Unified badge styles with pointer cursor */
  .badge { 
    font-size: 10px; 
    font-weight: bold; 
    fill: white; 
    text-anchor: middle; 
    dominant-baseline: middle; 
    cursor: pointer; 
    transition: all 0.1s ease-in-out; 
  }
  
  .badge:hover { 
    opacity: 0.8; 
  }
  
  /* Special styles */
  .folderTitleLayer { 
    pointer-events: none; 
    isolation: isolate; 
  }
</style>
<rect width="100%" height="100%" fill="white"/>
<rect x="25.0" y="50" width="270.0" height="230.0" rx="8.0" class="layerBackground"/>
<text x="160.0" y="75.0" class="layerTitle">1</text>
<rect x="345.0" y="50" width="270.0" height="230.0" rx="8.0" class="layerBackground"/>
<text x="480.0" y="75.0" class="layerTitle">2</text>
<rect x="665.0" y="50" width="270.0" height="230.0" rx="8.0" class="layerBackground"/>
<text x="800.0" y="75.0" class="layerTitle">3</text>
<rect x="985.0" y="50" width="270.0" height="230.0" rx="8.0" class="layerBackground"/>
<text x="1120.0" y="75.0" class="layerTitle">4</text>
<rect x="50.0" y="90.0" width="220" height="50" class="fileNode"/>
<rect x="50.0" y="160.0" width="220" height="50" class="fileNode"/>
<rect x="50.0" y="230.0" width="220" height="50" class="fileNode"/>
<rect x="370.0" y="90.0" width="220" height="50" class="fileNode"/>
<rect x="690.0" y="90.0" width="220" height="50" class="fileNode"/>
<rect x="690.0" y="160.0" width="220" height="50" class="fileNode"/>
<rect x="1010.0" y="90.0" width="220" height="50" class="fileNode"/>
<g>
  <path d="M 270.0 128.0 C 320.0 128.0, 326.0 102.0, 376.0 102.0" class="edge"/>
  <title>/Users/jp/src/github/vteam/fcheck/example/lib/main.dart ▶ /Users/jp/src/github/vteam/fcheck/example/lib/home_page.dart</title>
</g>
<g>
  <path d="M 910.0 128.0 C 960.0 128.0, 966.0 102.0, 1016.0 102.0" class="edge"/>
  <title>/Users/jp/src/github/vteam/fcheck/example/lib/counter_widget.dart ▶ /Users/jp/src/github/vteam/fcheck/example/lib/utils.dart</title>
</g>
<g>
  <path d="M 590.0 128.0 C 640.0 128.0, 646.0 102.0, 696.0 102.0" class="edge"/>
  <title>/Users/jp/src/github/vteam/fcheck/example/lib/home_page.dart ▶ /Users/jp/src/github/vteam/fcheck/example/lib/counter_widget.dart</title>
</g>
<g>
  <path d="M 590.0 128.0 C 640.0 128.0, 646.0 172.0, 696.0 172.0" class="edge"/>
  <title>/Users/jp/src/github/vteam/fcheck/example/lib/home_page.dart ▶ /Users/jp/src/github/vteam/fcheck/example/lib/models.dart</title>
</g>
<g class="badge outgoingBadge">
  <path d="M 276.0,128.0 L 264.0,121.0 Q 261.0,121.0 261.0,124.0 L 261.0,132.0 Q 261.0,135.0 264.0,135.0 Z" fill="#10b981"/>
  <text x="265.68" y="129.0" text-anchor="middle" fill="white" font-size="8.0" font-weight="bold">1</text><title>1. home_page.dart</title></g><text x="160.0" y="115.0" class="textNormal">main.dart</text>
<text x="160.0" y="185.0" class="textNormal">comments_example.dart</text>
<text x="160.0" y="255.0" class="textNormal">subclass.dart</text>
<g class="badge incomingBadge">
  <path d="M 382.0,102.0 L 370.0,95.0 Q 367.0,95.0 367.0,98.0 L 367.0,106.0 Q 367.0,109.0 370.0,109.0 Z" fill="#3b82f6"/>
  <text x="371.68" y="103.0" text-anchor="middle" fill="white" font-size="8.0" font-weight="bold">1</text><title>1. main.dart</title></g><g class="badge outgoingBadge">
  <path d="M 596.0,128.0 L 584.0,121.0 Q 581.0,121.0 581.0,124.0 L 581.0,132.0 Q 581.0,135.0 584.0,135.0 Z" fill="#10b981"/>
  <text x="585.68" y="129.0" text-anchor="middle" fill="white" font-size="8.0" font-weight="bold">2</text><title>1. counter_widget.dart
2. models.dart</title></g><text x="480.0" y="115.0" class="textNormal">home_page.dart</text>
<g class="badge incomingBadge">
  <path d="M 702.0,102.0 L 690.0,95.0 Q 687.0,95.0 687.0,98.0 L 687.0,106.0 Q 687.0,109.0 690.0,109.0 Z" fill="#3b82f6"/>
  <text x="691.68" y="103.0" text-anchor="middle" fill="white" font-size="8.0" font-weight="bold">1</text><title>1. home_page.dart</title></g><g class="badge outgoingBadge">
  <path d="M 916.0,128.0 L 904.0,121.0 Q 901.0,121.0 901.0,124.0 L 901.0,132.0 Q 901.0,135.0 904.0,135.0 Z" fill="#10b981"/>
  <text x="905.68" y="129.0" text-anchor="middle" fill="white" font-size="8.0" font-weight="bold">1</text><title>1. utils.dart</title></g><text x="800.0" y="115.0" class="textNormal">counter_widget.dart</text>
<g class="badge incomingBadge">
  <path d="M 702.0,172.0 L 690.0,165.0 Q 687.0,165.0 687.0,168.0 L 687.0,176.0 Q 687.0,179.0 690.0,179.0 Z" fill="#3b82f6"/>
  <text x="691.68" y="173.0" text-anchor="middle" fill="white" font-size="8.0" font-weight="bold">1</text><title>1. home_page.dart</title></g><text x="800.0" y="185.0" class="textNormal">models.dart</text>
<g class="badge incomingBadge">
  <path d="M 1022.0,102.0 L 1010.0,95.0 Q 1007.0,95.0 1007.0,98.0 L 1007.0,106.0 Q 1007.0,109.0 1010.0,109.0 Z" fill="#3b82f6"/>
  <text x="1011.68" y="103.0" text-anchor="middle" fill="white" font-size="8.0" font-weight="bold">1</text><title>1. counter_widget.dart</title></g><text x="1120.0" y="115.0" class="textNormal">utils.dart</text>
</svg>
