<?xml version="1.0" encoding="UTF-8"?>
<svg width="1280" height="260" viewBox="0 0 1280 260" xmlns="http://www.w3.org/2000/svg" font-family="Arial, Helvetica, sans-serif">
<defs>
  <filter id="whiteShadow" x="-20%" y="-20%" width="140%" height="140%">
    <feGaussianBlur in="SourceAlpha" stdDeviation="3"/>
    <feOffset dx="0" dy="0" result="offsetblur"/>
    <feFlood flood-color="white" flood-opacity="1"/>
    <feComposite in2="offsetblur" operator="in"/>
    <feMerge>
      <feMergeNode/>
      <feMergeNode in="SourceGraphic"/>
    </feMerge>
  </filter>
  <filter id="hierarchicalShadow" x="-20%" y="-20%" width="140%" height="140%">
    <feGaussianBlur in="SourceAlpha" stdDeviation="5"/>
    <feOffset dx="2" dy="2" result="offsetblur"/>
    <feFlood flood-color="rgba(0,0,0,0.1)" flood-opacity="0.8"/>
    <feComposite in2="offsetblur" operator="in"/>
    <feMerge>
      <feMergeNode/>
      <feMergeNode in="SourceGraphic"/>
    </feMerge>
  </filter>
  <filter id="outlineWhite">
    <feMorphology in="SourceAlpha" result="DILATED" operator="dilate" radius="2"/>
    <feFlood flood-color="white" flood-opacity="0.5" result="WHITE"/>
    <feComposite in="WHITE" in2="DILATED" operator="in" result="OUTLINE"/>
    <feMerge>
      <feMergeNode in="OUTLINE"/>
      <feMergeNode in="SourceGraphic"/>
    </feMerge>
  </filter>
  <linearGradient id="horizontalGradient" x1="0%" y1="0%" x2="100%" y2="0%">
    <stop offset="0%" stop-color="#28a745"/>
    <stop offset="100%" stop-color="#007bff"/>
  </linearGradient>
  <linearGradient id="verticalGradient" x1="0%" y1="0%" x2="0%" y2="100%">
    <stop offset="0%" stop-color="#28a745"/>
    <stop offset="100%" stop-color="#007bff"/>
  </linearGradient>
</defs>
<style>
  /* Container and layer styles */
  .layerBackground { 
    fill: rgba(52, 58, 64, 0.08); 
    stroke: #dee2e6; 
    stroke-width: 1; 
    stroke-dasharray: 4,4; 
  }

  .layerBackground:hover { 
    fill: rgba(52, 58, 64, 0.12); 
    stroke: black; 
    stroke-dasharray: 0; 
    transition: all 0.3s ease-in-out; 
  }
  
  .layerTitle { 
    fill: black; 
    font-size: 14px; 
    font-weight: bold; 
    text-anchor: middle; 
    filter: url(#outlineWhite); 
  }
  
  /* Node styles */
  .nodeRect { 
    fill: #ffffff; 
    stroke: #343a40; 
    stroke-width: 2; 
    rx: 6; 
    ry: 6; 
    cursor: pointer; 
    filter: url(#whiteShadow); 
    transition: all 0.1s ease-in-out; 
  }
  
  .nodeRect:hover { 
    stroke: black; 
    stroke-width: 5; 
  }
  
  .nodeText { 
    fill: #212529; 
    font-size: 14px; 
    font-weight: 900; 
    text-anchor: middle; 
    dominant-baseline: middle; 
    filter: url(#outlineWhite); 
  }
  
  /* File node styles */
  .fileNode { 
    fill: #ffffff; 
    stroke: #d0d7de; 
    stroke-width: 1; 
    transition: all 0.1s ease-in-out; 
  }
  
  .fileNode:hover { 
    stroke: #007bff; 
    stroke-width: 2; 
  }
  
  /* Unified edge styles */
  .edge { 
    fill: none; 
    stroke: url(#horizontalGradient); 
    stroke-width: 1; 
    opacity: 0.5;
    transition: all 0.1s ease-in-out; 
  }
  
  .edge:hover { 
    stroke: url(#horizontalGradient); 
    stroke-width: 3; 
    opacity: 1.0; 
  }
  
  .edgeVertical { 
    fill: none; 
    stroke: url(#verticalGradient); 
    stroke-width: 1; 
    opacity: 0.5; 
    transition: all 0.1s ease-in-out; 
  }
  
  .edgeVertical:hover { 
    stroke: url(#verticalGradient); 
    stroke-width: 3; 
    opacity: 1.0; 
  }
  
  /* Special edge styles */
  .cycleEdge { 
    stroke: red; 
    stroke-width: 5; 
    opacity: 0.9; 
  }
  
  /* Unified badge styles with '?' cursor */
  .badge { 
    font-size: 10px; 
    font-weight: bold; 
    fill: white; 
    text-anchor: middle; 
    dominant-baseline: middle; 
    cursor: help; 
    transition: all 0.1s ease-in-out; 
  }
  
  .badge:hover { 
    opacity: 0.8; 
  }
  
  /* Special styles */
  .folderTitleLayer { 
    pointer-events: none; 
    isolation: isolate; 
  }
</style>
<rect width="100%" height="100%" fill="white"/>
<rect x="25.0" y="50" width="270.0" height="160" rx="8" class="layerBackground"/>
<text x="160.0" y="75" class="layerTitle">1</text>
<rect x="345.0" y="50" width="270.0" height="160" rx="8" class="layerBackground"/>
<text x="480.0" y="75" class="layerTitle">2</text>
<rect x="665.0" y="50" width="270.0" height="160" rx="8" class="layerBackground"/>
<text x="800.0" y="75" class="layerTitle">3</text>
<rect x="985.0" y="50" width="270.0" height="160" rx="8" class="layerBackground"/>
<text x="1120.0" y="75" class="layerTitle">4</text>
<rect x="50.0" y="90.0" width="220" height="50" class="nodeRect"/>
<rect x="50.0" y="160.0" width="220" height="50" class="nodeRect"/>
<rect x="370.0" y="90.0" width="220" height="50" class="nodeRect"/>
<rect x="690.0" y="90.0" width="220" height="50" class="nodeRect"/>
<rect x="690.0" y="160.0" width="220" height="50" class="nodeRect"/>
<rect x="1010.0" y="90.0" width="220" height="50" class="nodeRect"/>
<g>
  <path d="M 270.0 128.0 C 320.0 128.0, 326.0 102.0, 376.0 102.0" class="edge"/>
  <title>./example/lib/main.dart ▶ ./example/lib/home_page.dart</title>
</g>
<g>
  <path d="M 910.0 128.0 C 960.0 128.0, 966.0 102.0, 1016.0 102.0" class="edge"/>
  <title>./example/lib/counter_widget.dart ▶ ./example/lib/utils.dart</title>
</g>
<g>
  <path d="M 590.0 128.0 C 640.0 128.0, 646.0 102.0, 696.0 102.0" class="edge"/>
  <title>./example/lib/home_page.dart ▶ ./example/lib/counter_widget.dart</title>
</g>
<g>
  <path d="M 590.0 128.0 C 640.0 128.0, 646.0 172.0, 696.0 172.0" class="edge"/>
  <title>./example/lib/home_page.dart ▶ ./example/lib/models.dart</title>
</g>
<g class="outgoingBadge">
  <path d="M 276.0,128.0 L 264.0,121.0 Q 261.0,121.0 261.0,124.0 L 261.0,132.0 Q 261.0,135.0 264.0,135.0 Z" fill="#10b981"/>
  <text x="265.0" y="131.0" text-anchor="middle" fill="white" font-size="8" font-weight="bold">1</text><title>home_page.dart</title></g><text x="160.0" y="115.0" class="nodeText">main.dart</text>
<text x="160.0" y="185.0" class="nodeText">comments_example.dart</text>
<g class="incomingBadge">
  <path d="M 382.0,102.0 L 370.0,95.0 Q 367.0,95.0 367.0,98.0 L 367.0,106.0 Q 367.0,109.0 370.0,109.0 Z" fill="#3b82f6"/>
  <text x="371.0" y="105.0" text-anchor="middle" fill="white" font-size="8" font-weight="bold">1</text><title>main.dart</title></g><g class="outgoingBadge">
  <path d="M 596.0,128.0 L 584.0,121.0 Q 581.0,121.0 581.0,124.0 L 581.0,132.0 Q 581.0,135.0 584.0,135.0 Z" fill="#10b981"/>
  <text x="585.0" y="131.0" text-anchor="middle" fill="white" font-size="8" font-weight="bold">2</text><title>counter_widget.dart
models.dart</title></g><text x="480.0" y="115.0" class="nodeText">home_page.dart</text>
<g class="incomingBadge">
  <path d="M 702.0,102.0 L 690.0,95.0 Q 687.0,95.0 687.0,98.0 L 687.0,106.0 Q 687.0,109.0 690.0,109.0 Z" fill="#3b82f6"/>
  <text x="691.0" y="105.0" text-anchor="middle" fill="white" font-size="8" font-weight="bold">1</text><title>home_page.dart</title></g><g class="outgoingBadge">
  <path d="M 916.0,128.0 L 904.0,121.0 Q 901.0,121.0 901.0,124.0 L 901.0,132.0 Q 901.0,135.0 904.0,135.0 Z" fill="#10b981"/>
  <text x="905.0" y="131.0" text-anchor="middle" fill="white" font-size="8" font-weight="bold">1</text><title>utils.dart</title></g><text x="800.0" y="115.0" class="nodeText">counter_widget.dart</text>
<g class="incomingBadge">
  <path d="M 702.0,172.0 L 690.0,165.0 Q 687.0,165.0 687.0,168.0 L 687.0,176.0 Q 687.0,179.0 690.0,179.0 Z" fill="#3b82f6"/>
  <text x="691.0" y="175.0" text-anchor="middle" fill="white" font-size="8" font-weight="bold">1</text><title>home_page.dart</title></g><text x="800.0" y="185.0" class="nodeText">models.dart</text>
<g class="incomingBadge">
  <path d="M 1022.0,102.0 L 1010.0,95.0 Q 1007.0,95.0 1007.0,98.0 L 1007.0,106.0 Q 1007.0,109.0 1010.0,109.0 Z" fill="#3b82f6"/>
  <text x="1011.0" y="105.0" text-anchor="middle" fill="white" font-size="8" font-weight="bold">1</text><title>counter_widget.dart</title></g><text x="1120.0" y="115.0" class="nodeText">utils.dart</text>
</svg>
