<?xml version="1.0" encoding="UTF-8"?>
<svg width="1200.0" height="2246.0" viewBox="0 0 1200.0 2246.0" xmlns="http://www.w3.org/2000/svg" font-family="Arial, Helvetica, sans-serif">
<defs>
  <filter id="whiteShadow" x="-20%" y="-20%" width="140%" height="140%">
    <feGaussianBlur in="SourceAlpha" stdDeviation="3"/>
    <feOffset dx="0" dy="0" result="offsetblur"/>
    <feFlood flood-color="white" flood-opacity="1"/>
    <feComposite in2="offsetblur" operator="in"/>
    <feMerge>
      <feMergeNode/>
      <feMergeNode in="SourceGraphic"/>
    </feMerge>
  </filter>
  <filter id="hierarchicalShadow" x="-20%" y="-20%" width="140%" height="140%">
    <feGaussianBlur in="SourceAlpha" stdDeviation="5"/>
    <feOffset dx="2" dy="2" result="offsetblur"/>
    <feFlood flood-color="rgba(0,0,0,0.1)" flood-opacity="0.8"/>
    <feComposite in2="offsetblur" operator="in"/>
    <feMerge>
      <feMergeNode/>
      <feMergeNode in="SourceGraphic"/>
    </feMerge>
  </filter>
  <filter id="outlineWhite">
    <feMorphology in="SourceAlpha" result="DILATED" operator="dilate" radius="2"/>
    <feFlood flood-color="white" flood-opacity="0.5" result="WHITE"/>
    <feComposite in="WHITE" in2="DILATED" operator="in" result="OUTLINE"/>
    <feMerge>
      <feMergeNode in="OUTLINE"/>
      <feMergeNode in="SourceGraphic"/>
    </feMerge>
  </filter>
  <linearGradient id="horizontalGradient" x1="0%" y1="0%" x2="100%" y2="0%">
    <stop offset="0%" stop-color="#28a745"/>
    <stop offset="100%" stop-color="#007bff"/>
  </linearGradient>
  <linearGradient id="horizontalGradientFlat" gradientUnits="userSpaceOnUse" x1="0" y1="0" x2="100%" y2="0">
    <stop offset="0%" stop-color="#28a745"/>
    <stop offset="100%" stop-color="#007bff"/>
  </linearGradient>
  <linearGradient id="verticalGradient" x1="0%" y1="0%" x2="0%" y2="100%">
    <stop offset="0%" stop-color="#28a745"/>
    <stop offset="100%" stop-color="#007bff"/>
  </linearGradient>
  <linearGradient id="warningNodeGradient" x1="20%" y1="0%" x2="80%" y2="100%">
    <stop offset="0%" stop-color="#fff6e8" stop-opacity="0.95"/>
    <stop offset="100%" stop-color="#f2a23a" stop-opacity="0.45"/>
  </linearGradient>
  <linearGradient id="errorNodeGradient" x1="20%" y1="0%" x2="80%" y2="100%">
    <stop offset="0%" stop-color="#fdeeed" stop-opacity="0.95"/>
    <stop offset="100%" stop-color="#e05545" stop-opacity="0.5"/>
  </linearGradient>
</defs>
<rect width="100%" height="100%" fill="#f8fafc"/>
<defs>
  <filter id="whiteShadow" x="-20%" y="-20%" width="140%" height="140%">
    <feGaussianBlur in="SourceAlpha" stdDeviation="3"/>
    <feOffset dx="0" dy="0" result="offsetblur"/>
    <feFlood flood-color="white" flood-opacity="1"/>
    <feComposite in2="offsetblur" operator="in"/>
    <feMerge>
      <feMergeNode/>
      <feMergeNode in="SourceGraphic"/>
    </feMerge>
  </filter>
  <filter id="hierarchicalShadow" x="-20%" y="-20%" width="140%" height="140%">
    <feGaussianBlur in="SourceAlpha" stdDeviation="5"/>
    <feOffset dx="2" dy="2" result="offsetblur"/>
    <feFlood flood-color="rgba(0,0,0,0.1)" flood-opacity="0.8"/>
    <feComposite in2="offsetblur" operator="in"/>
    <feMerge>
      <feMergeNode/>
      <feMergeNode in="SourceGraphic"/>
    </feMerge>
  </filter>
  <filter id="outlineWhite">
    <feMorphology in="SourceAlpha" result="DILATED" operator="dilate" radius="2"/>
    <feFlood flood-color="white" flood-opacity="0.5" result="WHITE"/>
    <feComposite in="WHITE" in2="DILATED" operator="in" result="OUTLINE"/>
    <feMerge>
      <feMergeNode in="OUTLINE"/>
      <feMergeNode in="SourceGraphic"/>
    </feMerge>
  </filter>
  <linearGradient id="horizontalGradient" x1="0%" y1="0%" x2="100%" y2="0%">
    <stop offset="0%" stop-color="#28a745"/>
    <stop offset="100%" stop-color="#007bff"/>
  </linearGradient>
  <linearGradient id="horizontalGradientFlat" gradientUnits="userSpaceOnUse" x1="0" y1="0" x2="100%" y2="0">
    <stop offset="0%" stop-color="#28a745"/>
    <stop offset="100%" stop-color="#007bff"/>
  </linearGradient>
  <linearGradient id="verticalGradient" x1="0%" y1="0%" x2="0%" y2="100%">
    <stop offset="0%" stop-color="#28a745"/>
    <stop offset="100%" stop-color="#007bff"/>
  </linearGradient>
  <linearGradient id="warningNodeGradient" x1="20%" y1="0%" x2="80%" y2="100%">
    <stop offset="0%" stop-color="#fff6e8" stop-opacity="0.95"/>
    <stop offset="100%" stop-color="#f2a23a" stop-opacity="0.45"/>
  </linearGradient>
  <linearGradient id="errorNodeGradient" x1="20%" y1="0%" x2="80%" y2="100%">
    <stop offset="0%" stop-color="#fdeeed" stop-opacity="0.95"/>
    <stop offset="100%" stop-color="#e05545" stop-opacity="0.5"/>
  </linearGradient>
</defs>
<style>  
  .layerBackground { 
    fill: rgba(52, 58, 64, 0.08);     
  }

  .layerBackground:hover { 
    fill: PaleGoldenRod ;
    transition: all 0.1s ease-in-out; 
  }

  .layerBackgroundVirtualFolder { 
    fill: rgba(52, 58, 64, 0.05); 
    stroke: gray; 
    stroke-width: 1; 
    stroke-dasharray: 4,4; 
  }

  .layerBackgroundVirtualFolder:hover { 
    fill: PaleGoldenRod ;
    stroke: gray; 
    stroke-width: 0; 
    stroke-dasharray: 4,4;
    transition: all 0.1s ease-in-out; 
  }
  
  .layerTitle,
  .layerTitleSmall { 
    fill: black; 
    font-weight: bold; 
    text-anchor: middle; 
    filter: url(#outlineWhite); 
  }

  .layerTitle { 
    font-size: 16px; 
  }

  .layerTitleSmall { 
    font-size: 12px; 
  }
  
  /* File node styles */
  .fileNode { 
    fill: white; 
    stroke: gray; 
    stroke-width: 0.5; 
    rx: 6; 
    ry: 6;    
  }
  
  .fileNode:hover {     
    fill: PaleGoldenRod;
    transition: all 0.1s ease-in-out; 
  }

  .fileNodeWarning,
  .layerBackgroundWarning,
  .layerBackgroundVirtualFolderWarning {
    fill: url(#warningNodeGradient);
    fill-opacity: 0.68;
  }

  .fileNodeError,
  .layerBackgroundError,
  .layerBackgroundVirtualFolderError {
    fill: url(#errorNodeGradient);
    fill-opacity: 0.72;
  }

  .textNormal,
  .textSmall { 
    fill: #212529; 
    font-weight: 900; 
    text-anchor: middle; 
    dominant-baseline: middle; 
    filter: url(#outlineWhite); 
  }

  .textNormal { 
    font-size: 14px; 
  }

  .textSmall { 
    font-size: 12px; 
  }

  /* Unified edge styles */
  .edge { 
    fill: none; 
    stroke: url(#horizontalGradient); 
    stroke-width: 1; 
    opacity: 0.5;
    cursor: pointer;
    transition: all 0.1s ease-in-out; 
  }


  .edge:hover { 
    stroke: url(#horizontalGradient); 
    stroke-width: 3; 
    opacity: 1.0; 
  }

  .edgeFlat {
    stroke: url(#horizontalGradient);
    stroke-width: 1.5;
    stroke-linecap: round;
    opacity: 0.95;
  }

  .edgeFlat:hover {
    stroke: url(#horizontalGradient);
    stroke-width: 3;
    opacity: 1.0;
  }
  
  .edgeVertical { 
    fill: none; 
    stroke: url(#verticalGradient); 
    stroke-width: 1; 
    opacity: 0.5; 
    cursor: pointer;
    transition: all 0.1s ease-in-out; 
  }
  
  .edgeVertical:hover { 
    stroke: url(#verticalGradient); 
    stroke-width: 3; 
    opacity: 1.0; 
  }
  
  /* Special edge styles */
  .cycleEdge { 
    fill: none; 
    stroke: red; 
    stroke-width: 5; 
    opacity: 0.9; 
    cursor: pointer;
  }
  
  .warningEdge { 
    fill: none; 
    stroke: orange; 
    stroke-width: 3; 
    opacity: 0.9; 
    cursor: pointer;
    transition: all 0.1s ease-in-out; 
  }
  
  .warningEdge:hover { 
    fill: none; 
    stroke: orange; 
    stroke-width: 5; 
    opacity: 1.0; 
  }
  
  /* Unified badge styles with pointer cursor */
  .badge { 
    font-size: 10px; 
    font-weight: bold; 
    fill: white; 
    text-anchor: middle; 
    dominant-baseline: middle; 
    cursor: pointer; 
    transition: all 0.1s ease-in-out; 
  }
  
  .badge:hover { 
    opacity: 0.8; 
  }
  
  /* Special styles */
  .folderTitleLayer { 
    pointer-events: none; 
    isolation: isolate; 
  }
</style>
<text x="600.0" y="28.0" text-anchor="middle" fill="#0f172a" font-size="22.0" font-weight="700">fcheck v1.3.0</text>
<text x="280.0" y="70.0" fill="#1e293b" font-size="15.0" font-weight="700">dependencies (5 items)</text>
<line x1="280.0" y1="76.0" x2="480.0" y2="76.0" stroke="#1d4ed8" stroke-width="2.0" opacity="0.9"/>
<text x="720.0" y="70.0" fill="#1e293b" font-size="15.0" font-weight="700">dev_dependencies (2 items)</text>
<line x1="720.0" y1="76.0" x2="920.0" y2="76.0" stroke="#166534" stroke-width="2.0" opacity="0.9"/>
<text x="600.0" y="486.0" text-anchor="middle" fill="#475569" font-size="13.0" font-weight="700">Derived packages (30 items)</text>
<line x1="40.0" y1="492.0" x2="1160.0" y2="492.0" stroke="#64748b" stroke-width="1" opacity="0.35"/>
<text x="600.0" y="1760.0" text-anchor="middle" fill="#475569" font-size="13.0" font-weight="700">Transitive packages (11 items)</text>
<line x1="40.0" y1="1766.0" x2="1160.0" y2="1766.0" stroke="#64748b" stroke-width="1" opacity="0.35"/>
<g>
  <path d="M 280.0 395.0 H 268.0 Q 262.0 395.0 262.0 401.0 V 632.0 Q 262.0 638.0 268.0 638.0 H 460.0" class="edgeVertical"/>
  <title> ▶ </title>
</g>
<title>yaml -> collection v1.19.1</title>
<g>
  <path d="M 280.0 263.0 H 265.0 Q 259.0 263.0 259.0 269.0 V 552.0 Q 259.0 558.0 265.0 558.0 H 460.0" class="edgeVertical"/>
  <title> ▶ </title>
</g>
<title>glob -> async v2.13.1</title>
<g>
  <path d="M 280.0 263.0 H 262.0 Q 256.0 263.0 256.0 269.0 V 632.0 Q 256.0 638.0 262.0 638.0 H 460.0" class="edgeVertical"/>
  <title> ▶ </title>
</g>
<title>glob -> collection v1.19.1</title>
<g>
  <path d="M 280.0 131.0 H 259.0 Q 253.0 131.0 253.0 137.0 V 512.0 Q 253.0 518.0 259.0 518.0 H 460.0" class="edgeVertical"/>
  <title> ▶ </title>
</g>
<title>analyzer -> _fe_analyzer_shared v100.0.0</title>
<g>
  <path d="M 280.0 131.0 H 256.0 Q 250.0 131.0 250.0 137.0 V 632.0 Q 250.0 638.0 256.0 638.0 H 460.0" class="edgeVertical"/>
  <title> ▶ </title>
</g>
<title>analyzer -> collection v1.19.1</title>
<g>
  <path d="M 280.0 263.0 H 253.0 Q 247.0 263.0 247.0 269.0 V 792.0 Q 247.0 798.0 253.0 798.0 H 460.0" class="edgeVertical"/>
  <title> ▶ </title>
</g>
<title>glob -> file v7.0.1</title>
<g>
  <path d="M 280.0 131.0 H 250.0 Q 244.0 131.0 244.0 137.0 V 672.0 Q 244.0 678.0 250.0 678.0 H 460.0" class="edgeVertical"/>
  <title> ▶ </title>
</g>
<title>analyzer -> convert v3.1.2</title>
<g>
  <path d="M 280.0 131.0 H 247.0 Q 241.0 131.0 241.0 137.0 V 752.0 Q 241.0 758.0 247.0 758.0 H 460.0" class="edgeVertical"/>
  <title> ▶ </title>
</g>
<title>analyzer -> crypto v3.0.7</title>
<g>
  <path d="M 280.0 131.0 H 244.0 Q 238.0 131.0 238.0 137.0 V 952.0 Q 238.0 958.0 244.0 958.0 H 460.0" class="edgeVertical"/>
  <title> ▶ </title>
</g>
<title>analyzer -> meta v1.18.2</title>
<g>
  <path d="M 280.0 131.0 H 241.0 Q 235.0 131.0 235.0 137.0 V 1032.0 Q 235.0 1038.0 241.0 1038.0 H 460.0" class="edgeVertical"/>
  <title> ▶ </title>
</g>
<title>analyzer -> package_config v2.2.0</title>
<g>
  <path d="M 280.0 395.0 H 238.0 Q 232.0 395.0 232.0 401.0 V 1312.0 Q 232.0 1318.0 238.0 1318.0 H 460.0" class="edgeVertical"/>
  <title> ▶ </title>
</g>
<title>yaml -> source_span v1.10.2</title>
<g>
  <path d="M 280.0 131.0 H 235.0 Q 229.0 131.0 229.0 137.0 V 1112.0 Q 229.0 1118.0 235.0 1118.0 H 460.0" class="edgeVertical"/>
  <title> ▶ </title>
</g>
<title>analyzer -> pub_semver v2.2.0</title>
<g>
  <path d="M 280.0 395.0 H 232.0 Q 226.0 395.0 226.0 401.0 V 1432.0 Q 226.0 1438.0 232.0 1438.0 H 460.0" class="edgeVertical"/>
  <title> ▶ </title>
</g>
<title>yaml -> string_scanner v1.4.1</title>
<g>
  <path d="M 280.0 263.0 H 229.0 Q 223.0 263.0 223.0 269.0 V 1432.0 Q 223.0 1438.0 229.0 1438.0 H 460.0" class="edgeVertical"/>
  <title> ▶ </title>
</g>
<title>glob -> string_scanner v1.4.1</title>
<g>
  <path d="M 280.0 131.0 H 226.0 Q 220.0 131.0 220.0 137.0 V 1312.0 Q 220.0 1318.0 226.0 1318.0 H 460.0" class="edgeVertical"/>
  <title> ▶ </title>
</g>
<title>analyzer -> source_span v1.10.2</title>
<g>
  <path d="M 280.0 131.0 H 223.0 Q 217.0 131.0 217.0 137.0 V 1592.0 Q 217.0 1598.0 223.0 1598.0 H 460.0" class="edgeVertical"/>
  <title> ▶ </title>
</g>
<title>analyzer -> watcher v1.2.1</title>
<g>
  <path d="M 920.0 197.0 H 932.0 Q 938.0 197.0 938.0 203.0 V 552.0 Q 938.0 558.0 932.0 558.0 H 740.0" class="edgeVertical"/>
  <title> ▶ </title>
</g>
<title>test -> async v2.13.1</title>
<g>
  <path d="M 920.0 197.0 H 935.0 Q 941.0 197.0 941.0 203.0 V 592.0 Q 941.0 598.0 935.0 598.0 H 740.0" class="edgeVertical"/>
  <title> ▶ </title>
</g>
<title>test -> boolean_selector v2.1.2</title>
<g>
  <path d="M 920.0 197.0 H 938.0 Q 944.0 197.0 944.0 203.0 V 632.0 Q 944.0 638.0 938.0 638.0 H 740.0" class="edgeVertical"/>
  <title> ▶ </title>
</g>
<title>test -> collection v1.19.1</title>
<g>
  <path d="M 920.0 197.0 H 941.0 Q 947.0 197.0 947.0 203.0 V 712.0 Q 947.0 718.0 941.0 718.0 H 740.0" class="edgeVertical"/>
  <title> ▶ </title>
</g>
<title>test -> coverage v1.15.0</title>
<g>
  <path d="M 920.0 197.0 H 944.0 Q 950.0 197.0 950.0 203.0 V 832.0 Q 950.0 838.0 944.0 838.0 H 740.0" class="edgeVertical"/>
  <title> ▶ </title>
</g>
<title>test -> http_multi_server v3.2.2</title>
<g>
  <path d="M 920.0 197.0 H 947.0 Q 953.0 197.0 953.0 203.0 V 872.0 Q 953.0 878.0 947.0 878.0 H 740.0" class="edgeVertical"/>
  <title> ▶ </title>
</g>
<title>test -> io v1.0.5</title>
<g>
  <path d="M 920.0 197.0 H 950.0 Q 956.0 197.0 956.0 203.0 V 912.0 Q 956.0 918.0 950.0 918.0 H 740.0" class="edgeVertical"/>
  <title> ▶ </title>
</g>
<title>test -> matcher v0.12.20</title>
<g>
  <path d="M 920.0 197.0 H 953.0 Q 959.0 197.0 959.0 203.0 V 992.0 Q 959.0 998.0 953.0 998.0 H 740.0" class="edgeVertical"/>
  <title> ▶ </title>
</g>
<title>test -> node_preamble v2.0.2</title>
<g>
  <path d="M 920.0 197.0 H 956.0 Q 962.0 197.0 962.0 203.0 V 1032.0 Q 962.0 1038.0 956.0 1038.0 H 740.0" class="edgeVertical"/>
  <title> ▶ </title>
</g>
<title>test -> package_config v2.2.0</title>
<g>
  <path d="M 920.0 197.0 H 959.0 Q 965.0 197.0 965.0 203.0 V 1072.0 Q 965.0 1078.0 959.0 1078.0 H 740.0" class="edgeVertical"/>
  <title> ▶ </title>
</g>
<title>test -> pool v1.5.2</title>
<g>
  <path d="M 920.0 197.0 H 962.0 Q 968.0 197.0 968.0 203.0 V 1152.0 Q 968.0 1158.0 962.0 1158.0 H 740.0" class="edgeVertical"/>
  <title> ▶ </title>
</g>
<title>test -> shelf v1.4.2</title>
<g>
  <path d="M 920.0 197.0 H 965.0 Q 971.0 197.0 971.0 203.0 V 1192.0 Q 971.0 1198.0 965.0 1198.0 H 740.0" class="edgeVertical"/>
  <title> ▶ </title>
</g>
<title>test -> shelf_packages_handler v3.0.2</title>
<g>
  <path d="M 920.0 197.0 H 968.0 Q 974.0 197.0 974.0 203.0 V 1232.0 Q 974.0 1238.0 968.0 1238.0 H 740.0" class="edgeVertical"/>
  <title> ▶ </title>
</g>
<title>test -> shelf_static v1.1.3</title>
<g>
  <path d="M 920.0 197.0 H 971.0 Q 977.0 197.0 977.0 203.0 V 1272.0 Q 977.0 1278.0 971.0 1278.0 H 740.0" class="edgeVertical"/>
  <title> ▶ </title>
</g>
<title>test -> shelf_web_socket v3.0.0</title>
<g>
  <path d="M 920.0 197.0 H 974.0 Q 980.0 197.0 980.0 203.0 V 1312.0 Q 980.0 1318.0 974.0 1318.0 H 740.0" class="edgeVertical"/>
  <title> ▶ </title>
</g>
<title>test -> source_span v1.10.2</title>
<g>
  <path d="M 920.0 197.0 H 977.0 Q 983.0 197.0 983.0 203.0 V 1352.0 Q 983.0 1358.0 977.0 1358.0 H 740.0" class="edgeVertical"/>
  <title> ▶ </title>
</g>
<title>test -> stack_trace v1.12.1</title>
<g>
  <path d="M 920.0 197.0 H 980.0 Q 986.0 197.0 986.0 203.0 V 1392.0 Q 986.0 1398.0 980.0 1398.0 H 740.0" class="edgeVertical"/>
  <title> ▶ </title>
</g>
<title>test -> stream_channel v2.1.4</title>
<g>
  <path d="M 920.0 197.0 H 983.0 Q 989.0 197.0 989.0 203.0 V 1472.0 Q 989.0 1478.0 983.0 1478.0 H 740.0" class="edgeVertical"/>
  <title> ▶ </title>
</g>
<title>test -> test_api v0.7.12</title>
<g>
  <path d="M 920.0 197.0 H 986.0 Q 992.0 197.0 992.0 203.0 V 1512.0 Q 992.0 1518.0 986.0 1518.0 H 740.0" class="edgeVertical"/>
  <title> ▶ </title>
</g>
<title>test -> test_core v0.6.18</title>
<g>
  <path d="M 920.0 197.0 H 989.0 Q 995.0 197.0 995.0 203.0 V 1552.0 Q 995.0 1558.0 989.0 1558.0 H 740.0" class="edgeVertical"/>
  <title> ▶ </title>
</g>
<title>test -> typed_data v1.4.0</title>
<g>
  <path d="M 920.0 197.0 H 992.0 Q 998.0 197.0 998.0 203.0 V 1632.0 Q 998.0 1638.0 992.0 1638.0 H 740.0" class="edgeVertical"/>
  <title> ▶ </title>
</g>
<title>test -> web_socket_channel v3.0.3</title>
<g>
  <path d="M 920.0 197.0 H 995.0 Q 1001.0 197.0 1001.0 203.0 V 1672.0 Q 1001.0 1678.0 995.0 1678.0 H 740.0" class="edgeVertical"/>
  <title> ▶ </title>
</g>
<title>test -> webkit_inspection_protocol v1.2.1</title>
<g>
  <path d="M 740.0 1678.0 H 752.0 Q 758.0 1678.0 758.0 1684.0 V 1906.0 Q 758.0 1912.0 752.0 1912.0 H 460.0" class="edgeVertical"/>
  <title> ▶ </title>
</g>
<title>webkit_inspection_protocol -> logging v1.3.0</title>
<g>
  <path d="M 740.0 1518.0 H 755.0 Q 761.0 1518.0 761.0 1524.0 V 1826.0 Q 761.0 1832.0 755.0 1832.0 H 460.0" class="edgeVertical"/>
  <title> ▶ </title>
</g>
<title>test_core -> frontend_server_client v4.0.0</title>
<g>
  <path d="M 740.0 1518.0 H 758.0 Q 764.0 1518.0 764.0 1524.0 V 1986.0 Q 764.0 1992.0 758.0 1992.0 H 460.0" class="edgeVertical"/>
  <title> ▶ </title>
</g>
<title>test_core -> source_map_stack_trace v2.1.2</title>
<g>
  <path d="M 740.0 1518.0 H 761.0 Q 767.0 1518.0 767.0 1524.0 V 2026.0 Q 767.0 2032.0 761.0 2032.0 H 460.0" class="edgeVertical"/>
  <title> ▶ </title>
</g>
<title>test_core -> source_maps v0.10.13</title>
<g>
  <path d="M 740.0 1638.0 H 764.0 Q 770.0 1638.0 770.0 1644.0 V 2146.0 Q 770.0 2152.0 764.0 2152.0 H 460.0" class="edgeVertical"/>
  <title> ▶ </title>
</g>
<title>web_socket_channel -> web v1.1.1</title>
<g>
  <path d="M 740.0 1638.0 H 767.0 Q 773.0 1638.0 773.0 1644.0 V 2186.0 Q 773.0 2192.0 767.0 2192.0 H 460.0" class="edgeVertical"/>
  <title> ▶ </title>
</g>
<title>web_socket_channel -> web_socket v1.0.1</title>
<g>
  <path d="M 740.0 1478.0 H 770.0 Q 776.0 1478.0 776.0 1484.0 V 2066.0 Q 776.0 2072.0 770.0 2072.0 H 460.0" class="edgeVertical"/>
  <title> ▶ </title>
</g>
<title>test_api -> term_glyph v1.2.2</title>
<g>
  <path d="M 740.0 1518.0 H 773.0 Q 779.0 1518.0 779.0 1524.0 V 2106.0 Q 779.0 2112.0 773.0 2112.0 H 460.0" class="edgeVertical"/>
  <title> ▶ </title>
</g>
<title>test_core -> vm_service v15.2.0</title>
<g>
  <path d="M 740.0 1238.0 H 776.0 Q 782.0 1238.0 782.0 1244.0 V 1866.0 Q 782.0 1872.0 776.0 1872.0 H 460.0" class="edgeVertical"/>
  <title> ▶ </title>
</g>
<title>shelf_static -> http_parser v4.1.2</title>
<g>
  <path d="M 740.0 1158.0 H 779.0 Q 785.0 1158.0 785.0 1164.0 V 1866.0 Q 785.0 1872.0 779.0 1872.0 H 460.0" class="edgeVertical"/>
  <title> ▶ </title>
</g>
<title>shelf -> http_parser v4.1.2</title>
<g>
  <path d="M 740.0 1238.0 H 782.0 Q 788.0 1238.0 788.0 1244.0 V 1946.0 Q 788.0 1952.0 782.0 1952.0 H 460.0" class="edgeVertical"/>
  <title> ▶ </title>
</g>
<title>shelf_static -> mime v2.0.0</title>
<g>
  <path d="M 740.0 1318.0 H 785.0 Q 791.0 1318.0 791.0 1324.0 V 2066.0 Q 791.0 2072.0 785.0 2072.0 H 460.0" class="edgeVertical"/>
  <title> ▶ </title>
</g>
<title>source_span -> term_glyph v1.2.2</title>
<g>
  <path d="M 740.0 718.0 H 788.0 Q 794.0 718.0 794.0 724.0 V 1786.0 Q 794.0 1792.0 788.0 1792.0 H 460.0" class="edgeVertical"/>
  <title> ▶ </title>
</g>
<title>coverage -> cli_config v0.2.0</title>
<g>
  <path d="M 740.0 918.0 H 791.0 Q 797.0 918.0 797.0 924.0 V 2066.0 Q 797.0 2072.0 791.0 2072.0 H 460.0" class="edgeVertical"/>
  <title> ▶ </title>
</g>
<title>matcher -> term_glyph v1.2.2</title>
<g>
  <path d="M 740.0 718.0 H 794.0 Q 800.0 718.0 800.0 724.0 V 1906.0 Q 800.0 1912.0 794.0 1912.0 H 460.0" class="edgeVertical"/>
  <title> ▶ </title>
</g>
<title>coverage -> logging v1.3.0</title>
<g>
  <path d="M 740.0 718.0 H 797.0 Q 803.0 718.0 803.0 724.0 V 2026.0 Q 803.0 2032.0 797.0 2032.0 H 460.0" class="edgeVertical"/>
  <title> ▶ </title>
</g>
<title>coverage -> source_maps v0.10.13</title>
<g>
  <path d="M 740.0 718.0 H 800.0 Q 806.0 718.0 806.0 724.0 V 2106.0 Q 806.0 2112.0 800.0 2112.0 H 460.0" class="edgeVertical"/>
  <title> ▶ </title>
</g>
<title>coverage -> vm_service v15.2.0</title>
<rect x="280.0" y="108.0" width="200.0" height="46.0" rx="8.0" ry="8.0" fill="#dbeafe" stroke="#1d4ed8" stroke-width="1"/>
<text x="380.0" y="128.0" text-anchor="middle" fill="#0f172a" font-size="13.0">analyzer</text>
<text x="380.0" y="141.0" text-anchor="middle" fill="#334155" font-size="10.0">v13.0.0</text>
<g class="badge outgoingBadge">
  <path d="M 274.0,131.0 L 286.0,124.0 Q 289.0,124.0 289.0,127.0 L 289.0,135.0 Q 289.0,138.0 286.0,138.0 Z" fill="#10b981"/>
  <text x="284.32" y="132.0" text-anchor="middle" fill="white" font-size="8.0" font-weight="bold">9</text></g>
<rect x="280.0" y="174.0" width="200.0" height="46.0" rx="8.0" ry="8.0" fill="#dbeafe" stroke="#1d4ed8" stroke-width="1"/>
<text x="380.0" y="194.0" text-anchor="middle" fill="#0f172a" font-size="13.0">args</text>
<text x="380.0" y="207.0" text-anchor="middle" fill="#334155" font-size="10.0">v2.7.0</text>
<rect x="280.0" y="240.0" width="200.0" height="46.0" rx="8.0" ry="8.0" fill="#dbeafe" stroke="#1d4ed8" stroke-width="1"/>
<text x="380.0" y="260.0" text-anchor="middle" fill="#0f172a" font-size="13.0">glob</text>
<text x="380.0" y="273.0" text-anchor="middle" fill="#334155" font-size="10.0">v2.1.3</text>
<g class="badge outgoingBadge">
  <path d="M 274.0,263.0 L 286.0,256.0 Q 289.0,256.0 289.0,259.0 L 289.0,267.0 Q 289.0,270.0 286.0,270.0 Z" fill="#10b981"/>
  <text x="284.32" y="264.0" text-anchor="middle" fill="white" font-size="8.0" font-weight="bold">4</text></g>
<rect x="280.0" y="306.0" width="200.0" height="46.0" rx="8.0" ry="8.0" fill="#dbeafe" stroke="#1d4ed8" stroke-width="1"/>
<text x="380.0" y="326.0" text-anchor="middle" fill="#0f172a" font-size="13.0">path</text>
<text x="380.0" y="339.0" text-anchor="middle" fill="#334155" font-size="10.0">v1.9.1</text>
<rect x="280.0" y="372.0" width="200.0" height="46.0" rx="8.0" ry="8.0" fill="#dbeafe" stroke="#1d4ed8" stroke-width="1"/>
<text x="380.0" y="392.0" text-anchor="middle" fill="#0f172a" font-size="13.0">yaml</text>
<text x="380.0" y="405.0" text-anchor="middle" fill="#334155" font-size="10.0">v3.1.3</text>
<g class="badge outgoingBadge">
  <path d="M 274.0,395.0 L 286.0,388.0 Q 289.0,388.0 289.0,391.0 L 289.0,399.0 Q 289.0,402.0 286.0,402.0 Z" fill="#10b981"/>
  <text x="284.32" y="396.0" text-anchor="middle" fill="white" font-size="8.0" font-weight="bold">3</text></g>
<rect x="720.0" y="108.0" width="200.0" height="46.0" rx="8.0" ry="8.0" fill="#dcfce7" stroke="#166534" stroke-width="1"/>
<text x="820.0" y="128.0" text-anchor="middle" fill="#0f172a" font-size="13.0">lints</text>
<text x="820.0" y="141.0" text-anchor="middle" fill="#334155" font-size="10.0">v6.1.0</text>
<rect x="720.0" y="174.0" width="200.0" height="46.0" rx="8.0" ry="8.0" fill="#dcfce7" stroke="#166534" stroke-width="1"/>
<text x="820.0" y="194.0" text-anchor="middle" fill="#0f172a" font-size="13.0">test</text>
<text x="820.0" y="207.0" text-anchor="middle" fill="#334155" font-size="10.0">v1.31.1</text>
<g class="badge outgoingBadge">
  <path d="M 928.0,197.0 L 912.0,189.4 Q 909.0,189.4 909.0,192.4 L 909.0,201.6 Q 909.0,204.6 912.0,204.6 Z" fill="#10b981"/>
  <text x="914.72" y="198.0" text-anchor="middle" fill="white" font-size="8.0" font-weight="bold" textLength="10.120000000000001" lengthAdjust="spacingAndGlyphs">22</text></g>
<rect x="460.0" y="504.0" width="280.0" height="28.0" rx="8.0" ry="8.0" fill="#f8fafc" stroke="#64748b" stroke-width="1" stroke-dasharray="4,2"/>
<text x="468.0" y="522.0" text-anchor="start" fill="#0f172a" font-size="12.0">_fe_analyzer_shared</text>
<text x="732.0" y="522.0" text-anchor="end" fill="#334155" font-size="12.0">^100.0.0</text>
<g class="badge incomingBadge">
  <path d="M 466.0,518.0 L 454.0,511.0 Q 451.0,511.0 451.0,514.0 L 451.0,522.0 Q 451.0,525.0 454.0,525.0 Z" fill="#3b82f6"/>
  <text x="455.68" y="519.0" text-anchor="middle" fill="white" font-size="8.0" font-weight="bold">1</text></g>
<rect x="460.0" y="544.0" width="280.0" height="28.0" rx="8.0" ry="8.0" fill="#f8fafc" stroke="#64748b" stroke-width="1" stroke-dasharray="4,2"/>
<text x="468.0" y="562.0" text-anchor="start" fill="#0f172a" font-size="12.0">async</text>
<text x="732.0" y="562.0" text-anchor="end" fill="#334155" font-size="12.0">^2.13.1</text>
<g class="badge incomingBadge">
  <path d="M 466.0,558.0 L 454.0,551.0 Q 451.0,551.0 451.0,554.0 L 451.0,562.0 Q 451.0,565.0 454.0,565.0 Z" fill="#3b82f6"/>
  <text x="455.68" y="559.0" text-anchor="middle" fill="white" font-size="8.0" font-weight="bold">1</text></g>
<g class="badge incomingBadge">
  <path d="M 734.0,558.0 L 746.0,551.0 Q 749.0,551.0 749.0,554.0 L 749.0,562.0 Q 749.0,565.0 746.0,565.0 Z" fill="#3b82f6"/>
  <text x="744.32" y="559.0" text-anchor="middle" fill="white" font-size="8.0" font-weight="bold">1</text></g>
<rect x="460.0" y="584.0" width="280.0" height="28.0" rx="8.0" ry="8.0" fill="#f8fafc" stroke="#64748b" stroke-width="1" stroke-dasharray="4,2"/>
<text x="468.0" y="602.0" text-anchor="start" fill="#0f172a" font-size="12.0">boolean_selector</text>
<text x="732.0" y="602.0" text-anchor="end" fill="#334155" font-size="12.0">^2.1.2</text>
<g class="badge incomingBadge">
  <path d="M 734.0,598.0 L 746.0,591.0 Q 749.0,591.0 749.0,594.0 L 749.0,602.0 Q 749.0,605.0 746.0,605.0 Z" fill="#3b82f6"/>
  <text x="744.32" y="599.0" text-anchor="middle" fill="white" font-size="8.0" font-weight="bold">1</text></g>
<rect x="460.0" y="624.0" width="280.0" height="28.0" rx="8.0" ry="8.0" fill="#f8fafc" stroke="#64748b" stroke-width="1" stroke-dasharray="4,2"/>
<text x="468.0" y="642.0" text-anchor="start" fill="#0f172a" font-size="12.0">collection</text>
<text x="732.0" y="642.0" text-anchor="end" fill="#334155" font-size="12.0">^1.19.1</text>
<g class="badge incomingBadge">
  <path d="M 466.0,638.0 L 454.0,631.0 Q 451.0,631.0 451.0,634.0 L 451.0,642.0 Q 451.0,645.0 454.0,645.0 Z" fill="#3b82f6"/>
  <text x="455.68" y="639.0" text-anchor="middle" fill="white" font-size="8.0" font-weight="bold">3</text></g>
<g class="badge incomingBadge">
  <path d="M 734.0,638.0 L 746.0,631.0 Q 749.0,631.0 749.0,634.0 L 749.0,642.0 Q 749.0,645.0 746.0,645.0 Z" fill="#3b82f6"/>
  <text x="744.32" y="639.0" text-anchor="middle" fill="white" font-size="8.0" font-weight="bold">1</text></g>
<rect x="460.0" y="664.0" width="280.0" height="28.0" rx="8.0" ry="8.0" fill="#f8fafc" stroke="#64748b" stroke-width="1" stroke-dasharray="4,2"/>
<text x="468.0" y="682.0" text-anchor="start" fill="#0f172a" font-size="12.0">convert</text>
<text x="732.0" y="682.0" text-anchor="end" fill="#334155" font-size="12.0">^3.1.2</text>
<g class="badge incomingBadge">
  <path d="M 466.0,678.0 L 454.0,671.0 Q 451.0,671.0 451.0,674.0 L 451.0,682.0 Q 451.0,685.0 454.0,685.0 Z" fill="#3b82f6"/>
  <text x="455.68" y="679.0" text-anchor="middle" fill="white" font-size="8.0" font-weight="bold">1</text></g>
<rect x="460.0" y="704.0" width="280.0" height="28.0" rx="8.0" ry="8.0" fill="#f8fafc" stroke="#64748b" stroke-width="1" stroke-dasharray="4,2"/>
<text x="468.0" y="722.0" text-anchor="start" fill="#0f172a" font-size="12.0">coverage</text>
<text x="732.0" y="722.0" text-anchor="end" fill="#334155" font-size="12.0">^1.15.0</text>
<g class="badge incomingBadge">
  <path d="M 734.0,718.0 L 746.0,711.0 Q 749.0,711.0 749.0,714.0 L 749.0,722.0 Q 749.0,725.0 746.0,725.0 Z" fill="#3b82f6"/>
  <text x="744.32" y="719.0" text-anchor="middle" fill="white" font-size="8.0" font-weight="bold">1</text></g>
<rect x="460.0" y="744.0" width="280.0" height="28.0" rx="8.0" ry="8.0" fill="#f8fafc" stroke="#64748b" stroke-width="1" stroke-dasharray="4,2"/>
<text x="468.0" y="762.0" text-anchor="start" fill="#0f172a" font-size="12.0">crypto</text>
<text x="732.0" y="762.0" text-anchor="end" fill="#334155" font-size="12.0">^3.0.7</text>
<g class="badge incomingBadge">
  <path d="M 466.0,758.0 L 454.0,751.0 Q 451.0,751.0 451.0,754.0 L 451.0,762.0 Q 451.0,765.0 454.0,765.0 Z" fill="#3b82f6"/>
  <text x="455.68" y="759.0" text-anchor="middle" fill="white" font-size="8.0" font-weight="bold">1</text></g>
<rect x="460.0" y="784.0" width="280.0" height="28.0" rx="8.0" ry="8.0" fill="#f8fafc" stroke="#64748b" stroke-width="1" stroke-dasharray="4,2"/>
<text x="468.0" y="802.0" text-anchor="start" fill="#0f172a" font-size="12.0">file</text>
<text x="732.0" y="802.0" text-anchor="end" fill="#334155" font-size="12.0">^7.0.1</text>
<g class="badge incomingBadge">
  <path d="M 466.0,798.0 L 454.0,791.0 Q 451.0,791.0 451.0,794.0 L 451.0,802.0 Q 451.0,805.0 454.0,805.0 Z" fill="#3b82f6"/>
  <text x="455.68" y="799.0" text-anchor="middle" fill="white" font-size="8.0" font-weight="bold">1</text></g>
<rect x="460.0" y="824.0" width="280.0" height="28.0" rx="8.0" ry="8.0" fill="#f8fafc" stroke="#64748b" stroke-width="1" stroke-dasharray="4,2"/>
<text x="468.0" y="842.0" text-anchor="start" fill="#0f172a" font-size="12.0">http_multi_server</text>
<text x="732.0" y="842.0" text-anchor="end" fill="#334155" font-size="12.0">^3.2.2</text>
<g class="badge incomingBadge">
  <path d="M 734.0,838.0 L 746.0,831.0 Q 749.0,831.0 749.0,834.0 L 749.0,842.0 Q 749.0,845.0 746.0,845.0 Z" fill="#3b82f6"/>
  <text x="744.32" y="839.0" text-anchor="middle" fill="white" font-size="8.0" font-weight="bold">1</text></g>
<rect x="460.0" y="864.0" width="280.0" height="28.0" rx="8.0" ry="8.0" fill="#f8fafc" stroke="#64748b" stroke-width="1" stroke-dasharray="4,2"/>
<text x="468.0" y="882.0" text-anchor="start" fill="#0f172a" font-size="12.0">io</text>
<text x="732.0" y="882.0" text-anchor="end" fill="#334155" font-size="12.0">^1.0.5</text>
<g class="badge incomingBadge">
  <path d="M 734.0,878.0 L 746.0,871.0 Q 749.0,871.0 749.0,874.0 L 749.0,882.0 Q 749.0,885.0 746.0,885.0 Z" fill="#3b82f6"/>
  <text x="744.32" y="879.0" text-anchor="middle" fill="white" font-size="8.0" font-weight="bold">1</text></g>
<rect x="460.0" y="904.0" width="280.0" height="28.0" rx="8.0" ry="8.0" fill="#f8fafc" stroke="#64748b" stroke-width="1" stroke-dasharray="4,2"/>
<text x="468.0" y="922.0" text-anchor="start" fill="#0f172a" font-size="12.0">matcher</text>
<text x="732.0" y="922.0" text-anchor="end" fill="#334155" font-size="12.0">^0.12.20</text>
<g class="badge incomingBadge">
  <path d="M 734.0,918.0 L 746.0,911.0 Q 749.0,911.0 749.0,914.0 L 749.0,922.0 Q 749.0,925.0 746.0,925.0 Z" fill="#3b82f6"/>
  <text x="744.32" y="919.0" text-anchor="middle" fill="white" font-size="8.0" font-weight="bold">1</text></g>
<rect x="460.0" y="944.0" width="280.0" height="28.0" rx="8.0" ry="8.0" fill="#f8fafc" stroke="#64748b" stroke-width="1" stroke-dasharray="4,2"/>
<text x="468.0" y="962.0" text-anchor="start" fill="#0f172a" font-size="12.0">meta</text>
<text x="732.0" y="962.0" text-anchor="end" fill="#334155" font-size="12.0">^1.18.2</text>
<g class="badge incomingBadge">
  <path d="M 466.0,958.0 L 454.0,951.0 Q 451.0,951.0 451.0,954.0 L 451.0,962.0 Q 451.0,965.0 454.0,965.0 Z" fill="#3b82f6"/>
  <text x="455.68" y="959.0" text-anchor="middle" fill="white" font-size="8.0" font-weight="bold">1</text></g>
<rect x="460.0" y="984.0" width="280.0" height="28.0" rx="8.0" ry="8.0" fill="#f8fafc" stroke="#64748b" stroke-width="1" stroke-dasharray="4,2"/>
<text x="468.0" y="1002.0" text-anchor="start" fill="#0f172a" font-size="12.0">node_preamble</text>
<text x="732.0" y="1002.0" text-anchor="end" fill="#334155" font-size="12.0">^2.0.2</text>
<g class="badge incomingBadge">
  <path d="M 734.0,998.0 L 746.0,991.0 Q 749.0,991.0 749.0,994.0 L 749.0,1002.0 Q 749.0,1005.0 746.0,1005.0 Z" fill="#3b82f6"/>
  <text x="744.32" y="999.0" text-anchor="middle" fill="white" font-size="8.0" font-weight="bold">1</text></g>
<rect x="460.0" y="1024.0" width="280.0" height="28.0" rx="8.0" ry="8.0" fill="#f8fafc" stroke="#64748b" stroke-width="1" stroke-dasharray="4,2"/>
<text x="468.0" y="1042.0" text-anchor="start" fill="#0f172a" font-size="12.0">package_config</text>
<text x="732.0" y="1042.0" text-anchor="end" fill="#334155" font-size="12.0">^2.2.0</text>
<g class="badge incomingBadge">
  <path d="M 466.0,1038.0 L 454.0,1031.0 Q 451.0,1031.0 451.0,1034.0 L 451.0,1042.0 Q 451.0,1045.0 454.0,1045.0 Z" fill="#3b82f6"/>
  <text x="455.68" y="1039.0" text-anchor="middle" fill="white" font-size="8.0" font-weight="bold">1</text></g>
<g class="badge incomingBadge">
  <path d="M 734.0,1038.0 L 746.0,1031.0 Q 749.0,1031.0 749.0,1034.0 L 749.0,1042.0 Q 749.0,1045.0 746.0,1045.0 Z" fill="#3b82f6"/>
  <text x="744.32" y="1039.0" text-anchor="middle" fill="white" font-size="8.0" font-weight="bold">1</text></g>
<rect x="460.0" y="1064.0" width="280.0" height="28.0" rx="8.0" ry="8.0" fill="#f8fafc" stroke="#64748b" stroke-width="1" stroke-dasharray="4,2"/>
<text x="468.0" y="1082.0" text-anchor="start" fill="#0f172a" font-size="12.0">pool</text>
<text x="732.0" y="1082.0" text-anchor="end" fill="#334155" font-size="12.0">^1.5.2</text>
<g class="badge incomingBadge">
  <path d="M 734.0,1078.0 L 746.0,1071.0 Q 749.0,1071.0 749.0,1074.0 L 749.0,1082.0 Q 749.0,1085.0 746.0,1085.0 Z" fill="#3b82f6"/>
  <text x="744.32" y="1079.0" text-anchor="middle" fill="white" font-size="8.0" font-weight="bold">1</text></g>
<rect x="460.0" y="1104.0" width="280.0" height="28.0" rx="8.0" ry="8.0" fill="#f8fafc" stroke="#64748b" stroke-width="1" stroke-dasharray="4,2"/>
<text x="468.0" y="1122.0" text-anchor="start" fill="#0f172a" font-size="12.0">pub_semver</text>
<text x="732.0" y="1122.0" text-anchor="end" fill="#334155" font-size="12.0">^2.2.0</text>
<g class="badge incomingBadge">
  <path d="M 466.0,1118.0 L 454.0,1111.0 Q 451.0,1111.0 451.0,1114.0 L 451.0,1122.0 Q 451.0,1125.0 454.0,1125.0 Z" fill="#3b82f6"/>
  <text x="455.68" y="1119.0" text-anchor="middle" fill="white" font-size="8.0" font-weight="bold">1</text></g>
<rect x="460.0" y="1144.0" width="280.0" height="28.0" rx="8.0" ry="8.0" fill="#f8fafc" stroke="#64748b" stroke-width="1" stroke-dasharray="4,2"/>
<text x="468.0" y="1162.0" text-anchor="start" fill="#0f172a" font-size="12.0">shelf</text>
<text x="732.0" y="1162.0" text-anchor="end" fill="#334155" font-size="12.0">^1.4.2</text>
<g class="badge incomingBadge">
  <path d="M 734.0,1158.0 L 746.0,1151.0 Q 749.0,1151.0 749.0,1154.0 L 749.0,1162.0 Q 749.0,1165.0 746.0,1165.0 Z" fill="#3b82f6"/>
  <text x="744.32" y="1159.0" text-anchor="middle" fill="white" font-size="8.0" font-weight="bold">1</text></g>
<rect x="460.0" y="1184.0" width="280.0" height="28.0" rx="8.0" ry="8.0" fill="#f8fafc" stroke="#64748b" stroke-width="1" stroke-dasharray="4,2"/>
<text x="468.0" y="1202.0" text-anchor="start" fill="#0f172a" font-size="12.0">shelf_packages_handler</text>
<text x="732.0" y="1202.0" text-anchor="end" fill="#334155" font-size="12.0">^3.0.2</text>
<g class="badge incomingBadge">
  <path d="M 734.0,1198.0 L 746.0,1191.0 Q 749.0,1191.0 749.0,1194.0 L 749.0,1202.0 Q 749.0,1205.0 746.0,1205.0 Z" fill="#3b82f6"/>
  <text x="744.32" y="1199.0" text-anchor="middle" fill="white" font-size="8.0" font-weight="bold">1</text></g>
<rect x="460.0" y="1224.0" width="280.0" height="28.0" rx="8.0" ry="8.0" fill="#f8fafc" stroke="#64748b" stroke-width="1" stroke-dasharray="4,2"/>
<text x="468.0" y="1242.0" text-anchor="start" fill="#0f172a" font-size="12.0">shelf_static</text>
<text x="732.0" y="1242.0" text-anchor="end" fill="#334155" font-size="12.0">^1.1.3</text>
<g class="badge incomingBadge">
  <path d="M 734.0,1238.0 L 746.0,1231.0 Q 749.0,1231.0 749.0,1234.0 L 749.0,1242.0 Q 749.0,1245.0 746.0,1245.0 Z" fill="#3b82f6"/>
  <text x="744.32" y="1239.0" text-anchor="middle" fill="white" font-size="8.0" font-weight="bold">1</text></g>
<rect x="460.0" y="1264.0" width="280.0" height="28.0" rx="8.0" ry="8.0" fill="#f8fafc" stroke="#64748b" stroke-width="1" stroke-dasharray="4,2"/>
<text x="468.0" y="1282.0" text-anchor="start" fill="#0f172a" font-size="12.0">shelf_web_socket</text>
<text x="732.0" y="1282.0" text-anchor="end" fill="#334155" font-size="12.0">^3.0.0</text>
<g class="badge incomingBadge">
  <path d="M 734.0,1278.0 L 746.0,1271.0 Q 749.0,1271.0 749.0,1274.0 L 749.0,1282.0 Q 749.0,1285.0 746.0,1285.0 Z" fill="#3b82f6"/>
  <text x="744.32" y="1279.0" text-anchor="middle" fill="white" font-size="8.0" font-weight="bold">1</text></g>
<rect x="460.0" y="1304.0" width="280.0" height="28.0" rx="8.0" ry="8.0" fill="#f8fafc" stroke="#64748b" stroke-width="1" stroke-dasharray="4,2"/>
<text x="468.0" y="1322.0" text-anchor="start" fill="#0f172a" font-size="12.0">source_span</text>
<text x="732.0" y="1322.0" text-anchor="end" fill="#334155" font-size="12.0">^1.10.2</text>
<g class="badge incomingBadge">
  <path d="M 466.0,1318.0 L 454.0,1311.0 Q 451.0,1311.0 451.0,1314.0 L 451.0,1322.0 Q 451.0,1325.0 454.0,1325.0 Z" fill="#3b82f6"/>
  <text x="455.68" y="1319.0" text-anchor="middle" fill="white" font-size="8.0" font-weight="bold">2</text></g>
<g class="badge incomingBadge">
  <path d="M 734.0,1318.0 L 746.0,1311.0 Q 749.0,1311.0 749.0,1314.0 L 749.0,1322.0 Q 749.0,1325.0 746.0,1325.0 Z" fill="#3b82f6"/>
  <text x="744.32" y="1319.0" text-anchor="middle" fill="white" font-size="8.0" font-weight="bold">1</text></g>
<rect x="460.0" y="1344.0" width="280.0" height="28.0" rx="8.0" ry="8.0" fill="#f8fafc" stroke="#64748b" stroke-width="1" stroke-dasharray="4,2"/>
<text x="468.0" y="1362.0" text-anchor="start" fill="#0f172a" font-size="12.0">stack_trace</text>
<text x="732.0" y="1362.0" text-anchor="end" fill="#334155" font-size="12.0">^1.12.1</text>
<g class="badge incomingBadge">
  <path d="M 734.0,1358.0 L 746.0,1351.0 Q 749.0,1351.0 749.0,1354.0 L 749.0,1362.0 Q 749.0,1365.0 746.0,1365.0 Z" fill="#3b82f6"/>
  <text x="744.32" y="1359.0" text-anchor="middle" fill="white" font-size="8.0" font-weight="bold">1</text></g>
<rect x="460.0" y="1384.0" width="280.0" height="28.0" rx="8.0" ry="8.0" fill="#f8fafc" stroke="#64748b" stroke-width="1" stroke-dasharray="4,2"/>
<text x="468.0" y="1402.0" text-anchor="start" fill="#0f172a" font-size="12.0">stream_channel</text>
<text x="732.0" y="1402.0" text-anchor="end" fill="#334155" font-size="12.0">^2.1.4</text>
<g class="badge incomingBadge">
  <path d="M 734.0,1398.0 L 746.0,1391.0 Q 749.0,1391.0 749.0,1394.0 L 749.0,1402.0 Q 749.0,1405.0 746.0,1405.0 Z" fill="#3b82f6"/>
  <text x="744.32" y="1399.0" text-anchor="middle" fill="white" font-size="8.0" font-weight="bold">1</text></g>
<rect x="460.0" y="1424.0" width="280.0" height="28.0" rx="8.0" ry="8.0" fill="#f8fafc" stroke="#64748b" stroke-width="1" stroke-dasharray="4,2"/>
<text x="468.0" y="1442.0" text-anchor="start" fill="#0f172a" font-size="12.0">string_scanner</text>
<text x="732.0" y="1442.0" text-anchor="end" fill="#334155" font-size="12.0">^1.4.1</text>
<g class="badge incomingBadge">
  <path d="M 466.0,1438.0 L 454.0,1431.0 Q 451.0,1431.0 451.0,1434.0 L 451.0,1442.0 Q 451.0,1445.0 454.0,1445.0 Z" fill="#3b82f6"/>
  <text x="455.68" y="1439.0" text-anchor="middle" fill="white" font-size="8.0" font-weight="bold">2</text></g>
<rect x="460.0" y="1464.0" width="280.0" height="28.0" rx="8.0" ry="8.0" fill="#f8fafc" stroke="#64748b" stroke-width="1" stroke-dasharray="4,2"/>
<text x="468.0" y="1482.0" text-anchor="start" fill="#0f172a" font-size="12.0">test_api</text>
<text x="732.0" y="1482.0" text-anchor="end" fill="#334155" font-size="12.0">^0.7.12</text>
<g class="badge incomingBadge">
  <path d="M 734.0,1478.0 L 746.0,1471.0 Q 749.0,1471.0 749.0,1474.0 L 749.0,1482.0 Q 749.0,1485.0 746.0,1485.0 Z" fill="#3b82f6"/>
  <text x="744.32" y="1479.0" text-anchor="middle" fill="white" font-size="8.0" font-weight="bold">1</text></g>
<rect x="460.0" y="1504.0" width="280.0" height="28.0" rx="8.0" ry="8.0" fill="#f8fafc" stroke="#64748b" stroke-width="1" stroke-dasharray="4,2"/>
<text x="468.0" y="1522.0" text-anchor="start" fill="#0f172a" font-size="12.0">test_core</text>
<text x="732.0" y="1522.0" text-anchor="end" fill="#334155" font-size="12.0">^0.6.18</text>
<g class="badge incomingBadge">
  <path d="M 734.0,1518.0 L 746.0,1511.0 Q 749.0,1511.0 749.0,1514.0 L 749.0,1522.0 Q 749.0,1525.0 746.0,1525.0 Z" fill="#3b82f6"/>
  <text x="744.32" y="1519.0" text-anchor="middle" fill="white" font-size="8.0" font-weight="bold">1</text></g>
<rect x="460.0" y="1544.0" width="280.0" height="28.0" rx="8.0" ry="8.0" fill="#f8fafc" stroke="#64748b" stroke-width="1" stroke-dasharray="4,2"/>
<text x="468.0" y="1562.0" text-anchor="start" fill="#0f172a" font-size="12.0">typed_data</text>
<text x="732.0" y="1562.0" text-anchor="end" fill="#334155" font-size="12.0">^1.4.0</text>
<g class="badge incomingBadge">
  <path d="M 734.0,1558.0 L 746.0,1551.0 Q 749.0,1551.0 749.0,1554.0 L 749.0,1562.0 Q 749.0,1565.0 746.0,1565.0 Z" fill="#3b82f6"/>
  <text x="744.32" y="1559.0" text-anchor="middle" fill="white" font-size="8.0" font-weight="bold">1</text></g>
<rect x="460.0" y="1584.0" width="280.0" height="28.0" rx="8.0" ry="8.0" fill="#f8fafc" stroke="#64748b" stroke-width="1" stroke-dasharray="4,2"/>
<text x="468.0" y="1602.0" text-anchor="start" fill="#0f172a" font-size="12.0">watcher</text>
<text x="732.0" y="1602.0" text-anchor="end" fill="#334155" font-size="12.0">^1.2.1</text>
<g class="badge incomingBadge">
  <path d="M 466.0,1598.0 L 454.0,1591.0 Q 451.0,1591.0 451.0,1594.0 L 451.0,1602.0 Q 451.0,1605.0 454.0,1605.0 Z" fill="#3b82f6"/>
  <text x="455.68" y="1599.0" text-anchor="middle" fill="white" font-size="8.0" font-weight="bold">1</text></g>
<rect x="460.0" y="1624.0" width="280.0" height="28.0" rx="8.0" ry="8.0" fill="#f8fafc" stroke="#64748b" stroke-width="1" stroke-dasharray="4,2"/>
<text x="468.0" y="1642.0" text-anchor="start" fill="#0f172a" font-size="12.0">web_socket_channel</text>
<text x="732.0" y="1642.0" text-anchor="end" fill="#334155" font-size="12.0">^3.0.3</text>
<g class="badge incomingBadge">
  <path d="M 734.0,1638.0 L 746.0,1631.0 Q 749.0,1631.0 749.0,1634.0 L 749.0,1642.0 Q 749.0,1645.0 746.0,1645.0 Z" fill="#3b82f6"/>
  <text x="744.32" y="1639.0" text-anchor="middle" fill="white" font-size="8.0" font-weight="bold">1</text></g>
<rect x="460.0" y="1664.0" width="280.0" height="28.0" rx="8.0" ry="8.0" fill="#f8fafc" stroke="#64748b" stroke-width="1" stroke-dasharray="4,2"/>
<text x="468.0" y="1682.0" text-anchor="start" fill="#0f172a" font-size="12.0">webkit_inspection_protocol</text>
<text x="732.0" y="1682.0" text-anchor="end" fill="#334155" font-size="12.0">^1.2.1</text>
<g class="badge incomingBadge">
  <path d="M 734.0,1678.0 L 746.0,1671.0 Q 749.0,1671.0 749.0,1674.0 L 749.0,1682.0 Q 749.0,1685.0 746.0,1685.0 Z" fill="#3b82f6"/>
  <text x="744.32" y="1679.0" text-anchor="middle" fill="white" font-size="8.0" font-weight="bold">1</text></g>
<rect x="460.0" y="1778.0" width="280.0" height="28.0" rx="8.0" ry="8.0" fill="#f8fafc" stroke="#64748b" stroke-width="1" stroke-dasharray="4,2"/>
<text x="468.0" y="1796.0" text-anchor="start" fill="#0f172a" font-size="12.0">cli_config</text>
<text x="732.0" y="1796.0" text-anchor="end" fill="#334155" font-size="12.0">^0.2.0</text>
<g class="badge incomingBadge">
  <path d="M 734.0,1792.0 L 746.0,1785.0 Q 749.0,1785.0 749.0,1788.0 L 749.0,1796.0 Q 749.0,1799.0 746.0,1799.0 Z" fill="#3b82f6"/>
  <text x="744.32" y="1793.0" text-anchor="middle" fill="white" font-size="8.0" font-weight="bold">1</text></g>
<rect x="460.0" y="1818.0" width="280.0" height="28.0" rx="8.0" ry="8.0" fill="#f8fafc" stroke="#64748b" stroke-width="1" stroke-dasharray="4,2"/>
<text x="468.0" y="1836.0" text-anchor="start" fill="#0f172a" font-size="12.0">frontend_server_client</text>
<text x="732.0" y="1836.0" text-anchor="end" fill="#334155" font-size="12.0">^4.0.0</text>
<g class="badge incomingBadge">
  <path d="M 734.0,1832.0 L 746.0,1825.0 Q 749.0,1825.0 749.0,1828.0 L 749.0,1836.0 Q 749.0,1839.0 746.0,1839.0 Z" fill="#3b82f6"/>
  <text x="744.32" y="1833.0" text-anchor="middle" fill="white" font-size="8.0" font-weight="bold">1</text></g>
<rect x="460.0" y="1858.0" width="280.0" height="28.0" rx="8.0" ry="8.0" fill="#f8fafc" stroke="#64748b" stroke-width="1" stroke-dasharray="4,2"/>
<text x="468.0" y="1876.0" text-anchor="start" fill="#0f172a" font-size="12.0">http_parser</text>
<text x="732.0" y="1876.0" text-anchor="end" fill="#334155" font-size="12.0">^4.1.2</text>
<g class="badge incomingBadge">
  <path d="M 734.0,1872.0 L 746.0,1865.0 Q 749.0,1865.0 749.0,1868.0 L 749.0,1876.0 Q 749.0,1879.0 746.0,1879.0 Z" fill="#3b82f6"/>
  <text x="744.32" y="1873.0" text-anchor="middle" fill="white" font-size="8.0" font-weight="bold">2</text></g>
<rect x="460.0" y="1898.0" width="280.0" height="28.0" rx="8.0" ry="8.0" fill="#f8fafc" stroke="#64748b" stroke-width="1" stroke-dasharray="4,2"/>
<text x="468.0" y="1916.0" text-anchor="start" fill="#0f172a" font-size="12.0">logging</text>
<text x="732.0" y="1916.0" text-anchor="end" fill="#334155" font-size="12.0">^1.3.0</text>
<g class="badge incomingBadge">
  <path d="M 734.0,1912.0 L 746.0,1905.0 Q 749.0,1905.0 749.0,1908.0 L 749.0,1916.0 Q 749.0,1919.0 746.0,1919.0 Z" fill="#3b82f6"/>
  <text x="744.32" y="1913.0" text-anchor="middle" fill="white" font-size="8.0" font-weight="bold">2</text></g>
<rect x="460.0" y="1938.0" width="280.0" height="28.0" rx="8.0" ry="8.0" fill="#f8fafc" stroke="#64748b" stroke-width="1" stroke-dasharray="4,2"/>
<text x="468.0" y="1956.0" text-anchor="start" fill="#0f172a" font-size="12.0">mime</text>
<text x="732.0" y="1956.0" text-anchor="end" fill="#334155" font-size="12.0">^2.0.0</text>
<g class="badge incomingBadge">
  <path d="M 734.0,1952.0 L 746.0,1945.0 Q 749.0,1945.0 749.0,1948.0 L 749.0,1956.0 Q 749.0,1959.0 746.0,1959.0 Z" fill="#3b82f6"/>
  <text x="744.32" y="1953.0" text-anchor="middle" fill="white" font-size="8.0" font-weight="bold">1</text></g>
<rect x="460.0" y="1978.0" width="280.0" height="28.0" rx="8.0" ry="8.0" fill="#f8fafc" stroke="#64748b" stroke-width="1" stroke-dasharray="4,2"/>
<text x="468.0" y="1996.0" text-anchor="start" fill="#0f172a" font-size="12.0">source_map_stack_trace</text>
<text x="732.0" y="1996.0" text-anchor="end" fill="#334155" font-size="12.0">^2.1.2</text>
<g class="badge incomingBadge">
  <path d="M 734.0,1992.0 L 746.0,1985.0 Q 749.0,1985.0 749.0,1988.0 L 749.0,1996.0 Q 749.0,1999.0 746.0,1999.0 Z" fill="#3b82f6"/>
  <text x="744.32" y="1993.0" text-anchor="middle" fill="white" font-size="8.0" font-weight="bold">1</text></g>
<rect x="460.0" y="2018.0" width="280.0" height="28.0" rx="8.0" ry="8.0" fill="#f8fafc" stroke="#64748b" stroke-width="1" stroke-dasharray="4,2"/>
<text x="468.0" y="2036.0" text-anchor="start" fill="#0f172a" font-size="12.0">source_maps</text>
<text x="732.0" y="2036.0" text-anchor="end" fill="#334155" font-size="12.0">^0.10.13</text>
<g class="badge incomingBadge">
  <path d="M 734.0,2032.0 L 746.0,2025.0 Q 749.0,2025.0 749.0,2028.0 L 749.0,2036.0 Q 749.0,2039.0 746.0,2039.0 Z" fill="#3b82f6"/>
  <text x="744.32" y="2033.0" text-anchor="middle" fill="white" font-size="8.0" font-weight="bold">2</text></g>
<rect x="460.0" y="2058.0" width="280.0" height="28.0" rx="8.0" ry="8.0" fill="#f8fafc" stroke="#64748b" stroke-width="1" stroke-dasharray="4,2"/>
<text x="468.0" y="2076.0" text-anchor="start" fill="#0f172a" font-size="12.0">term_glyph</text>
<text x="732.0" y="2076.0" text-anchor="end" fill="#334155" font-size="12.0">^1.2.2</text>
<g class="badge incomingBadge">
  <path d="M 734.0,2072.0 L 746.0,2065.0 Q 749.0,2065.0 749.0,2068.0 L 749.0,2076.0 Q 749.0,2079.0 746.0,2079.0 Z" fill="#3b82f6"/>
  <text x="744.32" y="2073.0" text-anchor="middle" fill="white" font-size="8.0" font-weight="bold">3</text></g>
<rect x="460.0" y="2098.0" width="280.0" height="28.0" rx="8.0" ry="8.0" fill="#f8fafc" stroke="#64748b" stroke-width="1" stroke-dasharray="4,2"/>
<text x="468.0" y="2116.0" text-anchor="start" fill="#0f172a" font-size="12.0">vm_service</text>
<text x="732.0" y="2116.0" text-anchor="end" fill="#334155" font-size="12.0">^15.2.0</text>
<g class="badge incomingBadge">
  <path d="M 734.0,2112.0 L 746.0,2105.0 Q 749.0,2105.0 749.0,2108.0 L 749.0,2116.0 Q 749.0,2119.0 746.0,2119.0 Z" fill="#3b82f6"/>
  <text x="744.32" y="2113.0" text-anchor="middle" fill="white" font-size="8.0" font-weight="bold">2</text></g>
<rect x="460.0" y="2138.0" width="280.0" height="28.0" rx="8.0" ry="8.0" fill="#f8fafc" stroke="#64748b" stroke-width="1" stroke-dasharray="4,2"/>
<text x="468.0" y="2156.0" text-anchor="start" fill="#0f172a" font-size="12.0">web</text>
<text x="732.0" y="2156.0" text-anchor="end" fill="#334155" font-size="12.0">^1.1.1</text>
<g class="badge incomingBadge">
  <path d="M 734.0,2152.0 L 746.0,2145.0 Q 749.0,2145.0 749.0,2148.0 L 749.0,2156.0 Q 749.0,2159.0 746.0,2159.0 Z" fill="#3b82f6"/>
  <text x="744.32" y="2153.0" text-anchor="middle" fill="white" font-size="8.0" font-weight="bold">1</text></g>
<rect x="460.0" y="2178.0" width="280.0" height="28.0" rx="8.0" ry="8.0" fill="#f8fafc" stroke="#64748b" stroke-width="1" stroke-dasharray="4,2"/>
<text x="468.0" y="2196.0" text-anchor="start" fill="#0f172a" font-size="12.0">web_socket</text>
<text x="732.0" y="2196.0" text-anchor="end" fill="#334155" font-size="12.0">^1.0.1</text>
<g class="badge incomingBadge">
  <path d="M 734.0,2192.0 L 746.0,2185.0 Q 749.0,2185.0 749.0,2188.0 L 749.0,2196.0 Q 749.0,2199.0 746.0,2199.0 Z" fill="#3b82f6"/>
  <text x="744.32" y="2193.0" text-anchor="middle" fill="white" font-size="8.0" font-weight="bold">1</text></g>
</svg>
