<?xml version="1.0" encoding="UTF-8"?>
<svg width="560.0" height="1486.0" viewBox="0 0 560.0 1486.0" xmlns="http://www.w3.org/2000/svg" font-family="Arial, Helvetica, sans-serif">
<defs>
  <filter id="hierarchicalShadow" x="-20%" y="-20%" width="140%" height="140%">
    <feGaussianBlur in="SourceAlpha" stdDeviation="5"/>
    <feOffset dx="2" dy="2" result="offsetblur"/>
    <feFlood flood-color="rgba(0,0,0,0.1)" flood-opacity="0.8"/>
    <feComposite in2="offsetblur" operator="in"/>
    <feMerge>
      <feMergeNode/>
      <feMergeNode in="SourceGraphic"/>
    </feMerge>
  </filter>
  <filter id="outlineWhite">
    <feMorphology in="SourceAlpha" result="DILATED" operator="dilate" radius="2"/>
    <feFlood flood-color="white" flood-opacity="0.7" result="WHITE"/>
    <feComposite in="WHITE" in2="DILATED" operator="in" result="OUTLINE"/>
    <feMerge>
      <feMergeNode in="OUTLINE"/>
      <feMergeNode in="SourceGraphic"/>
    </feMerge>
  </filter>
  <linearGradient id="hierarchicalEdgeGradient" x1="0%" y1="0%" x2="100%" y2="100%">
    <stop offset="0%" stop-color="#6c757d" stop-opacity="0.4"/>
    <stop offset="100%" stop-color="#495057" stop-opacity="0.4"/>
  </linearGradient>
  <linearGradient id="edgeGradient" x1="0%" y1="0%" x2="100%" y2="0%">
    <stop offset="0%" stop-color="blue" stop-opacity="0.3"/>
    <stop offset="100%" stop-color="green" stop-opacity="0.3"/>
  </linearGradient>
</defs>
<style>
  .hierarchicalBackground { fill: #ffffff; stroke: #dee2e6; stroke-width: 2; rx: 12; ry: 12; filter: url(#hierarchicalShadow); }
  .hierarchicalBackground:hover { stroke: #007bff; stroke-width: 3; }
  .hierarchicalTitle { fill: #495057; font-size: 16px; font-weight: bold; text-anchor: middle; filter: url(#outlineWhite); }
  .hierarchicalMetric { fill: #6c757d; font-size: 12px; font-weight: normal; text-anchor: middle; }
  .hierarchicalItem { fill: #212529; font-size: 12px; font-weight: normal; cursor: pointer; filter: url(#outlineWhite); }
  .hierarchicalItem:hover { fill: #007bff; font-weight: bold; }
  .hierarchicalEdge { fill: none; stroke: url(#hierarchicalEdgeGradient); stroke-width: 3; }
  .hierarchicalEdge:hover {stroke-width: 8; opacity: 1.0; }
  .hierarchicalBadge { font-size: 10px; font-weight: bold; fill: white; text-anchor: middle; dominant-baseline: middle; }
  .hierarchicalBadge:hover { opacity: 0.8; }
  .fileEdge { fill: none; stroke: url(#edgeGradient); stroke-width: 1; }
  .fileEdge:hover { stroke: #007bff; stroke-width: 3; opacity: 1.0; }
</style>
<rect width="100%" height="100%" fill="#f8f9fa"/>
<path d="M 75.0 772.0 C 84.0 772.0, 67.0 772.0, 76.0 772.0" class="hierarchicalEdge"/>
<title>. → .. (parent-child)</title>
<path d="M 109.0 782.0 C 118.0 782.0, 101.0 782.0, 110.0 782.0" class="hierarchicalEdge"/>
<title>.. → lib (parent-child)</title>
<path d="M 143.0 811.0 C 152.0 811.0, 135.0 811.0, 144.0 811.0" class="hierarchicalEdge"/>
<title>lib → src (parent-child)</title>
<path d="M 177.0 529.0 C 186.0 529.0, 169.0 529.0, 178.0 529.0" class="hierarchicalEdge"/>
<title>src → generators (parent-child)</title>
<path d="M 177.0 718.0 C 186.0 718.0, 169.0 718.0, 178.0 718.0" class="hierarchicalEdge"/>
<title>src → metrics (parent-child)</title>
<path d="M 177.0 879.0 C 186.0 879.0, 169.0 879.0, 178.0 879.0" class="hierarchicalEdge"/>
<title>src → hardcoded_strings (parent-child)</title>
<path d="M 177.0 1057.0 C 186.0 1057.0, 169.0 1057.0, 178.0 1057.0" class="hierarchicalEdge"/>
<title>src → sort (parent-child)</title>
<path d="M 177.0 1235.0 C 186.0 1235.0, 169.0 1235.0, 178.0 1235.0" class="hierarchicalEdge"/>
<title>src → layers (parent-child)</title>
<rect x="50.0" y="50.0" width="460.0" height="1386.0" rx="12" ry="12" class="hierarchicalBackground"/>
<text x="280.0" y="75.0" class="hierarchicalTitle">.</text>
<g class="hierarchicalBadge">
<circle cx="510.0" cy="1436.0" r="10.0" fill="#28a745" opacity="0.85"/>
<text x="510.0" y="1438.0">5</text>
</g>
<rect x="84.0" y="140.0" width="410.0" height="1264.0" rx="12" ry="12" class="hierarchicalBackground"/>
<text x="289.0" y="165.0" class="hierarchicalTitle">  ..</text>
<rect x="118.0" y="192.0" width="360.0" height="1180.0" rx="12" ry="12" class="hierarchicalBackground"/>
<text x="298.0" y="217.0" class="hierarchicalTitle">    lib</text>
<g class="hierarchicalBadge">
<circle cx="118.0" cy="192.0" r="10.0" fill="#007bff" opacity="0.85"/>
<text x="118.0" y="194.0">1</text>
</g>
<g class="hierarchicalBadge">
<circle cx="478.0" cy="1372.0" r="10.0" fill="#28a745" opacity="0.85"/>
<text x="478.0" y="1374.0">7</text>
</g>
<rect x="152.0" y="282.0" width="310.0" height="1058.0" rx="12" ry="12" class="hierarchicalBackground"/>
<text x="307.0" y="307.0" class="hierarchicalTitle">      src</text>
<g class="hierarchicalBadge">
<circle cx="152.0" cy="282.0" r="10.0" fill="#007bff" opacity="0.85"/>
<text x="152.0" y="284.0">7</text>
</g>
<g class="hierarchicalBadge">
<circle cx="462.0" cy="1340.0" r="10.0" fill="#28a745" opacity="0.85"/>
<text x="462.0" y="1342.0">6</text>
</g>
<rect x="186.0" y="428.0" width="260.0" height="202.0" rx="12" ry="12" class="hierarchicalBackground"/>
<text x="316.0" y="453.0" class="hierarchicalTitle">        generators</text>
<g class="hierarchicalBadge">
<circle cx="186.0" cy="428.0" r="10.0" fill="#007bff" opacity="0.85"/>
<text x="186.0" y="430.0">4</text>
</g>
<g class="hierarchicalBadge">
<circle cx="446.0" cy="630.0" r="10.0" fill="#28a745" opacity="0.85"/>
<text x="446.0" y="632.0">5</text>
</g>
<rect x="186.0" y="648.0" width="260.0" height="140.0" rx="12" ry="12" class="hierarchicalBackground"/>
<text x="316.0" y="673.0" class="hierarchicalTitle">        metrics</text>
<g class="hierarchicalBadge">
<circle cx="186.0" cy="648.0" r="10.0" fill="#007bff" opacity="0.85"/>
<text x="186.0" y="650.0">3</text>
</g>
<g class="hierarchicalBadge">
<circle cx="446.0" cy="788.0" r="10.0" fill="#28a745" opacity="0.85"/>
<text x="446.0" y="790.0">3</text>
</g>
<rect x="186.0" y="806.0" width="260.0" height="146.0" rx="12" ry="12" class="hierarchicalBackground"/>
<text x="316.0" y="831.0" class="hierarchicalTitle">        hardcoded_strings</text>
<g class="hierarchicalBadge">
<circle cx="186.0" cy="806.0" r="10.0" fill="#007bff" opacity="0.85"/>
<text x="186.0" y="808.0">5</text>
</g>
<g class="hierarchicalBadge">
<circle cx="446.0" cy="952.0" r="10.0" fill="#28a745" opacity="0.85"/>
<text x="446.0" y="954.0">1</text>
</g>
<rect x="186.0" y="970.0" width="260.0" height="174.0" rx="12" ry="12" class="hierarchicalBackground"/>
<text x="316.0" y="995.0" class="hierarchicalTitle">        sort</text>
<g class="hierarchicalBadge">
<circle cx="186.0" cy="970.0" r="10.0" fill="#007bff" opacity="0.85"/>
<text x="186.0" y="972.0">3</text>
</g>
<g class="hierarchicalBadge">
<circle cx="446.0" cy="1144.0" r="10.0" fill="#28a745" opacity="0.85"/>
<text x="446.0" y="1146.0">3</text>
</g>
<rect x="186.0" y="1162.0" width="260.0" height="146.0" rx="12" ry="12" class="hierarchicalBackground"/>
<text x="316.0" y="1187.0" class="hierarchicalTitle">        layers</text>
<g class="hierarchicalBadge">
<circle cx="186.0" cy="1162.0" r="10.0" fill="#007bff" opacity="0.85"/>
<text x="186.0" y="1164.0">8</text>
</g>
<g class="hierarchicalBadge">
<circle cx="446.0" cy="1308.0" r="10.0" fill="#28a745" opacity="0.85"/>
<text x="446.0" y="1310.0">1</text>
</g>
<path d="M 490.0 98.0 H 308.0 Q 314.0 98.0 314.0 104.0 V 234.0 Q 314.0 240.0 320.0 240.0 H 138.0" class="fileEdge"/>
<title>fcheck.dart → ../lib/fcheck.dart</title>
<path d="M 490.0 98.0 H 342.0 Q 348.0 98.0 348.0 104.0 V 498.0 Q 348.0 504.0 354.0 504.0 H 206.0" class="fileEdge"/>
<title>fcheck.dart → ../lib/src/generators/mermaid_generator.dart</title>
<path d="M 490.0 98.0 H 342.0 Q 348.0 98.0 348.0 104.0 V 554.0 Q 348.0 560.0 354.0 560.0 H 206.0" class="fileEdge"/>
<title>fcheck.dart → ../lib/src/generators/svg_generator.dart</title>
<path d="M 490.0 98.0 H 342.0 Q 348.0 98.0 348.0 104.0 V 526.0 Q 348.0 532.0 354.0 532.0 H 206.0" class="fileEdge"/>
<title>fcheck.dart → ../lib/src/generators/plantuml_generator.dart</title>
<path d="M 490.0 98.0 H 342.0 Q 348.0 98.0 348.0 104.0 V 470.0 Q 348.0 476.0 354.0 476.0 H 206.0" class="fileEdge"/>
<title>fcheck.dart → ../lib/src/generators/folder_svg_hierarchical.dart</title>
<path d="M 458.0 240.0 H 326.0 Q 332.0 240.0 332.0 246.0 V 718.0 Q 332.0 724.0 338.0 724.0 H 206.0" class="fileEdge"/>
<title>../lib/fcheck.dart → ../lib/src/metrics/project_metrics.dart</title>
<path d="M 458.0 240.0 H 309.0 Q 315.0 240.0 315.0 246.0 V 380.0 Q 315.0 386.0 321.0 386.0 H 172.0" class="fileEdge"/>
<title>../lib/fcheck.dart → ../lib/src/analyzer_engine.dart</title>
<path d="M 458.0 240.0 H 309.0 Q 315.0 240.0 315.0 246.0 V 324.0 Q 315.0 330.0 321.0 330.0 H 172.0" class="fileEdge"/>
<title>../lib/fcheck.dart → ../lib/src/utils.dart</title>
<path d="M 458.0 240.0 H 326.0 Q 332.0 240.0 332.0 246.0 V 848.0 Q 332.0 854.0 338.0 854.0 H 206.0" class="fileEdge"/>
<title>../lib/fcheck.dart → ../lib/src/hardcoded_strings/hardcoded_string_issue.dart</title>
<path d="M 458.0 240.0 H 326.0 Q 332.0 240.0 332.0 246.0 V 876.0 Q 332.0 882.0 338.0 882.0 H 206.0" class="fileEdge"/>
<title>../lib/fcheck.dart → ../lib/src/hardcoded_strings/hardcoded_string_analyzer.dart</title>
<path d="M 458.0 240.0 H 326.0 Q 332.0 240.0 332.0 246.0 V 904.0 Q 332.0 910.0 338.0 910.0 H 206.0" class="fileEdge"/>
<title>../lib/fcheck.dart → ../lib/src/hardcoded_strings/hardcoded_string_visitor.dart</title>
<path d="M 458.0 240.0 H 326.0 Q 332.0 240.0 332.0 246.0 V 1012.0 Q 332.0 1018.0 338.0 1018.0 H 206.0" class="fileEdge"/>
<title>../lib/fcheck.dart → ../lib/src/sort/sort.dart</title>
<path d="M 426.0 724.0 H 310.0 Q 316.0 724.0 316.0 730.0 V 848.0 Q 316.0 854.0 322.0 854.0 H 206.0" class="fileEdge"/>
<title>../lib/src/metrics/project_metrics.dart → ../lib/src/hardcoded_strings/hardcoded_string_issue.dart</title>
<path d="M 426.0 724.0 H 310.0 Q 316.0 724.0 316.0 730.0 V 1204.0 Q 316.0 1210.0 322.0 1210.0 H 206.0" class="fileEdge"/>
<title>../lib/src/metrics/project_metrics.dart → ../lib/src/layers/layers_issue.dart</title>
<path d="M 426.0 724.0 H 310.0 Q 316.0 724.0 316.0 718.0 V 702.0 Q 316.0 696.0 322.0 696.0 H 206.0" class="fileEdge"/>
<title>../lib/src/metrics/project_metrics.dart → ../lib/src/metrics/file_metrics.dart</title>
<path d="M 426.0 724.0 H 310.0 Q 316.0 724.0 316.0 730.0 V 1012.0 Q 316.0 1018.0 322.0 1018.0 H 206.0" class="fileEdge"/>
<title>../lib/src/metrics/project_metrics.dart → ../lib/src/sort/sort.dart</title>
<path d="M 426.0 910.0 H 310.0 Q 316.0 910.0 316.0 904.0 V 860.0 Q 316.0 854.0 322.0 854.0 H 206.0" class="fileEdge"/>
<title>../lib/src/hardcoded_strings/hardcoded_string_visitor.dart → ../lib/src/hardcoded_strings/hardcoded_string_issue.dart</title>
<path d="M 426.0 882.0 H 310.0 Q 316.0 882.0 316.0 876.0 V 860.0 Q 316.0 854.0 322.0 854.0 H 206.0" class="fileEdge"/>
<title>../lib/src/hardcoded_strings/hardcoded_string_analyzer.dart → ../lib/src/hardcoded_strings/hardcoded_string_issue.dart</title>
<path d="M 426.0 882.0 H 310.0 Q 316.0 882.0 316.0 888.0 V 904.0 Q 316.0 910.0 322.0 910.0 H 206.0" class="fileEdge"/>
<title>../lib/src/hardcoded_strings/hardcoded_string_analyzer.dart → ../lib/src/hardcoded_strings/hardcoded_string_visitor.dart</title>
<path d="M 426.0 882.0 H 293.0 Q 299.0 882.0 299.0 876.0 V 336.0 Q 299.0 330.0 305.0 330.0 H 172.0" class="fileEdge"/>
<title>../lib/src/hardcoded_strings/hardcoded_string_analyzer.dart → ../lib/src/utils.dart</title>
<path d="M 426.0 1238.0 H 310.0 Q 316.0 1238.0 316.0 1232.0 V 1216.0 Q 316.0 1210.0 322.0 1210.0 H 206.0" class="fileEdge"/>
<title>../lib/src/layers/layers_analyzer.dart → ../lib/src/layers/layers_issue.dart</title>
<path d="M 426.0 1238.0 H 310.0 Q 316.0 1238.0 316.0 1244.0 V 1260.0 Q 316.0 1266.0 322.0 1266.0 H 206.0" class="fileEdge"/>
<title>../lib/src/layers/layers_analyzer.dart → ../lib/src/layers/layers_visitor.dart</title>
<path d="M 426.0 1238.0 H 293.0 Q 299.0 1238.0 299.0 1232.0 V 336.0 Q 299.0 330.0 305.0 330.0 H 172.0" class="fileEdge"/>
<title>../lib/src/layers/layers_analyzer.dart → ../lib/src/utils.dart</title>
<path d="M 426.0 1018.0 H 293.0 Q 299.0 1018.0 299.0 1012.0 V 364.0 Q 299.0 358.0 305.0 358.0 H 172.0" class="fileEdge"/>
<title>../lib/src/sort/sort.dart → ../lib/src/class_visitor.dart</title>
<path d="M 426.0 1018.0 H 310.0 Q 316.0 1018.0 316.0 1024.0 V 1068.0 Q 316.0 1074.0 322.0 1074.0 H 206.0" class="fileEdge"/>
<title>../lib/src/sort/sort.dart → ../lib/src/sort/sort_members.dart</title>
<path d="M 426.0 1018.0 H 310.0 Q 316.0 1018.0 316.0 1024.0 V 1096.0 Q 316.0 1102.0 322.0 1102.0 H 206.0" class="fileEdge"/>
<title>../lib/src/sort/sort.dart → ../lib/src/sort/sort_analyzer.dart</title>
<path d="M 426.0 1018.0 H 310.0 Q 316.0 1018.0 316.0 1024.0 V 1040.0 Q 316.0 1046.0 322.0 1046.0 H 206.0" class="fileEdge"/>
<title>../lib/src/sort/sort.dart → ../lib/src/sort/sort_issue.dart</title>
<path d="M 426.0 1102.0 H 293.0 Q 299.0 1102.0 299.0 1096.0 V 364.0 Q 299.0 358.0 305.0 358.0 H 172.0" class="fileEdge"/>
<title>../lib/src/sort/sort_analyzer.dart → ../lib/src/class_visitor.dart</title>
<path d="M 426.0 1102.0 H 310.0 Q 316.0 1102.0 316.0 1096.0 V 1080.0 Q 316.0 1074.0 322.0 1074.0 H 206.0" class="fileEdge"/>
<title>../lib/src/sort/sort_analyzer.dart → ../lib/src/sort/sort_members.dart</title>
<path d="M 426.0 1102.0 H 310.0 Q 316.0 1102.0 316.0 1096.0 V 1052.0 Q 316.0 1046.0 322.0 1046.0 H 206.0" class="fileEdge"/>
<title>../lib/src/sort/sort_analyzer.dart → ../lib/src/sort/sort_issue.dart</title>
<path d="M 426.0 1102.0 H 293.0 Q 299.0 1102.0 299.0 1096.0 V 336.0 Q 299.0 330.0 305.0 330.0 H 172.0" class="fileEdge"/>
<title>../lib/src/sort/sort_analyzer.dart → ../lib/src/utils.dart</title>
<path d="M 442.0 386.0 H 318.0 Q 324.0 386.0 324.0 392.0 V 690.0 Q 324.0 696.0 330.0 696.0 H 206.0" class="fileEdge"/>
<title>../lib/src/analyzer_engine.dart → ../lib/src/metrics/file_metrics.dart</title>
<path d="M 442.0 386.0 H 318.0 Q 324.0 386.0 324.0 392.0 V 876.0 Q 324.0 882.0 330.0 882.0 H 206.0" class="fileEdge"/>
<title>../lib/src/analyzer_engine.dart → ../lib/src/hardcoded_strings/hardcoded_string_analyzer.dart</title>
<path d="M 442.0 386.0 H 318.0 Q 324.0 386.0 324.0 392.0 V 1232.0 Q 324.0 1238.0 330.0 1238.0 H 206.0" class="fileEdge"/>
<title>../lib/src/analyzer_engine.dart → ../lib/src/layers/layers_analyzer.dart</title>
<path d="M 442.0 386.0 H 318.0 Q 324.0 386.0 324.0 392.0 V 1204.0 Q 324.0 1210.0 330.0 1210.0 H 206.0" class="fileEdge"/>
<title>../lib/src/analyzer_engine.dart → ../lib/src/layers/layers_issue.dart</title>
<path d="M 442.0 386.0 H 318.0 Q 324.0 386.0 324.0 392.0 V 1012.0 Q 324.0 1018.0 330.0 1018.0 H 206.0" class="fileEdge"/>
<title>../lib/src/analyzer_engine.dart → ../lib/src/sort/sort.dart</title>
<path d="M 442.0 386.0 H 318.0 Q 324.0 386.0 324.0 392.0 V 718.0 Q 324.0 724.0 330.0 724.0 H 206.0" class="fileEdge"/>
<title>../lib/src/analyzer_engine.dart → ../lib/src/metrics/project_metrics.dart</title>
<path d="M 442.0 386.0 H 301.0 Q 307.0 386.0 307.0 380.0 V 336.0 Q 307.0 330.0 313.0 330.0 H 172.0" class="fileEdge"/>
<title>../lib/src/analyzer_engine.dart → ../lib/src/utils.dart</title>
<path d="M 426.0 560.0 H 310.0 Q 316.0 560.0 316.0 566.0 V 1204.0 Q 316.0 1210.0 322.0 1210.0 H 206.0" class="fileEdge"/>
<title>../lib/src/generators/svg_generator.dart → ../lib/src/layers/layers_issue.dart</title>
<path d="M 426.0 476.0 H 310.0 Q 316.0 476.0 316.0 482.0 V 1204.0 Q 316.0 1210.0 322.0 1210.0 H 206.0" class="fileEdge"/>
<title>../lib/src/generators/folder_svg_hierarchical.dart → ../lib/src/layers/layers_issue.dart</title>
<path d="M 426.0 532.0 H 310.0 Q 316.0 532.0 316.0 538.0 V 1204.0 Q 316.0 1210.0 322.0 1210.0 H 206.0" class="fileEdge"/>
<title>../lib/src/generators/plantuml_generator.dart → ../lib/src/layers/layers_issue.dart</title>
<path d="M 426.0 504.0 H 310.0 Q 316.0 504.0 316.0 510.0 V 1204.0 Q 316.0 1210.0 322.0 1210.0 H 206.0" class="fileEdge"/>
<title>../lib/src/generators/mermaid_generator.dart → ../lib/src/layers/layers_issue.dart</title>
<path d="M 426.0 588.0 H 310.0 Q 316.0 588.0 316.0 594.0 V 1204.0 Q 316.0 1210.0 322.0 1210.0 H 206.0" class="fileEdge"/>
<title>../lib/src/generators/folder_svg_generator.dart → ../lib/src/layers/layers_issue.dart</title>
<g class="hierarchicalBadge">
<circle cx="206.0" cy="476.0" r="8.0" fill="#007bff" opacity="0.85"/>
<text x="206.0" y="478.0">1</text>
</g>
<g class="hierarchicalBadge">
<circle cx="426.0" cy="476.0" r="8.0" fill="#28a745" opacity="0.85"/>
<text x="426.0" y="478.0">1</text>
</g>
<text x="220.0" y="480.0" class="hierarchicalItem">folder_svg_hierarchical.dart</text>
<g class="hierarchicalBadge">
<circle cx="206.0" cy="504.0" r="8.0" fill="#007bff" opacity="0.85"/>
<text x="206.0" y="506.0">1</text>
</g>
<g class="hierarchicalBadge">
<circle cx="426.0" cy="504.0" r="8.0" fill="#28a745" opacity="0.85"/>
<text x="426.0" y="506.0">1</text>
</g>
<text x="220.0" y="508.0" class="hierarchicalItem">mermaid_generator.dart</text>
<g class="hierarchicalBadge">
<circle cx="206.0" cy="532.0" r="8.0" fill="#007bff" opacity="0.85"/>
<text x="206.0" y="534.0">1</text>
</g>
<g class="hierarchicalBadge">
<circle cx="426.0" cy="532.0" r="8.0" fill="#28a745" opacity="0.85"/>
<text x="426.0" y="534.0">1</text>
</g>
<text x="220.0" y="536.0" class="hierarchicalItem">plantuml_generator.dart</text>
<g class="hierarchicalBadge">
<circle cx="206.0" cy="560.0" r="8.0" fill="#007bff" opacity="0.85"/>
<text x="206.0" y="562.0">1</text>
</g>
<g class="hierarchicalBadge">
<circle cx="426.0" cy="560.0" r="8.0" fill="#28a745" opacity="0.85"/>
<text x="426.0" y="562.0">1</text>
</g>
<text x="220.0" y="564.0" class="hierarchicalItem">svg_generator.dart</text>
<g class="hierarchicalBadge">
<circle cx="426.0" cy="588.0" r="8.0" fill="#28a745" opacity="0.85"/>
<text x="426.0" y="590.0">1</text>
</g>
<text x="220.0" y="592.0" class="hierarchicalItem">folder_svg_generator.dart</text>
<g class="hierarchicalBadge">
<circle cx="206.0" cy="696.0" r="8.0" fill="#007bff" opacity="0.85"/>
<text x="206.0" y="698.0">2</text>
</g>
<text x="220.0" y="700.0" class="hierarchicalItem">file_metrics.dart</text>
<g class="hierarchicalBadge">
<circle cx="206.0" cy="724.0" r="8.0" fill="#007bff" opacity="0.85"/>
<text x="206.0" y="726.0">2</text>
</g>
<g class="hierarchicalBadge">
<circle cx="426.0" cy="724.0" r="8.0" fill="#28a745" opacity="0.85"/>
<text x="426.0" y="726.0">4</text>
</g>
<text x="220.0" y="728.0" class="hierarchicalItem">project_metrics.dart</text>
<g class="hierarchicalBadge">
<circle cx="206.0" cy="854.0" r="8.0" fill="#007bff" opacity="0.85"/>
<text x="206.0" y="856.0">4</text>
</g>
<text x="220.0" y="858.0" class="hierarchicalItem">hardcoded_string_issue.dart</text>
<g class="hierarchicalBadge">
<circle cx="206.0" cy="882.0" r="8.0" fill="#007bff" opacity="0.85"/>
<text x="206.0" y="884.0">2</text>
</g>
<g class="hierarchicalBadge">
<circle cx="426.0" cy="882.0" r="8.0" fill="#28a745" opacity="0.85"/>
<text x="426.0" y="884.0">3</text>
</g>
<text x="220.0" y="886.0" class="hierarchicalItem">hardcoded_string_analyzer.dart</text>
<g class="hierarchicalBadge">
<circle cx="206.0" cy="910.0" r="8.0" fill="#007bff" opacity="0.85"/>
<text x="206.0" y="912.0">2</text>
</g>
<g class="hierarchicalBadge">
<circle cx="426.0" cy="910.0" r="8.0" fill="#28a745" opacity="0.85"/>
<text x="426.0" y="912.0">1</text>
</g>
<text x="220.0" y="914.0" class="hierarchicalItem">hardcoded_string_visitor.dart</text>
<g class="hierarchicalBadge">
<circle cx="206.0" cy="1018.0" r="8.0" fill="#007bff" opacity="0.85"/>
<text x="206.0" y="1020.0">3</text>
</g>
<g class="hierarchicalBadge">
<circle cx="426.0" cy="1018.0" r="8.0" fill="#28a745" opacity="0.85"/>
<text x="426.0" y="1020.0">4</text>
</g>
<text x="220.0" y="1022.0" class="hierarchicalItem">sort.dart</text>
<g class="hierarchicalBadge">
<circle cx="206.0" cy="1046.0" r="8.0" fill="#007bff" opacity="0.85"/>
<text x="206.0" y="1048.0">2</text>
</g>
<text x="220.0" y="1050.0" class="hierarchicalItem">sort_issue.dart</text>
<g class="hierarchicalBadge">
<circle cx="206.0" cy="1074.0" r="8.0" fill="#007bff" opacity="0.85"/>
<text x="206.0" y="1076.0">2</text>
</g>
<text x="220.0" y="1078.0" class="hierarchicalItem">sort_members.dart</text>
<g class="hierarchicalBadge">
<circle cx="206.0" cy="1102.0" r="8.0" fill="#007bff" opacity="0.85"/>
<text x="206.0" y="1104.0">1</text>
</g>
<g class="hierarchicalBadge">
<circle cx="426.0" cy="1102.0" r="8.0" fill="#28a745" opacity="0.85"/>
<text x="426.0" y="1104.0">4</text>
</g>
<text x="220.0" y="1106.0" class="hierarchicalItem">sort_analyzer.dart</text>
<g class="hierarchicalBadge">
<circle cx="206.0" cy="1210.0" r="8.0" fill="#007bff" opacity="0.85"/>
<text x="206.0" y="1212.0">8</text>
</g>
<text x="220.0" y="1214.0" class="hierarchicalItem">layers_issue.dart</text>
<g class="hierarchicalBadge">
<circle cx="206.0" cy="1238.0" r="8.0" fill="#007bff" opacity="0.85"/>
<text x="206.0" y="1240.0">1</text>
</g>
<g class="hierarchicalBadge">
<circle cx="426.0" cy="1238.0" r="8.0" fill="#28a745" opacity="0.85"/>
<text x="426.0" y="1240.0">3</text>
</g>
<text x="220.0" y="1242.0" class="hierarchicalItem">layers_analyzer.dart</text>
<g class="hierarchicalBadge">
<circle cx="206.0" cy="1266.0" r="8.0" fill="#007bff" opacity="0.85"/>
<text x="206.0" y="1268.0">1</text>
</g>
<text x="220.0" y="1270.0" class="hierarchicalItem">layers_visitor.dart</text>
<g class="hierarchicalBadge">
<circle cx="172.0" cy="330.0" r="8.0" fill="#007bff" opacity="0.85"/>
<text x="172.0" y="332.0">5</text>
</g>
<text x="186.0" y="334.0" class="hierarchicalItem">utils.dart</text>
<g class="hierarchicalBadge">
<circle cx="172.0" cy="358.0" r="8.0" fill="#007bff" opacity="0.85"/>
<text x="172.0" y="360.0">2</text>
</g>
<text x="186.0" y="362.0" class="hierarchicalItem">class_visitor.dart</text>
<g class="hierarchicalBadge">
<circle cx="172.0" cy="386.0" r="8.0" fill="#007bff" opacity="0.85"/>
<text x="172.0" y="388.0">1</text>
</g>
<g class="hierarchicalBadge">
<circle cx="442.0" cy="386.0" r="8.0" fill="#28a745" opacity="0.85"/>
<text x="442.0" y="388.0">7</text>
</g>
<text x="186.0" y="390.0" class="hierarchicalItem">analyzer_engine.dart</text>
<g class="hierarchicalBadge">
<circle cx="138.0" cy="240.0" r="8.0" fill="#007bff" opacity="0.85"/>
<text x="138.0" y="242.0">1</text>
</g>
<g class="hierarchicalBadge">
<circle cx="458.0" cy="240.0" r="8.0" fill="#28a745" opacity="0.85"/>
<text x="458.0" y="242.0">7</text>
</g>
<text x="152.0" y="244.0" class="hierarchicalItem">fcheck.dart</text>
<g class="hierarchicalBadge">
<circle cx="490.0" cy="98.0" r="8.0" fill="#28a745" opacity="0.85"/>
<text x="490.0" y="100.0">5</text>
</g>
<text x="84.0" y="102.0" class="hierarchicalItem">fcheck.dart</text>
</svg>
