<?xml version="1.0" encoding="UTF-8"?>
<svg width="1920" height="750" viewBox="0 0 1920 750" xmlns="http://www.w3.org/2000/svg" font-family="Arial, Helvetica, sans-serif">
<defs>
  <filter id="whiteShadow" x="-20%" y="-20%" width="140%" height="140%">
    <feGaussianBlur in="SourceAlpha" stdDeviation="3"/>
    <feOffset dx="0" dy="0" result="offsetblur"/>
    <feFlood flood-color="white" flood-opacity="1"/>
    <feComposite in2="offsetblur" operator="in"/>
    <feMerge>
      <feMergeNode/>
      <feMergeNode in="SourceGraphic"/>
    </feMerge>
  </filter>
  <filter id="hierarchicalShadow" x="-20%" y="-20%" width="140%" height="140%">
    <feGaussianBlur in="SourceAlpha" stdDeviation="5"/>
    <feOffset dx="2" dy="2" result="offsetblur"/>
    <feFlood flood-color="rgba(0,0,0,0.1)" flood-opacity="0.8"/>
    <feComposite in2="offsetblur" operator="in"/>
    <feMerge>
      <feMergeNode/>
      <feMergeNode in="SourceGraphic"/>
    </feMerge>
  </filter>
  <filter id="outlineWhite">
    <feMorphology in="SourceAlpha" result="DILATED" operator="dilate" radius="2"/>
    <feFlood flood-color="white" flood-opacity="0.5" result="WHITE"/>
    <feComposite in="WHITE" in2="DILATED" operator="in" result="OUTLINE"/>
    <feMerge>
      <feMergeNode in="OUTLINE"/>
      <feMergeNode in="SourceGraphic"/>
    </feMerge>
  </filter>
  <linearGradient id="horizontalGradient" x1="0%" y1="0%" x2="100%" y2="0%">
    <stop offset="0%" stop-color="#28a745"/>
    <stop offset="100%" stop-color="#007bff"/>
  </linearGradient>
  <linearGradient id="verticalGradient" x1="0%" y1="0%" x2="0%" y2="100%">
    <stop offset="0%" stop-color="#28a745"/>
    <stop offset="100%" stop-color="#007bff"/>
  </linearGradient>
</defs>
<style>  
  .layerBackground { 
    fill: rgba(52, 58, 64, 0.08);     
  }

  .layerBackground:hover { 
    fill: PaleGoldenRod ;
    transition: all 0.1s ease-in-out; 
  }

  .layerBackgroundVirtualFolder { 
    fill: rgba(52, 58, 64, 0.05); 
    stroke: gray; 
    stroke-width: 1; 
    stroke-dasharray: 4,4; 
  }

  .layerBackgroundVirtualFolder:hover { 
    fill: PaleGoldenRod ;
    stroke: gray; 
    stroke-width: 0; 
    stroke-dasharray: 4,4;
    transition: all 0.1s ease-in-out; 
  }
  
  .layerTitle { 
    fill: black; 
    font-size: 16px; 
    font-weight: bold; 
    text-anchor: middle; 
    filter: url(#outlineWhite); 
  }
  
  /* File node styles */
  .fileNode { 
    fill: white; 
    stroke: gray; 
    stroke-width: 0.5; 
    rx: 6; 
    ry: 6;    
  }
  
  .fileNode:hover {     
    fill: PaleGoldenRod;
    transition: all 0.1s ease-in-out; 
  }

  .nodeText { 
    fill: #212529; 
    font-size: 14px; 
    font-weight: 900; 
    text-anchor: middle; 
    dominant-baseline: middle; 
    filter: url(#outlineWhite); 
  }

  /* Unified edge styles */
  .edge { 
    fill: none; 
    stroke: url(#horizontalGradient); 
    stroke-width: 1; 
    opacity: 0.5;
    transition: all 0.1s ease-in-out; 
  }


  .edge:hover { 
    stroke: url(#horizontalGradient); 
    stroke-width: 3; 
    opacity: 1.0; 
  }
  
  .edgeVertical { 
    fill: none; 
    stroke: url(#verticalGradient); 
    stroke-width: 1; 
    opacity: 0.5; 
    transition: all 0.1s ease-in-out; 
  }
  
  .edgeVertical:hover { 
    stroke: url(#verticalGradient); 
    stroke-width: 3; 
    opacity: 1.0; 
  }
  
  /* Special edge styles */
  .cycleEdge { 
    fill: none; 
    stroke: red; 
    stroke-width: 5; 
    opacity: 0.9; 
  }
  
  .warningEdge { 
    fill: none; 
    stroke: orange; 
    stroke-width: 3; 
    opacity: 0.9; 
    transition: all 0.1s ease-in-out; 
  }
  
  .warningEdge:hover { 
    fill: none; 
    stroke: orange; 
    stroke-width: 5; 
    opacity: 1.0; 
  }
  
  /* Unified badge styles with '?' cursor */
  .badge { 
    font-size: 10px; 
    font-weight: bold; 
    fill: white; 
    text-anchor: middle; 
    dominant-baseline: middle; 
    cursor: help; 
    transition: all 0.1s ease-in-out; 
  }
  
  .badge:hover { 
    opacity: 0.8; 
  }
  
  /* Special styles */
  .folderTitleLayer { 
    pointer-events: none; 
    isolation: isolate; 
  }
</style>
<rect width="100%" height="100%" fill="white"/>
<rect x="25.0" y="50" width="270.0" height="650.0" rx="8.0" class="layerBackground"/>
<text x="160.0" y="75.0" class="layerTitle">1</text>
<rect x="345.0" y="50" width="270.0" height="650.0" rx="8.0" class="layerBackground"/>
<text x="480.0" y="75.0" class="layerTitle">2</text>
<rect x="665.0" y="50" width="270.0" height="650.0" rx="8.0" class="layerBackground"/>
<text x="800.0" y="75.0" class="layerTitle">3</text>
<rect x="985.0" y="50" width="270.0" height="650.0" rx="8.0" class="layerBackground"/>
<text x="1120.0" y="75.0" class="layerTitle">4</text>
<rect x="1305.0" y="50" width="270.0" height="650.0" rx="8.0" class="layerBackground"/>
<text x="1440.0" y="75.0" class="layerTitle">5</text>
<rect x="1625.0" y="50" width="270.0" height="650.0" rx="8.0" class="layerBackground"/>
<text x="1760.0" y="75.0" class="layerTitle">6</text>
<rect x="50.0" y="90.0" width="220" height="50" class="fileNode"/>
<rect x="370.0" y="90.0" width="220" height="50" class="fileNode"/>
<rect x="370.0" y="160.0" width="220" height="50" class="fileNode"/>
<rect x="370.0" y="230.0" width="220" height="50" class="fileNode"/>
<rect x="370.0" y="300.0" width="220" height="50" class="fileNode"/>
<rect x="370.0" y="370.0" width="220" height="50" class="fileNode"/>
<rect x="370.0" y="440.0" width="220" height="50" class="fileNode"/>
<rect x="690.0" y="90.0" width="220" height="50" class="fileNode"/>
<rect x="690.0" y="160.0" width="220" height="50" class="fileNode"/>
<rect x="690.0" y="230.0" width="220" height="50" class="fileNode"/>
<rect x="690.0" y="300.0" width="220" height="50" class="fileNode"/>
<rect x="690.0" y="370.0" width="220" height="50" class="fileNode"/>
<rect x="690.0" y="440.0" width="220" height="50" class="fileNode"/>
<rect x="690.0" y="510.0" width="220" height="50" class="fileNode"/>
<rect x="690.0" y="580.0" width="220" height="50" class="fileNode"/>
<rect x="690.0" y="650.0" width="220" height="50" class="fileNode"/>
<rect x="1010.0" y="90.0" width="220" height="50" class="fileNode"/>
<rect x="1010.0" y="160.0" width="220" height="50" class="fileNode"/>
<rect x="1010.0" y="230.0" width="220" height="50" class="fileNode"/>
<rect x="1010.0" y="300.0" width="220" height="50" class="fileNode"/>
<rect x="1010.0" y="370.0" width="220" height="50" class="fileNode"/>
<rect x="1010.0" y="440.0" width="220" height="50" class="fileNode"/>
<rect x="1010.0" y="510.0" width="220" height="50" class="fileNode"/>
<rect x="1010.0" y="580.0" width="220" height="50" class="fileNode"/>
<rect x="1330.0" y="90.0" width="220" height="50" class="fileNode"/>
<rect x="1330.0" y="160.0" width="220" height="50" class="fileNode"/>
<rect x="1330.0" y="230.0" width="220" height="50" class="fileNode"/>
<rect x="1330.0" y="300.0" width="220" height="50" class="fileNode"/>
<rect x="1330.0" y="370.0" width="220" height="50" class="fileNode"/>
<rect x="1650.0" y="90.0" width="220" height="50" class="fileNode"/>
<rect x="1650.0" y="160.0" width="220" height="50" class="fileNode"/>
<rect x="1650.0" y="230.0" width="220" height="50" class="fileNode"/>
<rect x="1650.0" y="300.0" width="220" height="50" class="fileNode"/>
<g>
  <path d="M 270.0 128.0 C 320.0 128.0, 326.0 312.0, 376.0 312.0" class="edge"/>
  <title>./bin/fcheck.dart ▶ ./lib/src/graphs/export_mermaid.dart</title>
</g>
<g>
  <path d="M 270.0 128.0 C 320.0 128.0, 326.0 382.0, 376.0 382.0" class="edge"/>
  <title>./bin/fcheck.dart ▶ ./lib/src/graphs/export_plantuml.dart</title>
</g>
<g>
  <path d="M 270.0 128.0 C 320.0 128.0, 326.0 242.0, 376.0 242.0" class="edge"/>
  <title>./bin/fcheck.dart ▶ ./lib/src/graphs/export_svg.dart</title>
</g>
<g>
  <path d="M 270.0 128.0 C 320.0 128.0, 326.0 172.0, 376.0 172.0" class="edge"/>
  <title>./bin/fcheck.dart ▶ ./lib/src/graphs/export_svg_folders.dart</title>
</g>
<g>
  <path d="M 270.0 128.0 C 320.0 128.0, 326.0 102.0, 376.0 102.0" class="edge"/>
  <title>./bin/fcheck.dart ▶ ./lib/fcheck.dart</title>
</g>
<g>
  <path d="M 270.0 128.0 C 320.0 128.0, 326.0 452.0, 376.0 452.0" class="edge"/>
  <title>./bin/fcheck.dart ▶ ./lib/src/models/version.dart</title>
</g>
<g>
  <path d="M 590.0 128.0 C 640.0 128.0, 966.0 102.0, 1016.0 102.0" class="edge"/>
  <title>./lib/fcheck.dart ▶ ./lib/src/layers/layers_results.dart</title>
</g>
<g>
  <path d="M 590.0 128.0 C 640.0 128.0, 966.0 312.0, 1016.0 312.0" class="edge"/>
  <title>./lib/fcheck.dart ▶ ./lib/src/metrics/file_metrics.dart</title>
</g>
<g>
  <path d="M 590.0 128.0 C 640.0 128.0, 646.0 592.0, 696.0 592.0" class="edge"/>
  <title>./lib/fcheck.dart ▶ ./lib/src/secrets/secret_analyzer.dart</title>
</g>
<g>
  <path d="M 590.0 128.0 C 640.0 128.0, 646.0 452.0, 696.0 452.0" class="edge"/>
  <title>./lib/fcheck.dart ▶ ./lib/src/hardcoded_strings/hardcoded_string_analyzer.dart</title>
</g>
<g>
  <path d="M 590.0 128.0 C 640.0 128.0, 646.0 382.0, 696.0 382.0" class="edge"/>
  <title>./lib/fcheck.dart ▶ ./lib/src/layers/layers_analyzer.dart</title>
</g>
<g>
  <path d="M 590.0 128.0 C 640.0 128.0, 646.0 522.0, 696.0 522.0" class="edge"/>
  <title>./lib/fcheck.dart ▶ ./lib/src/magic_numbers/magic_number_analyzer.dart</title>
</g>
<g>
  <path d="M 590.0 128.0 C 640.0 128.0, 966.0 242.0, 1016.0 242.0" class="edge"/>
  <title>./lib/fcheck.dart ▶ ./lib/src/sort/sort.dart</title>
</g>
<g>
  <path d="M 590.0 128.0 C 640.0 128.0, 646.0 312.0, 696.0 312.0" class="edge"/>
  <title>./lib/fcheck.dart ▶ ./lib/src/metrics/project_metrics.dart</title>
</g>
<g>
  <path d="M 590.0 128.0 C 640.0 128.0, 1606.0 102.0, 1656.0 102.0" class="edge"/>
  <title>./lib/fcheck.dart ▶ ./lib/src/models/file_utils.dart</title>
</g>
<g>
  <path d="M 590.0 128.0 C 640.0 128.0, 1286.0 102.0, 1336.0 102.0" class="edge"/>
  <title>./lib/fcheck.dart ▶ ./lib/src/config/config_ignore_directives.dart</title>
</g>
<g>
  <path d="M 910.0 338.0 C 960.0 338.0, 1286.0 172.0, 1336.0 172.0" class="edge"/>
  <title>./lib/src/metrics/project_metrics.dart ▶ ./lib/src/hardcoded_strings/hardcoded_string_issue.dart</title>
</g>
<g>
  <path d="M 910.0 338.0 C 960.0 338.0, 1286.0 242.0, 1336.0 242.0" class="edge"/>
  <title>./lib/src/metrics/project_metrics.dart ▶ ./lib/src/layers/layers_issue.dart</title>
</g>
<g>
  <path d="M 910.0 338.0 C 960.0 338.0, 966.0 312.0, 1016.0 312.0" class="edge"/>
  <title>./lib/src/metrics/project_metrics.dart ▶ ./lib/src/metrics/file_metrics.dart</title>
</g>
<g>
  <path d="M 910.0 338.0 C 960.0 338.0, 966.0 382.0, 1016.0 382.0" class="edge"/>
  <title>./lib/src/metrics/project_metrics.dart ▶ ./lib/src/secrets/secret_issue.dart</title>
</g>
<g>
  <path d="M 910.0 338.0 C 960.0 338.0, 1286.0 312.0, 1336.0 312.0" class="edge"/>
  <title>./lib/src/metrics/project_metrics.dart ▶ ./lib/src/magic_numbers/magic_number_issue.dart</title>
</g>
<g>
  <path d="M 910.0 338.0 C 960.0 338.0, 966.0 242.0, 1016.0 242.0" class="edge"/>
  <title>./lib/src/metrics/project_metrics.dart ▶ ./lib/src/sort/sort.dart</title>
</g>
<g>
  <path d="M 1230.0 478.0 C 1280.0 478.0, 1286.0 172.0, 1336.0 172.0" class="edge"/>
  <title>./lib/src/hardcoded_strings/hardcoded_string_visitor.dart ▶ ./lib/src/hardcoded_strings/hardcoded_string_issue.dart</title>
</g>
<g>
  <path d="M 1230.0 478.0 C 1280.0 478.0, 1286.0 102.0, 1336.0 102.0" class="edge"/>
  <title>./lib/src/hardcoded_strings/hardcoded_string_visitor.dart ▶ ./lib/src/config/config_ignore_directives.dart</title>
</g>
<g>
  <path d="M 910.0 478.0 C 960.0 478.0, 1606.0 102.0, 1656.0 102.0" class="edge"/>
  <title>./lib/src/hardcoded_strings/hardcoded_string_analyzer.dart ▶ ./lib/src/models/file_utils.dart</title>
</g>
<g>
  <path d="M 910.0 478.0 C 960.0 478.0, 1286.0 102.0, 1336.0 102.0" class="edge"/>
  <title>./lib/src/hardcoded_strings/hardcoded_string_analyzer.dart ▶ ./lib/src/config/config_ignore_directives.dart</title>
</g>
<g>
  <path d="M 910.0 478.0 C 960.0 478.0, 1286.0 172.0, 1336.0 172.0" class="edge"/>
  <title>./lib/src/hardcoded_strings/hardcoded_string_analyzer.dart ▶ ./lib/src/hardcoded_strings/hardcoded_string_issue.dart</title>
</g>
<g>
  <path d="M 910.0 478.0 C 960.0 478.0, 966.0 452.0, 1016.0 452.0" class="edge"/>
  <title>./lib/src/hardcoded_strings/hardcoded_string_analyzer.dart ▶ ./lib/src/hardcoded_strings/hardcoded_string_visitor.dart</title>
</g>
<g>
  <path d="M 1230.0 128.0 C 1280.0 128.0, 1286.0 242.0, 1336.0 242.0" class="edge"/>
  <title>./lib/src/layers/layers_results.dart ▶ ./lib/src/layers/layers_issue.dart</title>
</g>
<g>
  <path d="M 910.0 408.0 C 960.0 408.0, 966.0 102.0, 1016.0 102.0" class="edge"/>
  <title>./lib/src/layers/layers_analyzer.dart ▶ ./lib/src/layers/layers_results.dart</title>
</g>
<g>
  <path d="M 910.0 408.0 C 960.0 408.0, 1606.0 102.0, 1656.0 102.0" class="edge"/>
  <title>./lib/src/layers/layers_analyzer.dart ▶ ./lib/src/models/file_utils.dart</title>
</g>
<g>
  <path d="M 910.0 408.0 C 960.0 408.0, 1286.0 242.0, 1336.0 242.0" class="edge"/>
  <title>./lib/src/layers/layers_analyzer.dart ▶ ./lib/src/layers/layers_issue.dart</title>
</g>
<g>
  <path d="M 910.0 408.0 C 960.0 408.0, 966.0 592.0, 1016.0 592.0" class="edge"/>
  <title>./lib/src/layers/layers_analyzer.dart ▶ ./lib/src/layers/layers_visitor.dart</title>
</g>
<g>
  <path d="M 910.0 408.0 C 960.0 408.0, 1286.0 102.0, 1336.0 102.0" class="edge"/>
  <title>./lib/src/layers/layers_analyzer.dart ▶ ./lib/src/config/config_ignore_directives.dart</title>
</g>
<g>
  <path d="M 1230.0 268.0 C 1280.0 268.0, 1606.0 172.0, 1656.0 172.0" class="edge"/>
  <title>./lib/src/sort/sort.dart ▶ ./lib/src/models/class_visitor.dart</title>
</g>
<g>
  <path d="M 1230.0 268.0 C 1280.0 268.0, 1606.0 312.0, 1656.0 312.0" class="edge"/>
  <title>./lib/src/sort/sort.dart ▶ ./lib/src/sort/sort_members.dart</title>
</g>
<g>
  <path d="M 1230.0 268.0 C 1280.0 268.0, 1286.0 382.0, 1336.0 382.0" class="edge"/>
  <title>./lib/src/sort/sort.dart ▶ ./lib/src/sort/sort_analyzer.dart</title>
</g>
<g>
  <path d="M 1230.0 268.0 C 1280.0 268.0, 1606.0 242.0, 1656.0 242.0" class="edge"/>
  <title>./lib/src/sort/sort.dart ▶ ./lib/src/sort/sort_issue.dart</title>
</g>
<g>
  <path d="M 1550.0 408.0 C 1600.0 408.0, 1606.0 172.0, 1656.0 172.0" class="edge"/>
  <title>./lib/src/sort/sort_analyzer.dart ▶ ./lib/src/models/class_visitor.dart</title>
</g>
<g>
  <path d="M 1550.0 408.0 C 1600.0 408.0, 1606.0 312.0, 1656.0 312.0" class="edge"/>
  <title>./lib/src/sort/sort_analyzer.dart ▶ ./lib/src/sort/sort_members.dart</title>
</g>
<g>
  <path d="M 1550.0 408.0 C 1600.0 408.0, 1606.0 242.0, 1656.0 242.0" class="edge"/>
  <title>./lib/src/sort/sort_analyzer.dart ▶ ./lib/src/sort/sort_issue.dart</title>
</g>
<g>
  <path d="M 1550.0 408.0 C 1600.0 408.0, 1606.0 102.0, 1656.0 102.0" class="edge"/>
  <title>./lib/src/sort/sort_analyzer.dart ▶ ./lib/src/models/file_utils.dart</title>
</g>
<g>
  <path d="M 910.0 618.0 C 960.0 618.0, 966.0 382.0, 1016.0 382.0" class="edge"/>
  <title>./lib/src/secrets/secret_analyzer.dart ▶ ./lib/src/secrets/secret_issue.dart</title>
</g>
<g>
  <path d="M 1230.0 548.0 C 1280.0 548.0, 1286.0 312.0, 1336.0 312.0" class="edge"/>
  <title>./lib/src/magic_numbers/magic_number_visitor.dart ▶ ./lib/src/magic_numbers/magic_number_issue.dart</title>
</g>
<g>
  <path d="M 1230.0 548.0 C 1280.0 548.0, 1286.0 102.0, 1336.0 102.0" class="edge"/>
  <title>./lib/src/magic_numbers/magic_number_visitor.dart ▶ ./lib/src/config/config_ignore_directives.dart</title>
</g>
<g>
  <path d="M 910.0 548.0 C 960.0 548.0, 1286.0 312.0, 1336.0 312.0" class="edge"/>
  <title>./lib/src/magic_numbers/magic_number_analyzer.dart ▶ ./lib/src/magic_numbers/magic_number_issue.dart</title>
</g>
<g>
  <path d="M 910.0 548.0 C 960.0 548.0, 966.0 522.0, 1016.0 522.0" class="edge"/>
  <title>./lib/src/magic_numbers/magic_number_analyzer.dart ▶ ./lib/src/magic_numbers/magic_number_visitor.dart</title>
</g>
<g>
  <path d="M 910.0 548.0 C 960.0 548.0, 1606.0 102.0, 1656.0 102.0" class="edge"/>
  <title>./lib/src/magic_numbers/magic_number_analyzer.dart ▶ ./lib/src/models/file_utils.dart</title>
</g>
<g>
  <path d="M 910.0 548.0 C 960.0 548.0, 1286.0 102.0, 1336.0 102.0" class="edge"/>
  <title>./lib/src/magic_numbers/magic_number_analyzer.dart ▶ ./lib/src/config/config_ignore_directives.dart</title>
</g>
<g>
  <path d="M 910.0 128.0 C 960.0 128.0, 966.0 102.0, 1016.0 102.0" class="edge"/>
  <title>./lib/src/graphs/graph_format_utils.dart ▶ ./lib/src/layers/layers_results.dart</title>
</g>
<g>
  <path d="M 910.0 198.0 C 960.0 198.0, 966.0 172.0, 1016.0 172.0" class="edge"/>
  <title>./lib/src/graphs/svg_common.dart ▶ ./lib/src/graphs/badge_model.dart</title>
</g>
<g>
  <path d="M 590.0 408.0 C 640.0 408.0, 646.0 102.0, 696.0 102.0" class="edge"/>
  <title>./lib/src/graphs/export_plantuml.dart ▶ ./lib/src/graphs/graph_format_utils.dart</title>
</g>
<g>
  <path d="M 590.0 408.0 C 640.0 408.0, 966.0 102.0, 1016.0 102.0" class="edge"/>
  <title>./lib/src/graphs/export_plantuml.dart ▶ ./lib/src/layers/layers_results.dart</title>
</g>
<g>
  <path d="M 590.0 198.0 C 640.0 198.0, 966.0 102.0, 1016.0 102.0" class="edge"/>
  <title>./lib/src/graphs/export_svg_folders.dart ▶ ./lib/src/layers/layers_results.dart</title>
</g>
<g>
  <path d="M 590.0 198.0 C 640.0 198.0, 646.0 662.0, 696.0 662.0" class="edge"/>
  <title>./lib/src/graphs/export_svg_folders.dart ▶ ./lib/src/models/rect.dart</title>
</g>
<g>
  <path d="M 590.0 198.0 C 640.0 198.0, 646.0 172.0, 696.0 172.0" class="edge"/>
  <title>./lib/src/graphs/export_svg_folders.dart ▶ ./lib/src/graphs/svg_common.dart</title>
</g>
<g>
  <path d="M 590.0 198.0 C 640.0 198.0, 646.0 242.0, 696.0 242.0" class="edge"/>
  <title>./lib/src/graphs/export_svg_folders.dart ▶ ./lib/src/graphs/svg_styles.dart</title>
</g>
<g>
  <path d="M 590.0 198.0 C 640.0 198.0, 966.0 172.0, 1016.0 172.0" class="edge"/>
  <title>./lib/src/graphs/export_svg_folders.dart ▶ ./lib/src/graphs/badge_model.dart</title>
</g>
<g>
  <path d="M 590.0 268.0 C 640.0 268.0, 966.0 102.0, 1016.0 102.0" class="edge"/>
  <title>./lib/src/graphs/export_svg.dart ▶ ./lib/src/layers/layers_results.dart</title>
</g>
<g>
  <path d="M 590.0 268.0 C 640.0 268.0, 646.0 172.0, 696.0 172.0" class="edge"/>
  <title>./lib/src/graphs/export_svg.dart ▶ ./lib/src/graphs/svg_common.dart</title>
</g>
<g>
  <path d="M 590.0 268.0 C 640.0 268.0, 646.0 242.0, 696.0 242.0" class="edge"/>
  <title>./lib/src/graphs/export_svg.dart ▶ ./lib/src/graphs/svg_styles.dart</title>
</g>
<g>
  <path d="M 590.0 268.0 C 640.0 268.0, 966.0 172.0, 1016.0 172.0" class="edge"/>
  <title>./lib/src/graphs/export_svg.dart ▶ ./lib/src/graphs/badge_model.dart</title>
</g>
<g>
  <path d="M 590.0 338.0 C 640.0 338.0, 646.0 102.0, 696.0 102.0" class="edge"/>
  <title>./lib/src/graphs/export_mermaid.dart ▶ ./lib/src/graphs/graph_format_utils.dart</title>
</g>
<g>
  <path d="M 590.0 338.0 C 640.0 338.0, 966.0 102.0, 1016.0 102.0" class="edge"/>
  <title>./lib/src/graphs/export_mermaid.dart ▶ ./lib/src/layers/layers_results.dart</title>
</g>
<g class="outgoingBadge">
  <path d="M 276.0,128.0 L 264.0,121.0 Q 261.0,121.0 261.0,124.0 L 261.0,132.0 Q 261.0,135.0 264.0,135.0 Z" fill="#10b981"/>
  <text x="265.0" y="131.0" text-anchor="middle" fill="white" font-size="8.0" font-weight="bold">6</text><title>1. export_mermaid.dart
2. export_plantuml.dart
3. export_svg.dart
4. export_svg_folders.dart
5. fcheck.dart
6. version.dart</title></g><text x="160.0" y="115.0" class="nodeText">fcheck.dart</text>
<g class="incomingBadge">
  <path d="M 382.0,102.0 L 370.0,95.0 Q 367.0,95.0 367.0,98.0 L 367.0,106.0 Q 367.0,109.0 370.0,109.0 Z" fill="#3b82f6"/>
  <text x="371.0" y="105.0" text-anchor="middle" fill="white" font-size="8.0" font-weight="bold">1</text><title>1. fcheck.dart</title></g><g class="outgoingBadge">
  <path d="M 596.0,128.0 L 584.0,121.0 Q 581.0,121.0 581.0,124.0 L 581.0,132.0 Q 581.0,135.0 584.0,135.0 Z" fill="#10b981"/>
  <text x="585.0" y="131.0" text-anchor="middle" fill="white" font-size="8.0" font-weight="bold">10</text><title>1. config_ignore_directives.dart
2. file_metrics.dart
3. file_utils.dart
4. hardcoded_string_analyzer.dart
5. layers_analyzer.dart
6. layers_results.dart
7. magic_number_analyzer.dart
8. project_metrics.dart
9. secret_analyzer.dart
10. sort.dart</title></g><text x="480.0" y="115.0" class="nodeText">fcheck.dart</text>
<g class="incomingBadge">
  <path d="M 382.0,172.0 L 370.0,165.0 Q 367.0,165.0 367.0,168.0 L 367.0,176.0 Q 367.0,179.0 370.0,179.0 Z" fill="#3b82f6"/>
  <text x="371.0" y="175.0" text-anchor="middle" fill="white" font-size="8.0" font-weight="bold">1</text><title>1. fcheck.dart</title></g><g class="outgoingBadge">
  <path d="M 596.0,198.0 L 584.0,191.0 Q 581.0,191.0 581.0,194.0 L 581.0,202.0 Q 581.0,205.0 584.0,205.0 Z" fill="#10b981"/>
  <text x="585.0" y="201.0" text-anchor="middle" fill="white" font-size="8.0" font-weight="bold">5</text><title>1. badge_model.dart
2. layers_results.dart
3. rect.dart
4. svg_common.dart
5. svg_styles.dart</title></g><text x="480.0" y="185.0" class="nodeText">export_svg_folders.dart</text>
<g class="incomingBadge">
  <path d="M 382.0,242.0 L 370.0,235.0 Q 367.0,235.0 367.0,238.0 L 367.0,246.0 Q 367.0,249.0 370.0,249.0 Z" fill="#3b82f6"/>
  <text x="371.0" y="245.0" text-anchor="middle" fill="white" font-size="8.0" font-weight="bold">1</text><title>1. fcheck.dart</title></g><g class="outgoingBadge">
  <path d="M 596.0,268.0 L 584.0,261.0 Q 581.0,261.0 581.0,264.0 L 581.0,272.0 Q 581.0,275.0 584.0,275.0 Z" fill="#10b981"/>
  <text x="585.0" y="271.0" text-anchor="middle" fill="white" font-size="8.0" font-weight="bold">4</text><title>1. badge_model.dart
2. layers_results.dart
3. svg_common.dart
4. svg_styles.dart</title></g><text x="480.0" y="255.0" class="nodeText">export_svg.dart</text>
<g class="incomingBadge">
  <path d="M 382.0,312.0 L 370.0,305.0 Q 367.0,305.0 367.0,308.0 L 367.0,316.0 Q 367.0,319.0 370.0,319.0 Z" fill="#3b82f6"/>
  <text x="371.0" y="315.0" text-anchor="middle" fill="white" font-size="8.0" font-weight="bold">1</text><title>1. fcheck.dart</title></g><g class="outgoingBadge">
  <path d="M 596.0,338.0 L 584.0,331.0 Q 581.0,331.0 581.0,334.0 L 581.0,342.0 Q 581.0,345.0 584.0,345.0 Z" fill="#10b981"/>
  <text x="585.0" y="341.0" text-anchor="middle" fill="white" font-size="8.0" font-weight="bold">2</text><title>1. graph_format_utils.dart
2. layers_results.dart</title></g><text x="480.0" y="325.0" class="nodeText">export_mermaid.dart</text>
<g class="incomingBadge">
  <path d="M 382.0,382.0 L 370.0,375.0 Q 367.0,375.0 367.0,378.0 L 367.0,386.0 Q 367.0,389.0 370.0,389.0 Z" fill="#3b82f6"/>
  <text x="371.0" y="385.0" text-anchor="middle" fill="white" font-size="8.0" font-weight="bold">1</text><title>1. fcheck.dart</title></g><g class="outgoingBadge">
  <path d="M 596.0,408.0 L 584.0,401.0 Q 581.0,401.0 581.0,404.0 L 581.0,412.0 Q 581.0,415.0 584.0,415.0 Z" fill="#10b981"/>
  <text x="585.0" y="411.0" text-anchor="middle" fill="white" font-size="8.0" font-weight="bold">2</text><title>1. graph_format_utils.dart
2. layers_results.dart</title></g><text x="480.0" y="395.0" class="nodeText">export_plantuml.dart</text>
<g class="incomingBadge">
  <path d="M 382.0,452.0 L 370.0,445.0 Q 367.0,445.0 367.0,448.0 L 367.0,456.0 Q 367.0,459.0 370.0,459.0 Z" fill="#3b82f6"/>
  <text x="371.0" y="455.0" text-anchor="middle" fill="white" font-size="8.0" font-weight="bold">1</text><title>1. fcheck.dart</title></g><text x="480.0" y="465.0" class="nodeText">version.dart</text>
<g class="incomingBadge">
  <path d="M 702.0,102.0 L 690.0,95.0 Q 687.0,95.0 687.0,98.0 L 687.0,106.0 Q 687.0,109.0 690.0,109.0 Z" fill="#3b82f6"/>
  <text x="691.0" y="105.0" text-anchor="middle" fill="white" font-size="8.0" font-weight="bold">2</text><title>1. export_mermaid.dart
2. export_plantuml.dart</title></g><g class="outgoingBadge">
  <path d="M 916.0,128.0 L 904.0,121.0 Q 901.0,121.0 901.0,124.0 L 901.0,132.0 Q 901.0,135.0 904.0,135.0 Z" fill="#10b981"/>
  <text x="905.0" y="131.0" text-anchor="middle" fill="white" font-size="8.0" font-weight="bold">1</text><title>1. layers_results.dart</title></g><text x="800.0" y="115.0" class="nodeText">graph_format_utils.dart</text>
<g class="incomingBadge">
  <path d="M 702.0,172.0 L 690.0,165.0 Q 687.0,165.0 687.0,168.0 L 687.0,176.0 Q 687.0,179.0 690.0,179.0 Z" fill="#3b82f6"/>
  <text x="691.0" y="175.0" text-anchor="middle" fill="white" font-size="8.0" font-weight="bold">2</text><title>1. export_svg.dart
2. export_svg_folders.dart</title></g><g class="outgoingBadge">
  <path d="M 916.0,198.0 L 904.0,191.0 Q 901.0,191.0 901.0,194.0 L 901.0,202.0 Q 901.0,205.0 904.0,205.0 Z" fill="#10b981"/>
  <text x="905.0" y="201.0" text-anchor="middle" fill="white" font-size="8.0" font-weight="bold">1</text><title>1. badge_model.dart</title></g><text x="800.0" y="185.0" class="nodeText">svg_common.dart</text>
<g class="incomingBadge">
  <path d="M 702.0,242.0 L 690.0,235.0 Q 687.0,235.0 687.0,238.0 L 687.0,246.0 Q 687.0,249.0 690.0,249.0 Z" fill="#3b82f6"/>
  <text x="691.0" y="245.0" text-anchor="middle" fill="white" font-size="8.0" font-weight="bold">2</text><title>1. export_svg.dart
2. export_svg_folders.dart</title></g><text x="800.0" y="255.0" class="nodeText">svg_styles.dart</text>
<g class="incomingBadge">
  <path d="M 702.0,312.0 L 690.0,305.0 Q 687.0,305.0 687.0,308.0 L 687.0,316.0 Q 687.0,319.0 690.0,319.0 Z" fill="#3b82f6"/>
  <text x="691.0" y="315.0" text-anchor="middle" fill="white" font-size="8.0" font-weight="bold">1</text><title>1. fcheck.dart</title></g><g class="outgoingBadge">
  <path d="M 916.0,338.0 L 904.0,331.0 Q 901.0,331.0 901.0,334.0 L 901.0,342.0 Q 901.0,345.0 904.0,345.0 Z" fill="#10b981"/>
  <text x="905.0" y="341.0" text-anchor="middle" fill="white" font-size="8.0" font-weight="bold">6</text><title>1. file_metrics.dart
2. hardcoded_string_issue.dart
3. layers_issue.dart
4. magic_number_issue.dart
5. secret_issue.dart
6. sort.dart</title></g><text x="800.0" y="325.0" class="nodeText">project_metrics.dart</text>
<g class="incomingBadge">
  <path d="M 702.0,382.0 L 690.0,375.0 Q 687.0,375.0 687.0,378.0 L 687.0,386.0 Q 687.0,389.0 690.0,389.0 Z" fill="#3b82f6"/>
  <text x="691.0" y="385.0" text-anchor="middle" fill="white" font-size="8.0" font-weight="bold">1</text><title>1. fcheck.dart</title></g><g class="outgoingBadge">
  <path d="M 916.0,408.0 L 904.0,401.0 Q 901.0,401.0 901.0,404.0 L 901.0,412.0 Q 901.0,415.0 904.0,415.0 Z" fill="#10b981"/>
  <text x="905.0" y="411.0" text-anchor="middle" fill="white" font-size="8.0" font-weight="bold">5</text><title>1. config_ignore_directives.dart
2. file_utils.dart
3. layers_issue.dart
4. layers_results.dart
5. layers_visitor.dart</title></g><text x="800.0" y="395.0" class="nodeText">layers_analyzer.dart</text>
<g class="incomingBadge">
  <path d="M 702.0,452.0 L 690.0,445.0 Q 687.0,445.0 687.0,448.0 L 687.0,456.0 Q 687.0,459.0 690.0,459.0 Z" fill="#3b82f6"/>
  <text x="691.0" y="455.0" text-anchor="middle" fill="white" font-size="8.0" font-weight="bold">1</text><title>1. fcheck.dart</title></g><g class="outgoingBadge">
  <path d="M 916.0,478.0 L 904.0,471.0 Q 901.0,471.0 901.0,474.0 L 901.0,482.0 Q 901.0,485.0 904.0,485.0 Z" fill="#10b981"/>
  <text x="905.0" y="481.0" text-anchor="middle" fill="white" font-size="8.0" font-weight="bold">4</text><title>1. config_ignore_directives.dart
2. file_utils.dart
3. hardcoded_string_issue.dart
4. hardcoded_string_visitor.dart</title></g><text x="800.0" y="465.0" class="nodeText">hardcoded_string_analy...</text>
<g class="incomingBadge">
  <path d="M 702.0,522.0 L 690.0,515.0 Q 687.0,515.0 687.0,518.0 L 687.0,526.0 Q 687.0,529.0 690.0,529.0 Z" fill="#3b82f6"/>
  <text x="691.0" y="525.0" text-anchor="middle" fill="white" font-size="8.0" font-weight="bold">1</text><title>1. fcheck.dart</title></g><g class="outgoingBadge">
  <path d="M 916.0,548.0 L 904.0,541.0 Q 901.0,541.0 901.0,544.0 L 901.0,552.0 Q 901.0,555.0 904.0,555.0 Z" fill="#10b981"/>
  <text x="905.0" y="551.0" text-anchor="middle" fill="white" font-size="8.0" font-weight="bold">4</text><title>1. config_ignore_directives.dart
2. file_utils.dart
3. magic_number_issue.dart
4. magic_number_visitor.dart</title></g><text x="800.0" y="535.0" class="nodeText">magic_number_analyzer....</text>
<g class="incomingBadge">
  <path d="M 702.0,592.0 L 690.0,585.0 Q 687.0,585.0 687.0,588.0 L 687.0,596.0 Q 687.0,599.0 690.0,599.0 Z" fill="#3b82f6"/>
  <text x="691.0" y="595.0" text-anchor="middle" fill="white" font-size="8.0" font-weight="bold">1</text><title>1. fcheck.dart</title></g><g class="outgoingBadge">
  <path d="M 916.0,618.0 L 904.0,611.0 Q 901.0,611.0 901.0,614.0 L 901.0,622.0 Q 901.0,625.0 904.0,625.0 Z" fill="#10b981"/>
  <text x="905.0" y="621.0" text-anchor="middle" fill="white" font-size="8.0" font-weight="bold">1</text><title>1. secret_issue.dart</title></g><text x="800.0" y="605.0" class="nodeText">secret_analyzer.dart</text>
<g class="incomingBadge">
  <path d="M 702.0,662.0 L 690.0,655.0 Q 687.0,655.0 687.0,658.0 L 687.0,666.0 Q 687.0,669.0 690.0,669.0 Z" fill="#3b82f6"/>
  <text x="691.0" y="665.0" text-anchor="middle" fill="white" font-size="8.0" font-weight="bold">1</text><title>1. export_svg_folders.dart</title></g><text x="800.0" y="675.0" class="nodeText">rect.dart</text>
<g class="incomingBadge">
  <path d="M 1022.0,102.0 L 1010.0,95.0 Q 1007.0,95.0 1007.0,98.0 L 1007.0,106.0 Q 1007.0,109.0 1010.0,109.0 Z" fill="#3b82f6"/>
  <text x="1011.0" y="105.0" text-anchor="middle" fill="white" font-size="8.0" font-weight="bold">7</text><title>1. export_mermaid.dart
2. export_plantuml.dart
3. export_svg.dart
4. export_svg_folders.dart
5. fcheck.dart
6. graph_format_utils.dart
7. layers_analyzer.dart</title></g><g class="outgoingBadge">
  <path d="M 1236.0,128.0 L 1224.0,121.0 Q 1221.0,121.0 1221.0,124.0 L 1221.0,132.0 Q 1221.0,135.0 1224.0,135.0 Z" fill="#10b981"/>
  <text x="1225.0" y="131.0" text-anchor="middle" fill="white" font-size="8.0" font-weight="bold">1</text><title>1. layers_issue.dart</title></g><text x="1120.0" y="115.0" class="nodeText">layers_results.dart</text>
<g class="incomingBadge">
  <path d="M 1022.0,172.0 L 1010.0,165.0 Q 1007.0,165.0 1007.0,168.0 L 1007.0,176.0 Q 1007.0,179.0 1010.0,179.0 Z" fill="#3b82f6"/>
  <text x="1011.0" y="175.0" text-anchor="middle" fill="white" font-size="8.0" font-weight="bold">3</text><title>1. export_svg.dart
2. export_svg_folders.dart
3. svg_common.dart</title></g><text x="1120.0" y="185.0" class="nodeText">badge_model.dart</text>
<g class="incomingBadge">
  <path d="M 1022.0,242.0 L 1010.0,235.0 Q 1007.0,235.0 1007.0,238.0 L 1007.0,246.0 Q 1007.0,249.0 1010.0,249.0 Z" fill="#3b82f6"/>
  <text x="1011.0" y="245.0" text-anchor="middle" fill="white" font-size="8.0" font-weight="bold">2</text><title>1. fcheck.dart
2. project_metrics.dart</title></g><g class="outgoingBadge">
  <path d="M 1236.0,268.0 L 1224.0,261.0 Q 1221.0,261.0 1221.0,264.0 L 1221.0,272.0 Q 1221.0,275.0 1224.0,275.0 Z" fill="#10b981"/>
  <text x="1225.0" y="271.0" text-anchor="middle" fill="white" font-size="8.0" font-weight="bold">4</text><title>1. class_visitor.dart
2. sort_analyzer.dart
3. sort_issue.dart
4. sort_members.dart</title></g><text x="1120.0" y="255.0" class="nodeText">sort.dart</text>
<g class="incomingBadge">
  <path d="M 1022.0,312.0 L 1010.0,305.0 Q 1007.0,305.0 1007.0,308.0 L 1007.0,316.0 Q 1007.0,319.0 1010.0,319.0 Z" fill="#3b82f6"/>
  <text x="1011.0" y="315.0" text-anchor="middle" fill="white" font-size="8.0" font-weight="bold">2</text><title>1. fcheck.dart
2. project_metrics.dart</title></g><text x="1120.0" y="325.0" class="nodeText">file_metrics.dart</text>
<g class="incomingBadge">
  <path d="M 1022.0,382.0 L 1010.0,375.0 Q 1007.0,375.0 1007.0,378.0 L 1007.0,386.0 Q 1007.0,389.0 1010.0,389.0 Z" fill="#3b82f6"/>
  <text x="1011.0" y="385.0" text-anchor="middle" fill="white" font-size="8.0" font-weight="bold">2</text><title>1. project_metrics.dart
2. secret_analyzer.dart</title></g><text x="1120.0" y="395.0" class="nodeText">secret_issue.dart</text>
<g class="incomingBadge">
  <path d="M 1022.0,452.0 L 1010.0,445.0 Q 1007.0,445.0 1007.0,448.0 L 1007.0,456.0 Q 1007.0,459.0 1010.0,459.0 Z" fill="#3b82f6"/>
  <text x="1011.0" y="455.0" text-anchor="middle" fill="white" font-size="8.0" font-weight="bold">1</text><title>1. hardcoded_string_analyzer.dart</title></g><g class="outgoingBadge">
  <path d="M 1236.0,478.0 L 1224.0,471.0 Q 1221.0,471.0 1221.0,474.0 L 1221.0,482.0 Q 1221.0,485.0 1224.0,485.0 Z" fill="#10b981"/>
  <text x="1225.0" y="481.0" text-anchor="middle" fill="white" font-size="8.0" font-weight="bold">2</text><title>1. config_ignore_directives.dart
2. hardcoded_string_issue.dart</title></g><text x="1120.0" y="465.0" class="nodeText">hardcoded_string_visit...</text>
<g class="incomingBadge">
  <path d="M 1022.0,522.0 L 1010.0,515.0 Q 1007.0,515.0 1007.0,518.0 L 1007.0,526.0 Q 1007.0,529.0 1010.0,529.0 Z" fill="#3b82f6"/>
  <text x="1011.0" y="525.0" text-anchor="middle" fill="white" font-size="8.0" font-weight="bold">1</text><title>1. magic_number_analyzer.dart</title></g><g class="outgoingBadge">
  <path d="M 1236.0,548.0 L 1224.0,541.0 Q 1221.0,541.0 1221.0,544.0 L 1221.0,552.0 Q 1221.0,555.0 1224.0,555.0 Z" fill="#10b981"/>
  <text x="1225.0" y="551.0" text-anchor="middle" fill="white" font-size="8.0" font-weight="bold">2</text><title>1. config_ignore_directives.dart
2. magic_number_issue.dart</title></g><text x="1120.0" y="535.0" class="nodeText">magic_number_visitor.dart</text>
<g class="incomingBadge">
  <path d="M 1022.0,592.0 L 1010.0,585.0 Q 1007.0,585.0 1007.0,588.0 L 1007.0,596.0 Q 1007.0,599.0 1010.0,599.0 Z" fill="#3b82f6"/>
  <text x="1011.0" y="595.0" text-anchor="middle" fill="white" font-size="8.0" font-weight="bold">1</text><title>1. layers_analyzer.dart</title></g><text x="1120.0" y="605.0" class="nodeText">layers_visitor.dart</text>
<g class="incomingBadge">
  <path d="M 1342.0,102.0 L 1330.0,95.0 Q 1327.0,95.0 1327.0,98.0 L 1327.0,106.0 Q 1327.0,109.0 1330.0,109.0 Z" fill="#3b82f6"/>
  <text x="1331.0" y="105.0" text-anchor="middle" fill="white" font-size="8.0" font-weight="bold">6</text><title>1. fcheck.dart
2. hardcoded_string_analyzer.dart
3. hardcoded_string_visitor.dart
4. layers_analyzer.dart
5. magic_number_analyzer.dart
6. magic_number_visitor.dart</title></g><text x="1440.0" y="115.0" class="nodeText">config_ignore_directiv...</text>
<g class="incomingBadge">
  <path d="M 1342.0,172.0 L 1330.0,165.0 Q 1327.0,165.0 1327.0,168.0 L 1327.0,176.0 Q 1327.0,179.0 1330.0,179.0 Z" fill="#3b82f6"/>
  <text x="1331.0" y="175.0" text-anchor="middle" fill="white" font-size="8.0" font-weight="bold">3</text><title>1. hardcoded_string_analyzer.dart
2. hardcoded_string_visitor.dart
3. project_metrics.dart</title></g><text x="1440.0" y="185.0" class="nodeText">hardcoded_string_issue...</text>
<g class="incomingBadge">
  <path d="M 1342.0,242.0 L 1330.0,235.0 Q 1327.0,235.0 1327.0,238.0 L 1327.0,246.0 Q 1327.0,249.0 1330.0,249.0 Z" fill="#3b82f6"/>
  <text x="1331.0" y="245.0" text-anchor="middle" fill="white" font-size="8.0" font-weight="bold">3</text><title>1. layers_analyzer.dart
2. layers_results.dart
3. project_metrics.dart</title></g><text x="1440.0" y="255.0" class="nodeText">layers_issue.dart</text>
<g class="incomingBadge">
  <path d="M 1342.0,312.0 L 1330.0,305.0 Q 1327.0,305.0 1327.0,308.0 L 1327.0,316.0 Q 1327.0,319.0 1330.0,319.0 Z" fill="#3b82f6"/>
  <text x="1331.0" y="315.0" text-anchor="middle" fill="white" font-size="8.0" font-weight="bold">3</text><title>1. magic_number_analyzer.dart
2. magic_number_visitor.dart
3. project_metrics.dart</title></g><text x="1440.0" y="325.0" class="nodeText">magic_number_issue.dart</text>
<g class="incomingBadge">
  <path d="M 1342.0,382.0 L 1330.0,375.0 Q 1327.0,375.0 1327.0,378.0 L 1327.0,386.0 Q 1327.0,389.0 1330.0,389.0 Z" fill="#3b82f6"/>
  <text x="1331.0" y="385.0" text-anchor="middle" fill="white" font-size="8.0" font-weight="bold">1</text><title>1. sort.dart</title></g><g class="outgoingBadge">
  <path d="M 1556.0,408.0 L 1544.0,401.0 Q 1541.0,401.0 1541.0,404.0 L 1541.0,412.0 Q 1541.0,415.0 1544.0,415.0 Z" fill="#10b981"/>
  <text x="1545.0" y="411.0" text-anchor="middle" fill="white" font-size="8.0" font-weight="bold">4</text><title>1. class_visitor.dart
2. file_utils.dart
3. sort_issue.dart
4. sort_members.dart</title></g><text x="1440.0" y="395.0" class="nodeText">sort_analyzer.dart</text>
<g class="incomingBadge">
  <path d="M 1662.0,102.0 L 1650.0,95.0 Q 1647.0,95.0 1647.0,98.0 L 1647.0,106.0 Q 1647.0,109.0 1650.0,109.0 Z" fill="#3b82f6"/>
  <text x="1651.0" y="105.0" text-anchor="middle" fill="white" font-size="8.0" font-weight="bold">5</text><title>1. fcheck.dart
2. hardcoded_string_analyzer.dart
3. layers_analyzer.dart
4. magic_number_analyzer.dart
5. sort_analyzer.dart</title></g><text x="1760.0" y="115.0" class="nodeText">file_utils.dart</text>
<g class="incomingBadge">
  <path d="M 1662.0,172.0 L 1650.0,165.0 Q 1647.0,165.0 1647.0,168.0 L 1647.0,176.0 Q 1647.0,179.0 1650.0,179.0 Z" fill="#3b82f6"/>
  <text x="1651.0" y="175.0" text-anchor="middle" fill="white" font-size="8.0" font-weight="bold">2</text><title>1. sort.dart
2. sort_analyzer.dart</title></g><text x="1760.0" y="185.0" class="nodeText">class_visitor.dart</text>
<g class="incomingBadge">
  <path d="M 1662.0,242.0 L 1650.0,235.0 Q 1647.0,235.0 1647.0,238.0 L 1647.0,246.0 Q 1647.0,249.0 1650.0,249.0 Z" fill="#3b82f6"/>
  <text x="1651.0" y="245.0" text-anchor="middle" fill="white" font-size="8.0" font-weight="bold">2</text><title>1. sort.dart
2. sort_analyzer.dart</title></g><text x="1760.0" y="255.0" class="nodeText">sort_issue.dart</text>
<g class="incomingBadge">
  <path d="M 1662.0,312.0 L 1650.0,305.0 Q 1647.0,305.0 1647.0,308.0 L 1647.0,316.0 Q 1647.0,319.0 1650.0,319.0 Z" fill="#3b82f6"/>
  <text x="1651.0" y="315.0" text-anchor="middle" fill="white" font-size="8.0" font-weight="bold">2</text><title>1. sort.dart
2. sort_analyzer.dart</title></g><text x="1760.0" y="325.0" class="nodeText">sort_members.dart</text>
</svg>
