<?xml version="1.0" encoding="UTF-8"?>
<svg width="758.0" height="1940.0" viewBox="0 0 758.0 1940.0" xmlns="http://www.w3.org/2000/svg" font-family="Arial, Helvetica, sans-serif">
<defs>
  <filter id="whiteShadow" x="-20%" y="-20%" width="140%" height="140%">
    <feGaussianBlur in="SourceAlpha" stdDeviation="3"/>
    <feOffset dx="0" dy="0" result="offsetblur"/>
    <feFlood flood-color="white" flood-opacity="1"/>
    <feComposite in2="offsetblur" operator="in"/>
    <feMerge>
      <feMergeNode/>
      <feMergeNode in="SourceGraphic"/>
    </feMerge>
  </filter>
  <filter id="hierarchicalShadow" x="-20%" y="-20%" width="140%" height="140%">
    <feGaussianBlur in="SourceAlpha" stdDeviation="5"/>
    <feOffset dx="2" dy="2" result="offsetblur"/>
    <feFlood flood-color="rgba(0,0,0,0.1)" flood-opacity="0.8"/>
    <feComposite in2="offsetblur" operator="in"/>
    <feMerge>
      <feMergeNode/>
      <feMergeNode in="SourceGraphic"/>
    </feMerge>
  </filter>
  <filter id="outlineWhite">
    <feMorphology in="SourceAlpha" result="DILATED" operator="dilate" radius="2"/>
    <feFlood flood-color="white" flood-opacity="0.5" result="WHITE"/>
    <feComposite in="WHITE" in2="DILATED" operator="in" result="OUTLINE"/>
    <feMerge>
      <feMergeNode in="OUTLINE"/>
      <feMergeNode in="SourceGraphic"/>
    </feMerge>
  </filter>
  <linearGradient id="horizontalGradient" x1="0%" y1="0%" x2="100%" y2="0%">
    <stop offset="0%" stop-color="#28a745"/>
    <stop offset="100%" stop-color="#007bff"/>
  </linearGradient>
  <linearGradient id="verticalGradient" x1="0%" y1="0%" x2="0%" y2="100%">
    <stop offset="0%" stop-color="#28a745"/>
    <stop offset="100%" stop-color="#007bff"/>
  </linearGradient>
</defs>
<style>
  /* Container and layer styles */
  .layerBackground { 
    fill: rgba(52, 58, 64, 0.08); 
    stroke: #dee2e6; 
    stroke-width: 1; 
    stroke-dasharray: 4,4; 
  }

  .layerBackground:hover { 
    fill: rgba(52, 58, 64, 0.12); 
    stroke: black; 
    stroke-dasharray: 0; 
    transition: all 0.3s ease-in-out; 
  }
  
  .layerTitle { 
    fill: black; 
    font-size: 14px; 
    font-weight: bold; 
    text-anchor: middle; 
    filter: url(#outlineWhite); 
  }
  
  /* Node styles */
  .nodeRect { 
    fill: #ffffff; 
    stroke: #343a40; 
    stroke-width: 2; 
    rx: 6; 
    ry: 6; 
    cursor: pointer; 
    filter: url(#whiteShadow); 
    transition: all 0.1s ease-in-out; 
  }
  
  .nodeRect:hover { 
    stroke: black; 
    stroke-width: 5; 
  }
  
  .nodeText { 
    fill: #212529; 
    font-size: 14px; 
    font-weight: 900; 
    text-anchor: middle; 
    dominant-baseline: middle; 
    filter: url(#outlineWhite); 
  }
  
  /* File node styles */
  .fileNode { 
    fill: #ffffff; 
    stroke: #d0d7de; 
    stroke-width: 1; 
    transition: all 0.1s ease-in-out; 
  }
  
  .fileNode:hover { 
    stroke: #007bff; 
    stroke-width: 2; 
  }
  
  /* Unified edge styles */
  .edge { 
    fill: none; 
    stroke: url(#horizontalGradient); 
    stroke-width: 1; 
    transition: all 0.1s ease-in-out; 
  }
  
  .edge:hover { 
    stroke: url(#horizontalGradient); 
    stroke-width: 5; 
    opacity: 1.0; 
  }
  
  .edgeVertical { 
    fill: none; 
    stroke: url(#verticalGradient); 
    stroke-width: 1; 
    opacity: 0.5; 
    transition: all 0.1s ease-in-out; 
  }
  
  .edgeVertical:hover { 
    stroke: url(#verticalGradient); 
    stroke-width: 5; 
    opacity: 1.0; 
  }
  
  /* Special edge styles */
  .cycleEdge { 
    stroke: red; 
    stroke-width: 5; 
    opacity: 0.9; 
  }
  
  /* Unified badge styles with '?' cursor */
  .badge { 
    font-size: 10px; 
    font-weight: bold; 
    fill: white; 
    text-anchor: middle; 
    dominant-baseline: middle; 
    cursor: help; 
    transition: all 0.1s ease-in-out; 
  }
  
  .badge:hover { 
    opacity: 0.8; 
  }
  
  /* Special styles */
  .folderTitleLayer { 
    pointer-events: none; 
    isolation: isolate; 
  }
</style>
<rect width="100%" height="100%" fill="#f8f9fa"/>
<path d="M 75.0 999.0 C 84.0 999.0, 67.0 999.0, 76.0 999.0" class="edgeVertical"/>
<title>. → .. (parent-child)</title>
<path d="M 109.0 1009.0 C 118.0 1009.0, 101.0 1009.0, 110.0 1009.0" class="edgeVertical"/>
<title>.. → lib (parent-child)</title>
<path d="M 143.0 1038.0 C 152.0 1038.0, 135.0 1038.0, 144.0 1038.0" class="edgeVertical"/>
<title>lib → src (parent-child)</title>
<path d="M 177.0 491.0 C 186.0 491.0, 169.0 491.0, 178.0 491.0" class="edgeVertical"/>
<title>src → graphs (parent-child)</title>
<path d="M 177.0 1669.0 C 186.0 1669.0, 169.0 1669.0, 178.0 1669.0" class="edgeVertical"/>
<title>src → models (parent-child)</title>
<path d="M 177.0 917.0 C 186.0 917.0, 169.0 917.0, 178.0 917.0" class="edgeVertical"/>
<title>src → layers (parent-child)</title>
<path d="M 177.0 736.0 C 186.0 736.0, 169.0 736.0, 178.0 736.0" class="edgeVertical"/>
<title>src → metrics (parent-child)</title>
<path d="M 177.0 1105.0 C 186.0 1105.0, 169.0 1105.0, 178.0 1105.0" class="edgeVertical"/>
<title>src → hardcoded_strings (parent-child)</title>
<path d="M 177.0 1277.0 C 186.0 1277.0, 169.0 1277.0, 178.0 1277.0" class="edgeVertical"/>
<title>src → magic_numbers (parent-child)</title>
<path d="M 177.0 1465.0 C 186.0 1465.0, 169.0 1465.0, 178.0 1465.0" class="edgeVertical"/>
<title>src → sort (parent-child)</title>
<g class="folderLayer">
<rect x="50.0" y="50.0" width="460.0" height="1840.0" rx="12" ry="12" class="layerBackground"/>
</g>
<g class="folderLayer">
<rect x="84.0" y="140.0" width="410.0" height="1718.0" rx="12" ry="12" class="layerBackground"/>
</g>
<g class="folderLayer">
<rect x="118.0" y="192.0" width="360.0" height="1634.0" rx="12" ry="12" class="layerBackground"/>
</g>
<g class="folderLayer">
<rect x="152.0" y="282.0" width="310.0" height="1512.0" rx="12" ry="12" class="layerBackground"/>
</g>
<g class="folderLayer">
<rect x="186.0" y="334.0" width="260.0" height="314.0" rx="12" ry="12" class="layerBackground"/>
</g>
<g class="folderLayer">
<rect x="186.0" y="1576.0" width="260.0" height="186.0" rx="12" ry="12" class="layerBackground"/>
</g>
<g class="folderLayer">
<rect x="186.0" y="824.0" width="260.0" height="186.0" rx="12" ry="12" class="layerBackground"/>
</g>
<g class="folderLayer">
<rect x="186.0" y="666.0" width="260.0" height="140.0" rx="12" ry="12" class="layerBackground"/>
</g>
<g class="folderLayer">
<rect x="186.0" y="1028.0" width="260.0" height="154.0" rx="12" ry="12" class="layerBackground"/>
</g>
<g class="folderLayer">
<rect x="186.0" y="1200.0" width="260.0" height="154.0" rx="12" ry="12" class="layerBackground"/>
</g>
<g class="folderLayer">
<rect x="186.0" y="1372.0" width="260.0" height="186.0" rx="12" ry="12" class="layerBackground"/>
</g>
<path d="M 56.0 74.0 H 34.0 Q 24.0 74.0 24.0 84.0 V 337.0 Q 24.0 347.0 34.0 347.0 H 196.0" class="edgeVertical"/>
<title>. → ../lib/src/graphs (folder dependency)</title>
<path d="M 56.0 74.0 H 32.0 Q 22.0 74.0 22.0 84.0 V 195.0 Q 22.0 205.0 32.0 205.0 H 128.0" class="edgeVertical"/>
<title>. → ../lib (folder dependency)</title>
<path d="M 56.0 74.0 H 30.0 Q 20.0 74.0 20.0 84.0 V 1579.0 Q 20.0 1589.0 30.0 1589.0 H 196.0" class="edgeVertical"/>
<title>. → ../lib/src/models (folder dependency)</title>
<path d="M 124.0 216.0 H 96.0 Q 86.0 216.0 86.0 226.0 V 827.0 Q 86.0 837.0 96.0 837.0 H 196.0" class="edgeVertical"/>
<title>../lib → ../lib/src/layers (folder dependency)</title>
<path d="M 124.0 216.0 H 94.0 Q 84.0 216.0 84.0 226.0 V 669.0 Q 84.0 679.0 94.0 679.0 H 196.0" class="edgeVertical"/>
<title>../lib → ../lib/src/metrics (folder dependency)</title>
<path d="M 124.0 216.0 H 92.0 Q 82.0 216.0 82.0 226.0 V 1031.0 Q 82.0 1041.0 92.0 1041.0 H 196.0" class="edgeVertical"/>
<title>../lib → ../lib/src/hardcoded_strings (folder dependency)</title>
<path d="M 124.0 216.0 H 90.0 Q 80.0 216.0 80.0 226.0 V 1203.0 Q 80.0 1213.0 90.0 1213.0 H 196.0" class="edgeVertical"/>
<title>../lib → ../lib/src/magic_numbers (folder dependency)</title>
<path d="M 124.0 216.0 H 88.0 Q 78.0 216.0 78.0 226.0 V 1375.0 Q 78.0 1385.0 88.0 1385.0 H 196.0" class="edgeVertical"/>
<title>../lib → ../lib/src/sort (folder dependency)</title>
<path d="M 124.0 216.0 H 86.0 Q 76.0 216.0 76.0 226.0 V 1579.0 Q 76.0 1589.0 86.0 1589.0 H 196.0" class="edgeVertical"/>
<title>../lib → ../lib/src/models (folder dependency)</title>
<path d="M 192.0 690.0 H 152.0 Q 142.0 690.0 142.0 700.0 V 1031.0 Q 142.0 1041.0 152.0 1041.0 H 196.0" class="edgeVertical"/>
<title>../lib/src/metrics → ../lib/src/hardcoded_strings (folder dependency)</title>
<path d="M 192.0 690.0 H 150.0 Q 140.0 690.0 140.0 700.0 V 827.0 Q 140.0 837.0 150.0 837.0 H 196.0" class="edgeVertical"/>
<title>../lib/src/metrics → ../lib/src/layers (folder dependency)</title>
<path d="M 192.0 690.0 H 148.0 Q 138.0 690.0 138.0 700.0 V 1203.0 Q 138.0 1213.0 148.0 1213.0 H 196.0" class="edgeVertical"/>
<title>../lib/src/metrics → ../lib/src/magic_numbers (folder dependency)</title>
<path d="M 192.0 690.0 H 146.0 Q 136.0 690.0 136.0 700.0 V 1375.0 Q 136.0 1385.0 146.0 1385.0 H 196.0" class="edgeVertical"/>
<title>../lib/src/metrics → ../lib/src/sort (folder dependency)</title>
<path d="M 192.0 1052.0 H 144.0 Q 134.0 1052.0 134.0 1062.0 V 1579.0 Q 134.0 1589.0 144.0 1589.0 H 196.0" class="edgeVertical"/>
<title>../lib/src/hardcoded_strings → ../lib/src/models (folder dependency)</title>
<path d="M 192.0 848.0 H 142.0 Q 132.0 848.0 132.0 858.0 V 1579.0 Q 132.0 1589.0 142.0 1589.0 H 196.0" class="edgeVertical"/>
<title>../lib/src/layers → ../lib/src/models (folder dependency)</title>
<path d="M 192.0 1396.0 H 140.0 Q 130.0 1396.0 130.0 1406.0 V 1579.0 Q 130.0 1589.0 140.0 1589.0 H 196.0" class="edgeVertical"/>
<title>../lib/src/sort → ../lib/src/models (folder dependency)</title>
<path d="M 192.0 1224.0 H 138.0 Q 128.0 1224.0 128.0 1234.0 V 1579.0 Q 128.0 1589.0 138.0 1589.0 H 196.0" class="edgeVertical"/>
<title>../lib/src/magic_numbers → ../lib/src/models (folder dependency)</title>
<path d="M 192.0 358.0 H 136.0 Q 126.0 358.0 126.0 368.0 V 827.0 Q 126.0 837.0 136.0 837.0 H 196.0" class="edgeVertical"/>
<title>../lib/src/graphs → ../lib/src/layers (folder dependency)</title>
<path d="M 192.0 358.0 H 134.0 Q 124.0 358.0 124.0 368.0 V 1579.0 Q 124.0 1589.0 134.0 1589.0 H 196.0" class="edgeVertical"/>
<title>../lib/src/graphs → ../lib/src/models (folder dependency)</title>
<g class="outgoingBadge">
  <path d="M 50.0,74.0 L 62.0,67.0 Q 65.0,67.0 65.0,70.0 L 65.0,78.0 Q 65.0,81.0 62.0,81.0 Z" fill="#10b981"/>
  <text x="61.0" y="77.0" text-anchor="middle" fill="white" font-size="8" font-weight="bold">6</text><title>graphs
lib
models</title></g><g class="incomingBadge">
  <path d="M 134.0,205.0 L 122.0,198.0 Q 119.0,198.0 119.0,201.0 L 119.0,209.0 Q 119.0,212.0 122.0,212.0 Z" fill="#3b82f6"/>
  <text x="123.0" y="208.0" text-anchor="middle" fill="white" font-size="8" font-weight="bold">1</text><title>.</title></g><g class="outgoingBadge">
  <path d="M 118.0,216.0 L 130.0,209.0 Q 133.0,209.0 133.0,212.0 L 133.0,220.0 Q 133.0,223.0 130.0,223.0 Z" fill="#10b981"/>
  <text x="129.0" y="219.0" text-anchor="middle" fill="white" font-size="8" font-weight="bold">8</text><title>hardcoded_strings
layers
magic_numbers
metrics
models
sort</title></g><g class="incomingBadge">
  <path d="M 202.0,347.0 L 190.0,340.0 Q 187.0,340.0 187.0,343.0 L 187.0,351.0 Q 187.0,354.0 190.0,354.0 Z" fill="#3b82f6"/>
  <text x="191.0" y="350.0" text-anchor="middle" fill="white" font-size="8" font-weight="bold">4</text><title>.</title></g><g class="outgoingBadge">
  <path d="M 186.0,358.0 L 198.0,351.0 Q 201.0,351.0 201.0,354.0 L 201.0,362.0 Q 201.0,365.0 198.0,365.0 Z" fill="#10b981"/>
  <text x="197.0" y="361.0" text-anchor="middle" fill="white" font-size="8" font-weight="bold">6</text><title>layers
models</title></g><g class="incomingBadge">
  <path d="M 202.0,1589.0 L 190.0,1582.0 Q 187.0,1582.0 187.0,1585.0 L 187.0,1593.0 Q 187.0,1596.0 190.0,1596.0 Z" fill="#3b82f6"/>
  <text x="191.0" y="1592.0" text-anchor="middle" fill="white" font-size="8" font-weight="bold">9</text><title>.
graphs
hardcoded_strings
layers
lib
magic_numbers
sort</title></g><g class="incomingBadge">
  <path d="M 202.0,837.0 L 190.0,830.0 Q 187.0,830.0 187.0,833.0 L 187.0,841.0 Q 187.0,844.0 190.0,844.0 Z" fill="#3b82f6"/>
  <text x="191.0" y="840.0" text-anchor="middle" fill="white" font-size="8" font-weight="bold">8</text><title>graphs
lib
metrics</title></g><g class="outgoingBadge">
  <path d="M 186.0,848.0 L 198.0,841.0 Q 201.0,841.0 201.0,844.0 L 201.0,852.0 Q 201.0,855.0 198.0,855.0 Z" fill="#10b981"/>
  <text x="197.0" y="851.0" text-anchor="middle" fill="white" font-size="8" font-weight="bold">1</text><title>models</title></g><g class="incomingBadge">
  <path d="M 202.0,679.0 L 190.0,672.0 Q 187.0,672.0 187.0,675.0 L 187.0,683.0 Q 187.0,686.0 190.0,686.0 Z" fill="#3b82f6"/>
  <text x="191.0" y="682.0" text-anchor="middle" fill="white" font-size="8" font-weight="bold">2</text><title>lib</title></g><g class="outgoingBadge">
  <path d="M 186.0,690.0 L 198.0,683.0 Q 201.0,683.0 201.0,686.0 L 201.0,694.0 Q 201.0,697.0 198.0,697.0 Z" fill="#10b981"/>
  <text x="197.0" y="693.0" text-anchor="middle" fill="white" font-size="8" font-weight="bold">4</text><title>hardcoded_strings
layers
magic_numbers
sort</title></g><g class="incomingBadge">
  <path d="M 202.0,1041.0 L 190.0,1034.0 Q 187.0,1034.0 187.0,1037.0 L 187.0,1045.0 Q 187.0,1048.0 190.0,1048.0 Z" fill="#3b82f6"/>
  <text x="191.0" y="1044.0" text-anchor="middle" fill="white" font-size="8" font-weight="bold">2</text><title>lib
metrics</title></g><g class="outgoingBadge">
  <path d="M 186.0,1052.0 L 198.0,1045.0 Q 201.0,1045.0 201.0,1048.0 L 201.0,1056.0 Q 201.0,1059.0 198.0,1059.0 Z" fill="#10b981"/>
  <text x="197.0" y="1055.0" text-anchor="middle" fill="white" font-size="8" font-weight="bold">1</text><title>models</title></g><g class="incomingBadge">
  <path d="M 202.0,1213.0 L 190.0,1206.0 Q 187.0,1206.0 187.0,1209.0 L 187.0,1217.0 Q 187.0,1220.0 190.0,1220.0 Z" fill="#3b82f6"/>
  <text x="191.0" y="1216.0" text-anchor="middle" fill="white" font-size="8" font-weight="bold">2</text><title>lib
metrics</title></g><g class="outgoingBadge">
  <path d="M 186.0,1224.0 L 198.0,1217.0 Q 201.0,1217.0 201.0,1220.0 L 201.0,1228.0 Q 201.0,1231.0 198.0,1231.0 Z" fill="#10b981"/>
  <text x="197.0" y="1227.0" text-anchor="middle" fill="white" font-size="8" font-weight="bold">1</text><title>models</title></g><g class="incomingBadge">
  <path d="M 202.0,1385.0 L 190.0,1378.0 Q 187.0,1378.0 187.0,1381.0 L 187.0,1389.0 Q 187.0,1392.0 190.0,1392.0 Z" fill="#3b82f6"/>
  <text x="191.0" y="1388.0" text-anchor="middle" fill="white" font-size="8" font-weight="bold">2</text><title>lib
metrics</title></g><g class="outgoingBadge">
  <path d="M 186.0,1396.0 L 198.0,1389.0 Q 201.0,1389.0 201.0,1392.0 L 201.0,1400.0 Q 201.0,1403.0 198.0,1403.0 Z" fill="#10b981"/>
  <text x="197.0" y="1399.0" text-anchor="middle" fill="white" font-size="8" font-weight="bold">3</text><title>models</title></g><rect x="194.0" y="372.0" width="244.0" height="28.0" rx="5" ry="5" class="fileNode"/>
<rect x="194.0" y="404.0" width="244.0" height="28.0" rx="5" ry="5" class="fileNode"/>
<rect x="194.0" y="436.0" width="244.0" height="28.0" rx="5" ry="5" class="fileNode"/>
<rect x="194.0" y="468.0" width="244.0" height="28.0" rx="5" ry="5" class="fileNode"/>
<rect x="194.0" y="500.0" width="244.0" height="28.0" rx="5" ry="5" class="fileNode"/>
<rect x="194.0" y="532.0" width="244.0" height="28.0" rx="5" ry="5" class="fileNode"/>
<rect x="194.0" y="564.0" width="244.0" height="28.0" rx="5" ry="5" class="fileNode"/>
<rect x="194.0" y="596.0" width="244.0" height="28.0" rx="5" ry="5" class="fileNode"/>
<rect x="194.0" y="1614.0" width="244.0" height="28.0" rx="5" ry="5" class="fileNode"/>
<rect x="194.0" y="1646.0" width="244.0" height="28.0" rx="5" ry="5" class="fileNode"/>
<rect x="194.0" y="1678.0" width="244.0" height="28.0" rx="5" ry="5" class="fileNode"/>
<rect x="194.0" y="1710.0" width="244.0" height="28.0" rx="5" ry="5" class="fileNode"/>
<rect x="194.0" y="862.0" width="244.0" height="28.0" rx="5" ry="5" class="fileNode"/>
<rect x="194.0" y="894.0" width="244.0" height="28.0" rx="5" ry="5" class="fileNode"/>
<rect x="194.0" y="926.0" width="244.0" height="28.0" rx="5" ry="5" class="fileNode"/>
<rect x="194.0" y="958.0" width="244.0" height="28.0" rx="5" ry="5" class="fileNode"/>
<rect x="194.0" y="704.0" width="244.0" height="28.0" rx="5" ry="5" class="fileNode"/>
<rect x="194.0" y="736.0" width="244.0" height="28.0" rx="5" ry="5" class="fileNode"/>
<rect x="194.0" y="1066.0" width="244.0" height="28.0" rx="5" ry="5" class="fileNode"/>
<rect x="194.0" y="1098.0" width="244.0" height="28.0" rx="5" ry="5" class="fileNode"/>
<rect x="194.0" y="1130.0" width="244.0" height="28.0" rx="5" ry="5" class="fileNode"/>
<rect x="194.0" y="1238.0" width="244.0" height="28.0" rx="5" ry="5" class="fileNode"/>
<rect x="194.0" y="1270.0" width="244.0" height="28.0" rx="5" ry="5" class="fileNode"/>
<rect x="194.0" y="1302.0" width="244.0" height="28.0" rx="5" ry="5" class="fileNode"/>
<rect x="194.0" y="1410.0" width="244.0" height="28.0" rx="5" ry="5" class="fileNode"/>
<rect x="194.0" y="1442.0" width="244.0" height="28.0" rx="5" ry="5" class="fileNode"/>
<rect x="194.0" y="1474.0" width="244.0" height="28.0" rx="5" ry="5" class="fileNode"/>
<rect x="194.0" y="1506.0" width="244.0" height="28.0" rx="5" ry="5" class="fileNode"/>
<rect x="126.0" y="230.0" width="344.0" height="28.0" rx="5" ry="5" class="fileNode"/>
<rect x="58.0" y="88.0" width="444.0" height="28.0" rx="5" ry="5" class="fileNode"/>
<path d="M 498.0 108.0 H 520.0 Q 526.0 108.0 526.0 114.0 V 375.0 Q 526.0 381.0 520.0 381.0 H 430.0" class="edgeVertical edgeVertical"/>
<title>fcheck.dart → ../lib/src/graphs/export_mermaid.dart</title>
<path d="M 498.0 108.0 H 521.0 Q 527.0 108.0 527.0 114.0 V 407.0 Q 527.0 413.0 521.0 413.0 H 430.0" class="edgeVertical edgeVertical"/>
<title>fcheck.dart → ../lib/src/graphs/export_plantuml.dart</title>
<path d="M 498.0 108.0 H 522.0 Q 528.0 108.0 528.0 114.0 V 471.0 Q 528.0 477.0 522.0 477.0 H 430.0" class="edgeVertical edgeVertical"/>
<title>fcheck.dart → ../lib/src/graphs/export_svg.dart</title>
<path d="M 498.0 108.0 H 523.0 Q 529.0 108.0 529.0 114.0 V 503.0 Q 529.0 509.0 523.0 509.0 H 430.0" class="edgeVertical edgeVertical"/>
<title>fcheck.dart → ../lib/src/graphs/export_svg_folders.dart</title>
<path d="M 498.0 108.0 H 524.0 Q 530.0 108.0 530.0 114.0 V 233.0 Q 530.0 239.0 524.0 239.0 H 462.0" class="edgeVertical edgeVertical"/>
<title>fcheck.dart → ../lib/fcheck.dart</title>
<path d="M 498.0 108.0 H 525.0 Q 531.0 108.0 531.0 114.0 V 1713.0 Q 531.0 1719.0 525.0 1719.0 H 430.0" class="edgeVertical edgeVertical"/>
<title>fcheck.dart → ../lib/src/models/version.dart</title>
<path d="M 466.0 250.0 H 494.0 Q 500.0 250.0 500.0 256.0 V 897.0 Q 500.0 903.0 494.0 903.0 H 430.0" class="edgeVertical edgeVertical"/>
<title>../lib/fcheck.dart → ../lib/src/layers/layers_results.dart</title>
<path d="M 466.0 250.0 H 495.0 Q 501.0 250.0 501.0 256.0 V 739.0 Q 501.0 745.0 495.0 745.0 H 430.0" class="edgeVertical edgeVertical"/>
<title>../lib/fcheck.dart → ../lib/src/metrics/file_metrics.dart</title>
<path d="M 466.0 250.0 H 496.0 Q 502.0 250.0 502.0 256.0 V 1069.0 Q 502.0 1075.0 496.0 1075.0 H 430.0" class="edgeVertical edgeVertical"/>
<title>../lib/fcheck.dart → ../lib/src/hardcoded_strings/hardcoded_string_analyzer.dart</title>
<path d="M 466.0 250.0 H 497.0 Q 503.0 250.0 503.0 256.0 V 865.0 Q 503.0 871.0 497.0 871.0 H 430.0" class="edgeVertical edgeVertical"/>
<title>../lib/fcheck.dart → ../lib/src/layers/layers_analyzer.dart</title>
<path d="M 466.0 250.0 H 498.0 Q 504.0 250.0 504.0 256.0 V 1241.0 Q 504.0 1247.0 498.0 1247.0 H 430.0" class="edgeVertical edgeVertical"/>
<title>../lib/fcheck.dart → ../lib/src/magic_numbers/magic_number_analyzer.dart</title>
<path d="M 466.0 250.0 H 499.0 Q 505.0 250.0 505.0 256.0 V 1413.0 Q 505.0 1419.0 499.0 1419.0 H 430.0" class="edgeVertical edgeVertical"/>
<title>../lib/fcheck.dart → ../lib/src/sort/sort.dart</title>
<path d="M 466.0 250.0 H 500.0 Q 506.0 250.0 506.0 256.0 V 707.0 Q 506.0 713.0 500.0 713.0 H 430.0" class="edgeVertical edgeVertical"/>
<title>../lib/fcheck.dart → ../lib/src/metrics/project_metrics.dart</title>
<path d="M 466.0 250.0 H 501.0 Q 507.0 250.0 507.0 256.0 V 1617.0 Q 507.0 1623.0 501.0 1623.0 H 430.0" class="edgeVertical edgeVertical"/>
<title>../lib/fcheck.dart → ../lib/src/models/file_utils.dart</title>
<path d="M 434.0 724.0 H 470.0 Q 476.0 724.0 476.0 730.0 V 1133.0 Q 476.0 1139.0 470.0 1139.0 H 430.0" class="edgeVertical edgeVertical"/>
<title>../lib/src/metrics/project_metrics.dart → ../lib/src/hardcoded_strings/hardcoded_string_issue.dart</title>
<path d="M 434.0 724.0 H 471.0 Q 477.0 724.0 477.0 730.0 V 929.0 Q 477.0 935.0 471.0 935.0 H 430.0" class="edgeVertical edgeVertical"/>
<title>../lib/src/metrics/project_metrics.dart → ../lib/src/layers/layers_issue.dart</title>
<path d="M 434.0 724.0 H 472.0 Q 478.0 724.0 478.0 730.0 V 739.0 Q 478.0 745.0 472.0 745.0 H 430.0" class="edgeVertical edgeVertical"/>
<title>../lib/src/metrics/project_metrics.dart → ../lib/src/metrics/file_metrics.dart</title>
<path d="M 434.0 724.0 H 473.0 Q 479.0 724.0 479.0 730.0 V 1305.0 Q 479.0 1311.0 473.0 1311.0 H 430.0" class="edgeVertical edgeVertical"/>
<title>../lib/src/metrics/project_metrics.dart → ../lib/src/magic_numbers/magic_number_issue.dart</title>
<path d="M 434.0 724.0 H 474.0 Q 480.0 724.0 480.0 730.0 V 1413.0 Q 480.0 1419.0 474.0 1419.0 H 430.0" class="edgeVertical edgeVertical"/>
<title>../lib/src/metrics/project_metrics.dart → ../lib/src/sort/sort.dart</title>
<path d="M 434.0 1118.0 H 475.0 Q 481.0 1118.0 481.0 1124.0 V 1133.0 Q 481.0 1139.0 475.0 1139.0 H 430.0" class="edgeVertical edgeVertical"/>
<title>../lib/src/hardcoded_strings/hardcoded_string_visitor.dart → ../lib/src/hardcoded_strings/hardcoded_string_issue.dart</title>
<path d="M 434.0 1086.0 H 476.0 Q 482.0 1086.0 482.0 1092.0 V 1133.0 Q 482.0 1139.0 476.0 1139.0 H 430.0" class="edgeVertical edgeVertical"/>
<title>../lib/src/hardcoded_strings/hardcoded_string_analyzer.dart → ../lib/src/hardcoded_strings/hardcoded_string_issue.dart</title>
<path d="M 434.0 1086.0 H 477.0 Q 483.0 1086.0 483.0 1092.0 V 1101.0 Q 483.0 1107.0 477.0 1107.0 H 430.0" class="edgeVertical edgeVertical"/>
<title>../lib/src/hardcoded_strings/hardcoded_string_analyzer.dart → ../lib/src/hardcoded_strings/hardcoded_string_visitor.dart</title>
<path d="M 434.0 1086.0 H 478.0 Q 484.0 1086.0 484.0 1092.0 V 1617.0 Q 484.0 1623.0 478.0 1623.0 H 430.0" class="edgeVertical edgeVertical"/>
<title>../lib/src/hardcoded_strings/hardcoded_string_analyzer.dart → ../lib/src/models/file_utils.dart</title>
<path d="M 434.0 914.0 H 479.0 Q 485.0 914.0 485.0 920.0 V 929.0 Q 485.0 935.0 479.0 935.0 H 430.0" class="edgeVertical edgeVertical"/>
<title>../lib/src/layers/layers_results.dart → ../lib/src/layers/layers_issue.dart</title>
<path d="M 434.0 882.0 H 480.0 Q 486.0 882.0 486.0 888.0 V 897.0 Q 486.0 903.0 480.0 903.0 H 430.0" class="edgeVertical edgeVertical"/>
<title>../lib/src/layers/layers_analyzer.dart → ../lib/src/layers/layers_results.dart</title>
<path d="M 434.0 882.0 H 481.0 Q 487.0 882.0 487.0 888.0 V 1617.0 Q 487.0 1623.0 481.0 1623.0 H 430.0" class="edgeVertical edgeVertical"/>
<title>../lib/src/layers/layers_analyzer.dart → ../lib/src/models/file_utils.dart</title>
<path d="M 434.0 882.0 H 482.0 Q 488.0 882.0 488.0 888.0 V 929.0 Q 488.0 935.0 482.0 935.0 H 430.0" class="edgeVertical edgeVertical"/>
<title>../lib/src/layers/layers_analyzer.dart → ../lib/src/layers/layers_issue.dart</title>
<path d="M 434.0 882.0 H 483.0 Q 489.0 882.0 489.0 888.0 V 961.0 Q 489.0 967.0 483.0 967.0 H 430.0" class="edgeVertical edgeVertical"/>
<title>../lib/src/layers/layers_analyzer.dart → ../lib/src/layers/layers_visitor.dart</title>
<path d="M 434.0 1430.0 H 484.0 Q 490.0 1430.0 490.0 1436.0 V 1649.0 Q 490.0 1655.0 484.0 1655.0 H 430.0" class="edgeVertical edgeVertical"/>
<title>../lib/src/sort/sort.dart → ../lib/src/models/class_visitor.dart</title>
<path d="M 434.0 1430.0 H 485.0 Q 491.0 1430.0 491.0 1436.0 V 1509.0 Q 491.0 1515.0 485.0 1515.0 H 430.0" class="edgeVertical edgeVertical"/>
<title>../lib/src/sort/sort.dart → ../lib/src/sort/sort_members.dart</title>
<path d="M 434.0 1430.0 H 486.0 Q 492.0 1430.0 492.0 1436.0 V 1445.0 Q 492.0 1451.0 486.0 1451.0 H 430.0" class="edgeVertical edgeVertical"/>
<title>../lib/src/sort/sort.dart → ../lib/src/sort/sort_analyzer.dart</title>
<path d="M 434.0 1430.0 H 487.0 Q 493.0 1430.0 493.0 1436.0 V 1477.0 Q 493.0 1483.0 487.0 1483.0 H 430.0" class="edgeVertical edgeVertical"/>
<title>../lib/src/sort/sort.dart → ../lib/src/sort/sort_issue.dart</title>
<path d="M 434.0 1462.0 H 488.0 Q 494.0 1462.0 494.0 1468.0 V 1649.0 Q 494.0 1655.0 488.0 1655.0 H 430.0" class="edgeVertical edgeVertical"/>
<title>../lib/src/sort/sort_analyzer.dart → ../lib/src/models/class_visitor.dart</title>
<path d="M 434.0 1462.0 H 489.0 Q 495.0 1462.0 495.0 1468.0 V 1509.0 Q 495.0 1515.0 489.0 1515.0 H 430.0" class="edgeVertical edgeVertical"/>
<title>../lib/src/sort/sort_analyzer.dart → ../lib/src/sort/sort_members.dart</title>
<path d="M 434.0 1462.0 H 490.0 Q 496.0 1462.0 496.0 1468.0 V 1477.0 Q 496.0 1483.0 490.0 1483.0 H 430.0" class="edgeVertical edgeVertical"/>
<title>../lib/src/sort/sort_analyzer.dart → ../lib/src/sort/sort_issue.dart</title>
<path d="M 434.0 1462.0 H 491.0 Q 497.0 1462.0 497.0 1468.0 V 1617.0 Q 497.0 1623.0 491.0 1623.0 H 430.0" class="edgeVertical edgeVertical"/>
<title>../lib/src/sort/sort_analyzer.dart → ../lib/src/models/file_utils.dart</title>
<path d="M 434.0 1290.0 H 492.0 Q 498.0 1290.0 498.0 1296.0 V 1305.0 Q 498.0 1311.0 492.0 1311.0 H 430.0" class="edgeVertical edgeVertical"/>
<title>../lib/src/magic_numbers/magic_number_visitor.dart → ../lib/src/magic_numbers/magic_number_issue.dart</title>
<path d="M 434.0 1258.0 H 493.0 Q 499.0 1258.0 499.0 1264.0 V 1305.0 Q 499.0 1311.0 493.0 1311.0 H 430.0" class="edgeVertical edgeVertical"/>
<title>../lib/src/magic_numbers/magic_number_analyzer.dart → ../lib/src/magic_numbers/magic_number_issue.dart</title>
<path d="M 434.0 1258.0 H 494.0 Q 500.0 1258.0 500.0 1264.0 V 1273.0 Q 500.0 1279.0 494.0 1279.0 H 430.0" class="edgeVertical edgeVertical"/>
<title>../lib/src/magic_numbers/magic_number_analyzer.dart → ../lib/src/magic_numbers/magic_number_visitor.dart</title>
<path d="M 434.0 1258.0 H 495.0 Q 501.0 1258.0 501.0 1264.0 V 1617.0 Q 501.0 1623.0 495.0 1623.0 H 430.0" class="edgeVertical edgeVertical"/>
<title>../lib/src/magic_numbers/magic_number_analyzer.dart → ../lib/src/models/file_utils.dart</title>
<path d="M 434.0 456.0 H 496.0 Q 502.0 456.0 502.0 462.0 V 897.0 Q 502.0 903.0 496.0 903.0 H 430.0" class="edgeVertical edgeVertical"/>
<title>../lib/src/graphs/graph_format_utils.dart → ../lib/src/layers/layers_results.dart</title>
<path d="M 434.0 552.0 H 497.0 Q 503.0 552.0 503.0 558.0 V 567.0 Q 503.0 573.0 497.0 573.0 H 430.0" class="edgeVertical edgeVertical"/>
<title>../lib/src/graphs/svg_common.dart → ../lib/src/graphs/badge_model.dart</title>
<path d="M 434.0 424.0 H 498.0 Q 504.0 424.0 504.0 430.0 V 439.0 Q 504.0 445.0 498.0 445.0 H 430.0" class="edgeVertical edgeVertical"/>
<title>../lib/src/graphs/export_plantuml.dart → ../lib/src/graphs/graph_format_utils.dart</title>
<path d="M 434.0 424.0 H 499.0 Q 505.0 424.0 505.0 430.0 V 897.0 Q 505.0 903.0 499.0 903.0 H 430.0" class="edgeVertical edgeVertical"/>
<title>../lib/src/graphs/export_plantuml.dart → ../lib/src/layers/layers_results.dart</title>
<path d="M 434.0 520.0 H 500.0 Q 506.0 520.0 506.0 526.0 V 897.0 Q 506.0 903.0 500.0 903.0 H 430.0" class="edgeVertical edgeVertical"/>
<title>../lib/src/graphs/export_svg_folders.dart → ../lib/src/layers/layers_results.dart</title>
<path d="M 434.0 520.0 H 501.0 Q 507.0 520.0 507.0 526.0 V 1681.0 Q 507.0 1687.0 501.0 1687.0 H 430.0" class="edgeVertical edgeVertical"/>
<title>../lib/src/graphs/export_svg_folders.dart → ../lib/src/models/rect.dart</title>
<path d="M 434.0 520.0 H 502.0 Q 508.0 520.0 508.0 526.0 V 535.0 Q 508.0 541.0 502.0 541.0 H 430.0" class="edgeVertical edgeVertical"/>
<title>../lib/src/graphs/export_svg_folders.dart → ../lib/src/graphs/svg_common.dart</title>
<path d="M 434.0 520.0 H 503.0 Q 509.0 520.0 509.0 526.0 V 599.0 Q 509.0 605.0 503.0 605.0 H 430.0" class="edgeVertical edgeVertical"/>
<title>../lib/src/graphs/export_svg_folders.dart → ../lib/src/graphs/svg_styles.dart</title>
<path d="M 434.0 520.0 H 504.0 Q 510.0 520.0 510.0 526.0 V 567.0 Q 510.0 573.0 504.0 573.0 H 430.0" class="edgeVertical edgeVertical"/>
<title>../lib/src/graphs/export_svg_folders.dart → ../lib/src/graphs/badge_model.dart</title>
<path d="M 434.0 488.0 H 505.0 Q 511.0 488.0 511.0 494.0 V 897.0 Q 511.0 903.0 505.0 903.0 H 430.0" class="edgeVertical edgeVertical"/>
<title>../lib/src/graphs/export_svg.dart → ../lib/src/layers/layers_results.dart</title>
<path d="M 434.0 488.0 H 506.0 Q 512.0 488.0 512.0 494.0 V 535.0 Q 512.0 541.0 506.0 541.0 H 430.0" class="edgeVertical edgeVertical"/>
<title>../lib/src/graphs/export_svg.dart → ../lib/src/graphs/svg_common.dart</title>
<path d="M 434.0 488.0 H 507.0 Q 513.0 488.0 513.0 494.0 V 599.0 Q 513.0 605.0 507.0 605.0 H 430.0" class="edgeVertical edgeVertical"/>
<title>../lib/src/graphs/export_svg.dart → ../lib/src/graphs/svg_styles.dart</title>
<path d="M 434.0 488.0 H 508.0 Q 514.0 488.0 514.0 494.0 V 567.0 Q 514.0 573.0 508.0 573.0 H 430.0" class="edgeVertical edgeVertical"/>
<title>../lib/src/graphs/export_svg.dart → ../lib/src/graphs/badge_model.dart</title>
<path d="M 434.0 392.0 H 509.0 Q 515.0 392.0 515.0 398.0 V 439.0 Q 515.0 445.0 509.0 445.0 H 430.0" class="edgeVertical edgeVertical"/>
<title>../lib/src/graphs/export_mermaid.dart → ../lib/src/graphs/graph_format_utils.dart</title>
<path d="M 434.0 392.0 H 510.0 Q 516.0 392.0 516.0 398.0 V 897.0 Q 516.0 903.0 510.0 903.0 H 430.0" class="edgeVertical edgeVertical"/>
<title>../lib/src/graphs/export_mermaid.dart → ../lib/src/layers/layers_results.dart</title>
<g class="incomingBadge">
  <path d="M 424.0,381.0 L 436.0,374.0 Q 439.0,374.0 439.0,377.0 L 439.0,385.0 Q 439.0,388.0 436.0,388.0 Z" fill="#3b82f6"/>
  <text x="435.0" y="384.0" text-anchor="middle" fill="white" font-size="8" font-weight="bold">1</text><title>fcheck.dart</title></g><g class="outgoingBadge">
  <path d="M 440.0,392.0 L 428.0,385.0 Q 425.0,385.0 425.0,388.0 L 425.0,396.0 Q 425.0,399.0 428.0,399.0 Z" fill="#10b981"/>
  <text x="429.0" y="395.0" text-anchor="middle" fill="white" font-size="8" font-weight="bold">2</text><title>graph_format_utils.dart
layers_results.dart</title></g><text x="308.0" y="386.0" text-anchor="start" dominant-baseline="middle" class="nodeText">export_mermaid.dart</text>
<g class="incomingBadge">
  <path d="M 424.0,413.0 L 436.0,406.0 Q 439.0,406.0 439.0,409.0 L 439.0,417.0 Q 439.0,420.0 436.0,420.0 Z" fill="#3b82f6"/>
  <text x="435.0" y="416.0" text-anchor="middle" fill="white" font-size="8" font-weight="bold">1</text><title>fcheck.dart</title></g><g class="outgoingBadge">
  <path d="M 440.0,424.0 L 428.0,417.0 Q 425.0,417.0 425.0,420.0 L 425.0,428.0 Q 425.0,431.0 428.0,431.0 Z" fill="#10b981"/>
  <text x="429.0" y="427.0" text-anchor="middle" fill="white" font-size="8" font-weight="bold">2</text><title>graph_format_utils.dart
layers_results.dart</title></g><text x="308.0" y="418.0" text-anchor="start" dominant-baseline="middle" class="nodeText">export_plantuml.dart</text>
<g class="incomingBadge">
  <path d="M 424.0,445.0 L 436.0,438.0 Q 439.0,438.0 439.0,441.0 L 439.0,449.0 Q 439.0,452.0 436.0,452.0 Z" fill="#3b82f6"/>
  <text x="435.0" y="448.0" text-anchor="middle" fill="white" font-size="8" font-weight="bold">2</text><title>export_mermaid.dart
export_plantuml.dart</title></g><g class="outgoingBadge">
  <path d="M 440.0,456.0 L 428.0,449.0 Q 425.0,449.0 425.0,452.0 L 425.0,460.0 Q 425.0,463.0 428.0,463.0 Z" fill="#10b981"/>
  <text x="429.0" y="459.0" text-anchor="middle" fill="white" font-size="8" font-weight="bold">1</text><title>layers_results.dart</title></g><text x="308.0" y="450.0" text-anchor="start" dominant-baseline="middle" class="nodeText">graph_format_utils.dart</text>
<g class="incomingBadge">
  <path d="M 424.0,477.0 L 436.0,470.0 Q 439.0,470.0 439.0,473.0 L 439.0,481.0 Q 439.0,484.0 436.0,484.0 Z" fill="#3b82f6"/>
  <text x="435.0" y="480.0" text-anchor="middle" fill="white" font-size="8" font-weight="bold">1</text><title>fcheck.dart</title></g><g class="outgoingBadge">
  <path d="M 440.0,488.0 L 428.0,481.0 Q 425.0,481.0 425.0,484.0 L 425.0,492.0 Q 425.0,495.0 428.0,495.0 Z" fill="#10b981"/>
  <text x="429.0" y="491.0" text-anchor="middle" fill="white" font-size="8" font-weight="bold">4</text><title>badge_model.dart
layers_results.dart
svg_common.dart
svg_styles.dart</title></g><text x="308.0" y="482.0" text-anchor="start" dominant-baseline="middle" class="nodeText">export_svg.dart</text>
<g class="incomingBadge">
  <path d="M 424.0,509.0 L 436.0,502.0 Q 439.0,502.0 439.0,505.0 L 439.0,513.0 Q 439.0,516.0 436.0,516.0 Z" fill="#3b82f6"/>
  <text x="435.0" y="512.0" text-anchor="middle" fill="white" font-size="8" font-weight="bold">1</text><title>fcheck.dart</title></g><g class="outgoingBadge">
  <path d="M 440.0,520.0 L 428.0,513.0 Q 425.0,513.0 425.0,516.0 L 425.0,524.0 Q 425.0,527.0 428.0,527.0 Z" fill="#10b981"/>
  <text x="429.0" y="523.0" text-anchor="middle" fill="white" font-size="8" font-weight="bold">5</text><title>badge_model.dart
layers_results.dart
rect.dart
svg_common.dart
svg_styles.dart</title></g><text x="308.0" y="514.0" text-anchor="start" dominant-baseline="middle" class="nodeText">export_svg_folders.dart</text>
<g class="incomingBadge">
  <path d="M 424.0,541.0 L 436.0,534.0 Q 439.0,534.0 439.0,537.0 L 439.0,545.0 Q 439.0,548.0 436.0,548.0 Z" fill="#3b82f6"/>
  <text x="435.0" y="544.0" text-anchor="middle" fill="white" font-size="8" font-weight="bold">2</text><title>export_svg.dart
export_svg_folders.dart</title></g><g class="outgoingBadge">
  <path d="M 440.0,552.0 L 428.0,545.0 Q 425.0,545.0 425.0,548.0 L 425.0,556.0 Q 425.0,559.0 428.0,559.0 Z" fill="#10b981"/>
  <text x="429.0" y="555.0" text-anchor="middle" fill="white" font-size="8" font-weight="bold">1</text><title>badge_model.dart</title></g><text x="308.0" y="546.0" text-anchor="start" dominant-baseline="middle" class="nodeText">svg_common.dart</text>
<g class="incomingBadge">
  <path d="M 424.0,573.0 L 436.0,566.0 Q 439.0,566.0 439.0,569.0 L 439.0,577.0 Q 439.0,580.0 436.0,580.0 Z" fill="#3b82f6"/>
  <text x="435.0" y="576.0" text-anchor="middle" fill="white" font-size="8" font-weight="bold">3</text><title>export_svg.dart
export_svg_folders.dart
svg_common.dart</title></g><text x="308.0" y="578.0" text-anchor="start" dominant-baseline="middle" class="nodeText">badge_model.dart</text>
<g class="incomingBadge">
  <path d="M 424.0,605.0 L 436.0,598.0 Q 439.0,598.0 439.0,601.0 L 439.0,609.0 Q 439.0,612.0 436.0,612.0 Z" fill="#3b82f6"/>
  <text x="435.0" y="608.0" text-anchor="middle" fill="white" font-size="8" font-weight="bold">2</text><title>export_svg.dart
export_svg_folders.dart</title></g><text x="308.0" y="610.0" text-anchor="start" dominant-baseline="middle" class="nodeText">svg_styles.dart</text>
<g class="incomingBadge">
  <path d="M 424.0,1623.0 L 436.0,1616.0 Q 439.0,1616.0 439.0,1619.0 L 439.0,1627.0 Q 439.0,1630.0 436.0,1630.0 Z" fill="#3b82f6"/>
  <text x="435.0" y="1626.0" text-anchor="middle" fill="white" font-size="8" font-weight="bold">5</text><title>fcheck.dart
hardcoded_string_analyzer.dart
layers_analyzer.dart
magic_number_analyzer.dart
sort_analyzer.dart</title></g><text x="308.0" y="1628.0" text-anchor="start" dominant-baseline="middle" class="nodeText">file_utils.dart</text>
<g class="incomingBadge">
  <path d="M 424.0,1655.0 L 436.0,1648.0 Q 439.0,1648.0 439.0,1651.0 L 439.0,1659.0 Q 439.0,1662.0 436.0,1662.0 Z" fill="#3b82f6"/>
  <text x="435.0" y="1658.0" text-anchor="middle" fill="white" font-size="8" font-weight="bold">2</text><title>sort.dart
sort_analyzer.dart</title></g><text x="308.0" y="1660.0" text-anchor="start" dominant-baseline="middle" class="nodeText">class_visitor.dart</text>
<g class="incomingBadge">
  <path d="M 424.0,1687.0 L 436.0,1680.0 Q 439.0,1680.0 439.0,1683.0 L 439.0,1691.0 Q 439.0,1694.0 436.0,1694.0 Z" fill="#3b82f6"/>
  <text x="435.0" y="1690.0" text-anchor="middle" fill="white" font-size="8" font-weight="bold">1</text><title>export_svg_folders.dart</title></g><text x="308.0" y="1692.0" text-anchor="start" dominant-baseline="middle" class="nodeText">rect.dart</text>
<g class="incomingBadge">
  <path d="M 424.0,1719.0 L 436.0,1712.0 Q 439.0,1712.0 439.0,1715.0 L 439.0,1723.0 Q 439.0,1726.0 436.0,1726.0 Z" fill="#3b82f6"/>
  <text x="435.0" y="1722.0" text-anchor="middle" fill="white" font-size="8" font-weight="bold">1</text><title>fcheck.dart</title></g><text x="308.0" y="1724.0" text-anchor="start" dominant-baseline="middle" class="nodeText">version.dart</text>
<g class="incomingBadge">
  <path d="M 424.0,871.0 L 436.0,864.0 Q 439.0,864.0 439.0,867.0 L 439.0,875.0 Q 439.0,878.0 436.0,878.0 Z" fill="#3b82f6"/>
  <text x="435.0" y="874.0" text-anchor="middle" fill="white" font-size="8" font-weight="bold">1</text><title>fcheck.dart</title></g><g class="outgoingBadge">
  <path d="M 440.0,882.0 L 428.0,875.0 Q 425.0,875.0 425.0,878.0 L 425.0,886.0 Q 425.0,889.0 428.0,889.0 Z" fill="#10b981"/>
  <text x="429.0" y="885.0" text-anchor="middle" fill="white" font-size="8" font-weight="bold">4</text><title>file_utils.dart
layers_issue.dart
layers_results.dart
layers_visitor.dart</title></g><text x="308.0" y="876.0" text-anchor="start" dominant-baseline="middle" class="nodeText">layers_analyzer.dart</text>
<g class="incomingBadge">
  <path d="M 424.0,903.0 L 436.0,896.0 Q 439.0,896.0 439.0,899.0 L 439.0,907.0 Q 439.0,910.0 436.0,910.0 Z" fill="#3b82f6"/>
  <text x="435.0" y="906.0" text-anchor="middle" fill="white" font-size="8" font-weight="bold">7</text><title>export_mermaid.dart
export_plantuml.dart
export_svg.dart
export_svg_folders.dart
fcheck.dart
graph_format_utils.dart
layers_analyzer.dart</title></g><g class="outgoingBadge">
  <path d="M 440.0,914.0 L 428.0,907.0 Q 425.0,907.0 425.0,910.0 L 425.0,918.0 Q 425.0,921.0 428.0,921.0 Z" fill="#10b981"/>
  <text x="429.0" y="917.0" text-anchor="middle" fill="white" font-size="8" font-weight="bold">1</text><title>layers_issue.dart</title></g><text x="308.0" y="908.0" text-anchor="start" dominant-baseline="middle" class="nodeText">layers_results.dart</text>
<g class="incomingBadge">
  <path d="M 424.0,935.0 L 436.0,928.0 Q 439.0,928.0 439.0,931.0 L 439.0,939.0 Q 439.0,942.0 436.0,942.0 Z" fill="#3b82f6"/>
  <text x="435.0" y="938.0" text-anchor="middle" fill="white" font-size="8" font-weight="bold">3</text><title>layers_analyzer.dart
layers_results.dart
project_metrics.dart</title></g><text x="308.0" y="940.0" text-anchor="start" dominant-baseline="middle" class="nodeText">layers_issue.dart</text>
<g class="incomingBadge">
  <path d="M 424.0,967.0 L 436.0,960.0 Q 439.0,960.0 439.0,963.0 L 439.0,971.0 Q 439.0,974.0 436.0,974.0 Z" fill="#3b82f6"/>
  <text x="435.0" y="970.0" text-anchor="middle" fill="white" font-size="8" font-weight="bold">1</text><title>layers_analyzer.dart</title></g><text x="308.0" y="972.0" text-anchor="start" dominant-baseline="middle" class="nodeText">layers_visitor.dart</text>
<g class="incomingBadge">
  <path d="M 424.0,713.0 L 436.0,706.0 Q 439.0,706.0 439.0,709.0 L 439.0,717.0 Q 439.0,720.0 436.0,720.0 Z" fill="#3b82f6"/>
  <text x="435.0" y="716.0" text-anchor="middle" fill="white" font-size="8" font-weight="bold">1</text><title>fcheck.dart</title></g><g class="outgoingBadge">
  <path d="M 440.0,724.0 L 428.0,717.0 Q 425.0,717.0 425.0,720.0 L 425.0,728.0 Q 425.0,731.0 428.0,731.0 Z" fill="#10b981"/>
  <text x="429.0" y="727.0" text-anchor="middle" fill="white" font-size="8" font-weight="bold">5</text><title>file_metrics.dart
hardcoded_string_issue.dart
layers_issue.dart
magic_number_issue.dart
sort.dart</title></g><text x="308.0" y="718.0" text-anchor="start" dominant-baseline="middle" class="nodeText">project_metrics.dart</text>
<g class="incomingBadge">
  <path d="M 424.0,745.0 L 436.0,738.0 Q 439.0,738.0 439.0,741.0 L 439.0,749.0 Q 439.0,752.0 436.0,752.0 Z" fill="#3b82f6"/>
  <text x="435.0" y="748.0" text-anchor="middle" fill="white" font-size="8" font-weight="bold">2</text><title>fcheck.dart
project_metrics.dart</title></g><text x="308.0" y="750.0" text-anchor="start" dominant-baseline="middle" class="nodeText">file_metrics.dart</text>
<g class="incomingBadge">
  <path d="M 424.0,1075.0 L 436.0,1068.0 Q 439.0,1068.0 439.0,1071.0 L 439.0,1079.0 Q 439.0,1082.0 436.0,1082.0 Z" fill="#3b82f6"/>
  <text x="435.0" y="1078.0" text-anchor="middle" fill="white" font-size="8" font-weight="bold">1</text><title>fcheck.dart</title></g><g class="outgoingBadge">
  <path d="M 440.0,1086.0 L 428.0,1079.0 Q 425.0,1079.0 425.0,1082.0 L 425.0,1090.0 Q 425.0,1093.0 428.0,1093.0 Z" fill="#10b981"/>
  <text x="429.0" y="1089.0" text-anchor="middle" fill="white" font-size="8" font-weight="bold">3</text><title>file_utils.dart
hardcoded_string_issue.dart
hardcoded_string_visitor.dart</title></g><text x="308.0" y="1080.0" text-anchor="start" dominant-baseline="middle" class="nodeText">hardcoded_string_analyzer.dart</text>
<g class="incomingBadge">
  <path d="M 424.0,1107.0 L 436.0,1100.0 Q 439.0,1100.0 439.0,1103.0 L 439.0,1111.0 Q 439.0,1114.0 436.0,1114.0 Z" fill="#3b82f6"/>
  <text x="435.0" y="1110.0" text-anchor="middle" fill="white" font-size="8" font-weight="bold">1</text><title>hardcoded_string_analyzer.dart</title></g><g class="outgoingBadge">
  <path d="M 440.0,1118.0 L 428.0,1111.0 Q 425.0,1111.0 425.0,1114.0 L 425.0,1122.0 Q 425.0,1125.0 428.0,1125.0 Z" fill="#10b981"/>
  <text x="429.0" y="1121.0" text-anchor="middle" fill="white" font-size="8" font-weight="bold">1</text><title>hardcoded_string_issue.dart</title></g><text x="308.0" y="1112.0" text-anchor="start" dominant-baseline="middle" class="nodeText">hardcoded_string_visitor.dart</text>
<g class="incomingBadge">
  <path d="M 424.0,1139.0 L 436.0,1132.0 Q 439.0,1132.0 439.0,1135.0 L 439.0,1143.0 Q 439.0,1146.0 436.0,1146.0 Z" fill="#3b82f6"/>
  <text x="435.0" y="1142.0" text-anchor="middle" fill="white" font-size="8" font-weight="bold">3</text><title>hardcoded_string_analyzer.dart
hardcoded_string_visitor.dart
project_metrics.dart</title></g><text x="308.0" y="1144.0" text-anchor="start" dominant-baseline="middle" class="nodeText">hardcoded_string_issue.dart</text>
<g class="incomingBadge">
  <path d="M 424.0,1247.0 L 436.0,1240.0 Q 439.0,1240.0 439.0,1243.0 L 439.0,1251.0 Q 439.0,1254.0 436.0,1254.0 Z" fill="#3b82f6"/>
  <text x="435.0" y="1250.0" text-anchor="middle" fill="white" font-size="8" font-weight="bold">1</text><title>fcheck.dart</title></g><g class="outgoingBadge">
  <path d="M 440.0,1258.0 L 428.0,1251.0 Q 425.0,1251.0 425.0,1254.0 L 425.0,1262.0 Q 425.0,1265.0 428.0,1265.0 Z" fill="#10b981"/>
  <text x="429.0" y="1261.0" text-anchor="middle" fill="white" font-size="8" font-weight="bold">3</text><title>file_utils.dart
magic_number_issue.dart
magic_number_visitor.dart</title></g><text x="308.0" y="1252.0" text-anchor="start" dominant-baseline="middle" class="nodeText">magic_number_analyzer.dart</text>
<g class="incomingBadge">
  <path d="M 424.0,1279.0 L 436.0,1272.0 Q 439.0,1272.0 439.0,1275.0 L 439.0,1283.0 Q 439.0,1286.0 436.0,1286.0 Z" fill="#3b82f6"/>
  <text x="435.0" y="1282.0" text-anchor="middle" fill="white" font-size="8" font-weight="bold">1</text><title>magic_number_analyzer.dart</title></g><g class="outgoingBadge">
  <path d="M 440.0,1290.0 L 428.0,1283.0 Q 425.0,1283.0 425.0,1286.0 L 425.0,1294.0 Q 425.0,1297.0 428.0,1297.0 Z" fill="#10b981"/>
  <text x="429.0" y="1293.0" text-anchor="middle" fill="white" font-size="8" font-weight="bold">1</text><title>magic_number_issue.dart</title></g><text x="308.0" y="1284.0" text-anchor="start" dominant-baseline="middle" class="nodeText">magic_number_visitor.dart</text>
<g class="incomingBadge">
  <path d="M 424.0,1311.0 L 436.0,1304.0 Q 439.0,1304.0 439.0,1307.0 L 439.0,1315.0 Q 439.0,1318.0 436.0,1318.0 Z" fill="#3b82f6"/>
  <text x="435.0" y="1314.0" text-anchor="middle" fill="white" font-size="8" font-weight="bold">3</text><title>magic_number_analyzer.dart
magic_number_visitor.dart
project_metrics.dart</title></g><text x="308.0" y="1316.0" text-anchor="start" dominant-baseline="middle" class="nodeText">magic_number_issue.dart</text>
<g class="incomingBadge">
  <path d="M 424.0,1419.0 L 436.0,1412.0 Q 439.0,1412.0 439.0,1415.0 L 439.0,1423.0 Q 439.0,1426.0 436.0,1426.0 Z" fill="#3b82f6"/>
  <text x="435.0" y="1422.0" text-anchor="middle" fill="white" font-size="8" font-weight="bold">2</text><title>fcheck.dart
project_metrics.dart</title></g><g class="outgoingBadge">
  <path d="M 440.0,1430.0 L 428.0,1423.0 Q 425.0,1423.0 425.0,1426.0 L 425.0,1434.0 Q 425.0,1437.0 428.0,1437.0 Z" fill="#10b981"/>
  <text x="429.0" y="1433.0" text-anchor="middle" fill="white" font-size="8" font-weight="bold">4</text><title>class_visitor.dart
sort_analyzer.dart
sort_issue.dart
sort_members.dart</title></g><text x="308.0" y="1424.0" text-anchor="start" dominant-baseline="middle" class="nodeText">sort.dart</text>
<g class="incomingBadge">
  <path d="M 424.0,1451.0 L 436.0,1444.0 Q 439.0,1444.0 439.0,1447.0 L 439.0,1455.0 Q 439.0,1458.0 436.0,1458.0 Z" fill="#3b82f6"/>
  <text x="435.0" y="1454.0" text-anchor="middle" fill="white" font-size="8" font-weight="bold">1</text><title>sort.dart</title></g><g class="outgoingBadge">
  <path d="M 440.0,1462.0 L 428.0,1455.0 Q 425.0,1455.0 425.0,1458.0 L 425.0,1466.0 Q 425.0,1469.0 428.0,1469.0 Z" fill="#10b981"/>
  <text x="429.0" y="1465.0" text-anchor="middle" fill="white" font-size="8" font-weight="bold">4</text><title>class_visitor.dart
file_utils.dart
sort_issue.dart
sort_members.dart</title></g><text x="308.0" y="1456.0" text-anchor="start" dominant-baseline="middle" class="nodeText">sort_analyzer.dart</text>
<g class="incomingBadge">
  <path d="M 424.0,1483.0 L 436.0,1476.0 Q 439.0,1476.0 439.0,1479.0 L 439.0,1487.0 Q 439.0,1490.0 436.0,1490.0 Z" fill="#3b82f6"/>
  <text x="435.0" y="1486.0" text-anchor="middle" fill="white" font-size="8" font-weight="bold">2</text><title>sort.dart
sort_analyzer.dart</title></g><text x="308.0" y="1488.0" text-anchor="start" dominant-baseline="middle" class="nodeText">sort_issue.dart</text>
<g class="incomingBadge">
  <path d="M 424.0,1515.0 L 436.0,1508.0 Q 439.0,1508.0 439.0,1511.0 L 439.0,1519.0 Q 439.0,1522.0 436.0,1522.0 Z" fill="#3b82f6"/>
  <text x="435.0" y="1518.0" text-anchor="middle" fill="white" font-size="8" font-weight="bold">2</text><title>sort.dart
sort_analyzer.dart</title></g><text x="308.0" y="1520.0" text-anchor="start" dominant-baseline="middle" class="nodeText">sort_members.dart</text>
<g class="incomingBadge">
  <path d="M 456.0,239.0 L 468.0,232.0 Q 471.0,232.0 471.0,235.0 L 471.0,243.0 Q 471.0,246.0 468.0,246.0 Z" fill="#3b82f6"/>
  <text x="467.0" y="242.0" text-anchor="middle" fill="white" font-size="8" font-weight="bold">1</text><title>fcheck.dart</title></g><g class="outgoingBadge">
  <path d="M 472.0,250.0 L 460.0,243.0 Q 457.0,243.0 457.0,246.0 L 457.0,254.0 Q 457.0,257.0 460.0,257.0 Z" fill="#10b981"/>
  <text x="461.0" y="253.0" text-anchor="middle" fill="white" font-size="8" font-weight="bold">8</text><title>file_metrics.dart
file_utils.dart
hardcoded_string_analyzer.dart
layers_analyzer.dart
layers_results.dart
magic_number_analyzer.dart
project_metrics.dart
sort.dart</title></g><text x="290.0" y="244.0" text-anchor="start" dominant-baseline="middle" class="nodeText">fcheck.dart</text>
<g class="outgoingBadge">
  <path d="M 504.0,108.0 L 492.0,101.0 Q 489.0,101.0 489.0,104.0 L 489.0,112.0 Q 489.0,115.0 492.0,115.0 Z" fill="#10b981"/>
  <text x="493.0" y="111.0" text-anchor="middle" fill="white" font-size="8" font-weight="bold">6</text><title>export_mermaid.dart
export_plantuml.dart
export_svg.dart
export_svg_folders.dart
fcheck.dart
version.dart</title></g><text x="272.0" y="102.0" text-anchor="start" dominant-baseline="middle" class="nodeText">fcheck.dart</text>
<g class="folderTitleLayer">
<text x="280.0" y="75.0" class="layerTitle">.</text>
<text x="289.0" y="165.0" class="layerTitle">  ..</text>
<text x="298.0" y="217.0" class="layerTitle">    lib</text>
<text x="307.0" y="307.0" class="layerTitle">      src</text>
<text x="316.0" y="359.0" class="layerTitle">        graphs</text>
<text x="316.0" y="1601.0" class="layerTitle">        models</text>
<text x="316.0" y="849.0" class="layerTitle">        layers</text>
<text x="316.0" y="691.0" class="layerTitle">        metrics</text>
<text x="316.0" y="1053.0" class="layerTitle">        hardcoded_strings</text>
<text x="316.0" y="1225.0" class="layerTitle">        magic_numbers</text>
<text x="316.0" y="1397.0" class="layerTitle">        sort</text>
</g>
</svg>
