<?xml version="1.0" encoding="UTF-8"?>
<svg width="1920" height="540" viewBox="0 0 1920 540" xmlns="http://www.w3.org/2000/svg" font-family="Arial, Helvetica, sans-serif">
<defs>
  <filter id="whiteShadow" x="-20%" y="-20%" width="140%" height="140%">
    <feGaussianBlur in="SourceAlpha" stdDeviation="3"/>
    <feOffset dx="0" dy="0" result="offsetblur"/>
    <feFlood flood-color="white" flood-opacity="1"/>
    <feComposite in2="offsetblur" operator="in"/>
    <feMerge>
      <feMergeNode/>
      <feMergeNode in="SourceGraphic"/>
    </feMerge>
  </filter>
  <filter id="outlineWhite">
    <feMorphology in="SourceAlpha" result="DILATED" operator="dilate" radius="2"/>
    <feFlood flood-color="white" flood-opacity="0.5" result="WHITE"/>
    <feComposite in="WHITE" in2="DILATED" operator="in" result="OUTLINE"/>
    <feMerge>
      <feMergeNode in="OUTLINE"/>
      <feMergeNode in="SourceGraphic"/>
    </feMerge>
  </filter>
  <linearGradient id="edgeGradient" x1="0%" y1="0%" x2="100%" y2="0%">
    <stop offset="0%" stop-color="green" stop-opacity="0.3"/>
    <stop offset="100%" stop-color="#007bff" stop-opacity="0.3"/>
  </linearGradient>
</defs>
<style>
  .layerBackground { fill: #f8f9fa; stroke: #dee2e6; stroke-width: 1; stroke-dasharray: 4,4; }
  .layerTitle { fill: #6c757d; font-size: 14px; font-weight: bold; text-anchor: middle; }
  .nodeRect { fill: #ffffff; stroke: #343a40; stroke-width: 2; rx: 6; ry: 6; cursor: pointer; filter: url(#whiteShadow); }
  .nodeRect:hover { stroke: #007bff; stroke-width: 3; }
  .nodeText { fill: #212529; font-size: 14px; font-weight: 900; text-anchor: middle; dominant-baseline: middle; filter: url(#outlineWhite); }
  .edge { fill: none; stroke: url(#edgeGradient); }
  .edge:hover { stroke: #007bff; stroke-width: 3; opacity: 1.0; }
  .cycleEdge { stroke: red; stroke-width: 5; opacity: 0.9; }
  .badge { font-size: 10px; font-weight: bold; fill: white; text-anchor: middle; dominant-baseline: middle; cursor: help; }
  .badge:hover { opacity: 0.8; }
</style>
<rect width="100%" height="100%" fill="white"/>
<rect x="25.0" y="50" width="270.0" height="440" rx="8" class="layerBackground"/>
<text x="160.0" y="75" class="layerTitle">1</text>
<rect x="345.0" y="50" width="270.0" height="440" rx="8" class="layerBackground"/>
<text x="480.0" y="75" class="layerTitle">2</text>
<rect x="665.0" y="50" width="270.0" height="440" rx="8" class="layerBackground"/>
<text x="800.0" y="75" class="layerTitle">3</text>
<rect x="985.0" y="50" width="270.0" height="440" rx="8" class="layerBackground"/>
<text x="1120.0" y="75" class="layerTitle">4</text>
<rect x="1305.0" y="50" width="270.0" height="440" rx="8" class="layerBackground"/>
<text x="1440.0" y="75" class="layerTitle">5</text>
<rect x="1625.0" y="50" width="270.0" height="440" rx="8" class="layerBackground"/>
<text x="1760.0" y="75" class="layerTitle">6</text>
<rect x="50.0" y="90.0" width="220" height="50" class="nodeRect"/>
<rect x="370.0" y="90.0" width="220" height="50" class="nodeRect"/>
<rect x="370.0" y="160.0" width="220" height="50" class="nodeRect"/>
<rect x="370.0" y="230.0" width="220" height="50" class="nodeRect"/>
<rect x="370.0" y="300.0" width="220" height="50" class="nodeRect"/>
<rect x="370.0" y="370.0" width="220" height="50" class="nodeRect"/>
<rect x="370.0" y="440.0" width="220" height="50" class="nodeRect"/>
<rect x="690.0" y="90.0" width="220" height="50" class="nodeRect"/>
<rect x="690.0" y="160.0" width="220" height="50" class="nodeRect"/>
<rect x="690.0" y="230.0" width="220" height="50" class="nodeRect"/>
<rect x="690.0" y="300.0" width="220" height="50" class="nodeRect"/>
<rect x="690.0" y="370.0" width="220" height="50" class="nodeRect"/>
<rect x="690.0" y="440.0" width="220" height="50" class="nodeRect"/>
<rect x="1010.0" y="90.0" width="220" height="50" class="nodeRect"/>
<rect x="1010.0" y="160.0" width="220" height="50" class="nodeRect"/>
<rect x="1010.0" y="230.0" width="220" height="50" class="nodeRect"/>
<rect x="1010.0" y="300.0" width="220" height="50" class="nodeRect"/>
<rect x="1010.0" y="370.0" width="220" height="50" class="nodeRect"/>
<rect x="1330.0" y="90.0" width="220" height="50" class="nodeRect"/>
<rect x="1330.0" y="160.0" width="220" height="50" class="nodeRect"/>
<rect x="1330.0" y="230.0" width="220" height="50" class="nodeRect"/>
<rect x="1650.0" y="90.0" width="220" height="50" class="nodeRect"/>
<rect x="1650.0" y="160.0" width="220" height="50" class="nodeRect"/>
<rect x="1650.0" y="230.0" width="220" height="50" class="nodeRect"/>
<rect x="1650.0" y="300.0" width="220" height="50" class="nodeRect"/>
<path d="M 258.0 128.0 C 308.0 128.0, 332.0 242.0, 382.0 242.0" class="edge"/>
<path d="M 258.0 128.0 C 308.0 128.0, 332.0 312.0, 382.0 312.0" class="edge"/>
<path d="M 258.0 128.0 C 308.0 128.0, 332.0 382.0, 382.0 382.0" class="edge"/>
<path d="M 258.0 128.0 C 308.0 128.0, 332.0 172.0, 382.0 172.0" class="edge"/>
<path d="M 258.0 128.0 C 308.0 128.0, 332.0 102.0, 382.0 102.0" class="edge"/>
<path d="M 258.0 128.0 C 308.0 128.0, 332.0 452.0, 382.0 452.0" class="edge"/>
<path d="M 578.0 128.0 C 628.0 128.0, 972.0 102.0, 1022.0 102.0" class="edge"/>
<path d="M 578.0 128.0 C 628.0 128.0, 972.0 242.0, 1022.0 242.0" class="edge"/>
<path d="M 578.0 128.0 C 628.0 128.0, 652.0 382.0, 702.0 382.0" class="edge"/>
<path d="M 578.0 128.0 C 628.0 128.0, 652.0 242.0, 702.0 242.0" class="edge"/>
<path d="M 578.0 128.0 C 628.0 128.0, 972.0 172.0, 1022.0 172.0" class="edge"/>
<path d="M 578.0 128.0 C 628.0 128.0, 652.0 312.0, 702.0 312.0" class="edge"/>
<path d="M 578.0 128.0 C 628.0 128.0, 1612.0 102.0, 1662.0 102.0" class="edge"/>
<path d="M 898.0 338.0 C 948.0 338.0, 1292.0 102.0, 1342.0 102.0" class="edge"/>
<path d="M 898.0 338.0 C 948.0 338.0, 1292.0 172.0, 1342.0 172.0" class="edge"/>
<path d="M 898.0 338.0 C 948.0 338.0, 972.0 242.0, 1022.0 242.0" class="edge"/>
<path d="M 898.0 338.0 C 948.0 338.0, 972.0 172.0, 1022.0 172.0" class="edge"/>
<path d="M 1218.0 338.0 C 1268.0 338.0, 1292.0 102.0, 1342.0 102.0" class="edge"/>
<path d="M 898.0 408.0 C 948.0 408.0, 1292.0 102.0, 1342.0 102.0" class="edge"/>
<path d="M 898.0 408.0 C 948.0 408.0, 972.0 312.0, 1022.0 312.0" class="edge"/>
<path d="M 898.0 408.0 C 948.0 408.0, 1612.0 102.0, 1662.0 102.0" class="edge"/>
<path d="M 1218.0 128.0 C 1268.0 128.0, 1292.0 172.0, 1342.0 172.0" class="edge"/>
<path d="M 898.0 268.0 C 948.0 268.0, 972.0 102.0, 1022.0 102.0" class="edge"/>
<path d="M 898.0 268.0 C 948.0 268.0, 1612.0 102.0, 1662.0 102.0" class="edge"/>
<path d="M 898.0 268.0 C 948.0 268.0, 1292.0 172.0, 1342.0 172.0" class="edge"/>
<path d="M 898.0 268.0 C 948.0 268.0, 972.0 382.0, 1022.0 382.0" class="edge"/>
<path d="M 1218.0 198.0 C 1268.0 198.0, 1612.0 172.0, 1662.0 172.0" class="edge"/>
<path d="M 1218.0 198.0 C 1268.0 198.0, 1612.0 312.0, 1662.0 312.0" class="edge"/>
<path d="M 1218.0 198.0 C 1268.0 198.0, 1292.0 242.0, 1342.0 242.0" class="edge"/>
<path d="M 1218.0 198.0 C 1268.0 198.0, 1612.0 242.0, 1662.0 242.0" class="edge"/>
<path d="M 1538.0 268.0 C 1588.0 268.0, 1612.0 172.0, 1662.0 172.0" class="edge"/>
<path d="M 1538.0 268.0 C 1588.0 268.0, 1612.0 312.0, 1662.0 312.0" class="edge"/>
<path d="M 1538.0 268.0 C 1588.0 268.0, 1612.0 242.0, 1662.0 242.0" class="edge"/>
<path d="M 1538.0 268.0 C 1588.0 268.0, 1612.0 102.0, 1662.0 102.0" class="edge"/>
<path d="M 898.0 128.0 C 948.0 128.0, 972.0 102.0, 1022.0 102.0" class="edge"/>
<path d="M 578.0 338.0 C 628.0 338.0, 652.0 102.0, 702.0 102.0" class="edge"/>
<path d="M 578.0 338.0 C 628.0 338.0, 972.0 102.0, 1022.0 102.0" class="edge"/>
<path d="M 578.0 198.0 C 628.0 198.0, 972.0 102.0, 1022.0 102.0" class="edge"/>
<path d="M 578.0 198.0 C 628.0 198.0, 652.0 452.0, 702.0 452.0" class="edge"/>
<path d="M 578.0 198.0 C 628.0 198.0, 652.0 172.0, 702.0 172.0" class="edge"/>
<path d="M 578.0 408.0 C 628.0 408.0, 972.0 102.0, 1022.0 102.0" class="edge"/>
<path d="M 578.0 408.0 C 628.0 408.0, 652.0 172.0, 702.0 172.0" class="edge"/>
<path d="M 578.0 268.0 C 628.0 268.0, 652.0 102.0, 702.0 102.0" class="edge"/>
<path d="M 578.0 268.0 C 628.0 268.0, 972.0 102.0, 1022.0 102.0" class="edge"/>
<g class="badge">
<circle cx="258.0" cy="128.0" r="9.0" fill="#28a745" opacity="0.85"/>
<text x="258.0" y="130.0">6</text>
<title>export_mermaid.dart\nexport_plantuml.dart\nexport_svg.dart\nexport_svg_folders.dart\nfcheck.dart\nversion.dart</title>
</g>
<text x="160.0" y="115.0" class="nodeText">fcheck.dart</text>
<g class="badge">
<circle cx="382.0" cy="102.0" r="9.0" fill="#007bff" opacity="0.85"/>
<text x="382.0" y="104.0">1</text>
<title>fcheck.dart</title>
</g>
<g class="badge">
<circle cx="578.0" cy="128.0" r="9.0" fill="#28a745" opacity="0.85"/>
<text x="578.0" y="130.0">7</text>
<title>file_metrics.dart\nfile_utils.dart\nhardcoded_string_analyzer.dart\nlayers_analyzer.dart\nlayers_results.dart\nproject_metrics.dart\nsort.dart</title>
</g>
<text x="480.0" y="115.0" class="nodeText">fcheck.dart</text>
<g class="badge">
<circle cx="382.0" cy="172.0" r="9.0" fill="#007bff" opacity="0.85"/>
<text x="382.0" y="174.0">1</text>
<title>fcheck.dart</title>
</g>
<g class="badge">
<circle cx="578.0" cy="198.0" r="9.0" fill="#28a745" opacity="0.85"/>
<text x="578.0" y="200.0">3</text>
<title>layers_results.dart\nrect.dart\nsvg_common.dart</title>
</g>
<text x="480.0" y="185.0" class="nodeText">export_svg_folders.dart</text>
<g class="badge">
<circle cx="382.0" cy="242.0" r="9.0" fill="#007bff" opacity="0.85"/>
<text x="382.0" y="244.0">1</text>
<title>fcheck.dart</title>
</g>
<g class="badge">
<circle cx="578.0" cy="268.0" r="9.0" fill="#28a745" opacity="0.85"/>
<text x="578.0" y="270.0">2</text>
<title>graph_format_utils.dart\nlayers_results.dart</title>
</g>
<text x="480.0" y="255.0" class="nodeText">export_mermaid.dart</text>
<g class="badge">
<circle cx="382.0" cy="312.0" r="9.0" fill="#007bff" opacity="0.85"/>
<text x="382.0" y="314.0">1</text>
<title>fcheck.dart</title>
</g>
<g class="badge">
<circle cx="578.0" cy="338.0" r="9.0" fill="#28a745" opacity="0.85"/>
<text x="578.0" y="340.0">2</text>
<title>graph_format_utils.dart\nlayers_results.dart</title>
</g>
<text x="480.0" y="325.0" class="nodeText">export_plantuml.dart</text>
<g class="badge">
<circle cx="382.0" cy="382.0" r="9.0" fill="#007bff" opacity="0.85"/>
<text x="382.0" y="384.0">1</text>
<title>fcheck.dart</title>
</g>
<g class="badge">
<circle cx="578.0" cy="408.0" r="9.0" fill="#28a745" opacity="0.85"/>
<text x="578.0" y="410.0">2</text>
<title>layers_results.dart\nsvg_common.dart</title>
</g>
<text x="480.0" y="395.0" class="nodeText">export_svg.dart</text>
<g class="badge">
<circle cx="382.0" cy="452.0" r="9.0" fill="#007bff" opacity="0.85"/>
<text x="382.0" y="454.0">1</text>
<title>fcheck.dart</title>
</g>
<text x="480.0" y="465.0" class="nodeText">version.dart</text>
<g class="badge">
<circle cx="702.0" cy="102.0" r="9.0" fill="#007bff" opacity="0.85"/>
<text x="702.0" y="104.0">2</text>
<title>export_mermaid.dart\nexport_plantuml.dart</title>
</g>
<g class="badge">
<circle cx="898.0" cy="128.0" r="9.0" fill="#28a745" opacity="0.85"/>
<text x="898.0" y="130.0">1</text>
<title>layers_results.dart</title>
</g>
<text x="800.0" y="115.0" class="nodeText">graph_format_utils.dart</text>
<g class="badge">
<circle cx="702.0" cy="172.0" r="9.0" fill="#007bff" opacity="0.85"/>
<text x="702.0" y="174.0">2</text>
<title>export_svg.dart\nexport_svg_folders.dart</title>
</g>
<text x="800.0" y="185.0" class="nodeText">svg_common.dart</text>
<g class="badge">
<circle cx="702.0" cy="242.0" r="9.0" fill="#007bff" opacity="0.85"/>
<text x="702.0" y="244.0">1</text>
<title>fcheck.dart</title>
</g>
<g class="badge">
<circle cx="898.0" cy="268.0" r="9.0" fill="#28a745" opacity="0.85"/>
<text x="898.0" y="270.0">4</text>
<title>file_utils.dart\nlayers_issue.dart\nlayers_results.dart\nlayers_visitor.dart</title>
</g>
<text x="800.0" y="255.0" class="nodeText">layers_analyzer.dart</text>
<g class="badge">
<circle cx="702.0" cy="312.0" r="9.0" fill="#007bff" opacity="0.85"/>
<text x="702.0" y="314.0">1</text>
<title>fcheck.dart</title>
</g>
<g class="badge">
<circle cx="898.0" cy="338.0" r="9.0" fill="#28a745" opacity="0.85"/>
<text x="898.0" y="340.0">4</text>
<title>file_metrics.dart\nhardcoded_string_issue.dart\nlayers_issue.dart\nsort.dart</title>
</g>
<text x="800.0" y="325.0" class="nodeText">project_metrics.dart</text>
<g class="badge">
<circle cx="702.0" cy="382.0" r="9.0" fill="#007bff" opacity="0.85"/>
<text x="702.0" y="384.0">1</text>
<title>fcheck.dart</title>
</g>
<g class="badge">
<circle cx="898.0" cy="408.0" r="9.0" fill="#28a745" opacity="0.85"/>
<text x="898.0" y="410.0">3</text>
<title>file_utils.dart\nhardcoded_string_issue.dart\nhardcoded_string_visitor.dart</title>
</g>
<text x="800.0" y="395.0" class="nodeText">hardcoded_string_analy...</text>
<g class="badge">
<circle cx="702.0" cy="452.0" r="9.0" fill="#007bff" opacity="0.85"/>
<text x="702.0" y="454.0">1</text>
<title>export_svg_folders.dart</title>
</g>
<text x="800.0" y="465.0" class="nodeText">rect.dart</text>
<g class="badge">
<circle cx="1022.0" cy="102.0" r="9.0" fill="#007bff" opacity="0.85"/>
<text x="1022.0" y="104.0">7</text>
<title>export_mermaid.dart\nexport_plantuml.dart\nexport_svg.dart\nexport_svg_folders.dart\nfcheck.dart\ngraph_format_utils.dart\nlayers_analyzer.dart</title>
</g>
<g class="badge">
<circle cx="1218.0" cy="128.0" r="9.0" fill="#28a745" opacity="0.85"/>
<text x="1218.0" y="130.0">1</text>
<title>layers_issue.dart</title>
</g>
<text x="1120.0" y="115.0" class="nodeText">layers_results.dart</text>
<g class="badge">
<circle cx="1022.0" cy="172.0" r="9.0" fill="#007bff" opacity="0.85"/>
<text x="1022.0" y="174.0">2</text>
<title>fcheck.dart\nproject_metrics.dart</title>
</g>
<g class="badge">
<circle cx="1218.0" cy="198.0" r="9.0" fill="#28a745" opacity="0.85"/>
<text x="1218.0" y="200.0">4</text>
<title>class_visitor.dart\nsort_analyzer.dart\nsort_issue.dart\nsort_members.dart</title>
</g>
<text x="1120.0" y="185.0" class="nodeText">sort.dart</text>
<g class="badge">
<circle cx="1022.0" cy="242.0" r="9.0" fill="#007bff" opacity="0.85"/>
<text x="1022.0" y="244.0">2</text>
<title>fcheck.dart\nproject_metrics.dart</title>
</g>
<text x="1120.0" y="255.0" class="nodeText">file_metrics.dart</text>
<g class="badge">
<circle cx="1022.0" cy="312.0" r="9.0" fill="#007bff" opacity="0.85"/>
<text x="1022.0" y="314.0">1</text>
<title>hardcoded_string_analyzer.dart</title>
</g>
<g class="badge">
<circle cx="1218.0" cy="338.0" r="9.0" fill="#28a745" opacity="0.85"/>
<text x="1218.0" y="340.0">1</text>
<title>hardcoded_string_issue.dart</title>
</g>
<text x="1120.0" y="325.0" class="nodeText">hardcoded_string_visit...</text>
<g class="badge">
<circle cx="1022.0" cy="382.0" r="9.0" fill="#007bff" opacity="0.85"/>
<text x="1022.0" y="384.0">1</text>
<title>layers_analyzer.dart</title>
</g>
<text x="1120.0" y="395.0" class="nodeText">layers_visitor.dart</text>
<g class="badge">
<circle cx="1342.0" cy="102.0" r="9.0" fill="#007bff" opacity="0.85"/>
<text x="1342.0" y="104.0">3</text>
<title>hardcoded_string_analyzer.dart\nhardcoded_string_visitor.dart\nproject_metrics.dart</title>
</g>
<text x="1440.0" y="115.0" class="nodeText">hardcoded_string_issue...</text>
<g class="badge">
<circle cx="1342.0" cy="172.0" r="9.0" fill="#007bff" opacity="0.85"/>
<text x="1342.0" y="174.0">3</text>
<title>layers_analyzer.dart\nlayers_results.dart\nproject_metrics.dart</title>
</g>
<text x="1440.0" y="185.0" class="nodeText">layers_issue.dart</text>
<g class="badge">
<circle cx="1342.0" cy="242.0" r="9.0" fill="#007bff" opacity="0.85"/>
<text x="1342.0" y="244.0">1</text>
<title>sort.dart</title>
</g>
<g class="badge">
<circle cx="1538.0" cy="268.0" r="9.0" fill="#28a745" opacity="0.85"/>
<text x="1538.0" y="270.0">4</text>
<title>class_visitor.dart\nfile_utils.dart\nsort_issue.dart\nsort_members.dart</title>
</g>
<text x="1440.0" y="255.0" class="nodeText">sort_analyzer.dart</text>
<g class="badge">
<circle cx="1662.0" cy="102.0" r="9.0" fill="#007bff" opacity="0.85"/>
<text x="1662.0" y="104.0">4</text>
<title>fcheck.dart\nhardcoded_string_analyzer.dart\nlayers_analyzer.dart\nsort_analyzer.dart</title>
</g>
<text x="1760.0" y="115.0" class="nodeText">file_utils.dart</text>
<g class="badge">
<circle cx="1662.0" cy="172.0" r="9.0" fill="#007bff" opacity="0.85"/>
<text x="1662.0" y="174.0">2</text>
<title>sort.dart\nsort_analyzer.dart</title>
</g>
<text x="1760.0" y="185.0" class="nodeText">class_visitor.dart</text>
<g class="badge">
<circle cx="1662.0" cy="242.0" r="9.0" fill="#007bff" opacity="0.85"/>
<text x="1662.0" y="244.0">2</text>
<title>sort.dart\nsort_analyzer.dart</title>
</g>
<text x="1760.0" y="255.0" class="nodeText">sort_issue.dart</text>
<g class="badge">
<circle cx="1662.0" cy="312.0" r="9.0" fill="#007bff" opacity="0.85"/>
<text x="1662.0" y="314.0">2</text>
<title>sort.dart\nsort_analyzer.dart</title>
</g>
<text x="1760.0" y="325.0" class="nodeText">sort_members.dart</text>
</svg>
