<?xml version="1.0" encoding="UTF-8"?>
<svg width="4000" height="350.0" viewBox="0 0 4000 350.0" xmlns="http://www.w3.org/2000/svg" font-family="Arial, Helvetica, sans-serif">
<defs>
  <filter id="folderShadow" x="-20%" y="-20%" width="140%" height="140%">
    <feGaussianBlur in="SourceAlpha" stdDeviation="5"/>
    <feOffset dx="2" dy="2" result="offsetblur"/>
    <feFlood flood-color="rgba(0,0,0,0.1)" flood-opacity="0.8"/>
    <feComposite in2="offsetblur" operator="in"/>
    <feMerge>
      <feMergeNode/>
      <feMergeNode in="SourceGraphic"/>
    </feMerge>
  </filter>
  <filter id="outlineWhite">
    <feMorphology in="SourceAlpha" result="DILATED" operator="dilate" radius="2"/>
    <feFlood flood-color="white" flood-opacity="0.7" result="WHITE"/>
    <feComposite in="WHITE" in2="DILATED" operator="in" result="OUTLINE"/>
    <feMerge>
      <feMergeNode in="OUTLINE"/>
      <feMergeNode in="SourceGraphic"/>
    </feMerge>
  </filter>
  <linearGradient id="folderEdgeGradient" x1="0%" y1="0%" x2="100%" y2="100%">
    <stop offset="0%" stop-color="#6c757d" stop-opacity="0.4"/>
    <stop offset="100%" stop-color="#495057" stop-opacity="0.4"/>
  </linearGradient>
</defs>
<style>
  .folderBackground { fill: #ffffff; stroke: #dee2e6; stroke-width: 2; rx: 12; ry: 12; filter: url(#folderShadow); }
  .folderBackground:hover { stroke: #007bff; stroke-width: 3; }
  .folderTitle { fill: #495057; font-size: 16px; font-weight: bold; text-anchor: middle; }
  .folderMetric { fill: #6c757d; font-size: 12px; font-weight: normal; text-anchor: middle; }
  .fileItem { fill: #212529; font-size: 12px; font-weight: normal; cursor: pointer; }
  .fileItem:hover { fill: #007bff; font-weight: bold; }
  .folderEdge { fill: none; stroke: url(#folderEdgeGradient); stroke-width: 3; }
  .folderEdge:hover { stroke: #007bff; stroke-width: 4; opacity: 1.0; }
  .folderBadge { font-size: 14px; font-weight: bold; fill: white; text-anchor: middle; dominant-baseline: middle; }
  .folderBadge:hover { opacity: 0.8; }
</style>
<rect width="100%" height="100%" fill="#f8f9fa"/>
<path d="M 350.0 105.0 C 395.0 105.0, 455.0 105.0, 500.0 105.0" class="folderEdge"/>
<title>bin → lib: fcheck.dart</title>
<path d="M 350.0 105.0 C 395.0 105.0, 905.0 175.0, 950.0 175.0" class="folderEdge"/>
<title>bin → graphs: export_mermaid.dart, export_plantuml.dart, export_svg.dart, export_svg_folders.dart</title>
<path d="M 350.0 105.0 C 395.0 105.0, 1355.0 157.5, 1400.0 157.5" class="folderEdge"/>
<title>bin → src: version.dart</title>
<path d="M 800.0 105.0 C 845.0 105.0, 1805.0 122.5, 1850.0 122.5" class="folderEdge"/>
<title>lib → metrics: project_metrics.dart</title>
<path d="M 800.0 105.0 C 845.0 105.0, 1355.0 157.5, 1400.0 157.5" class="folderEdge"/>
<title>lib → src: analyzer_engine.dart, utils.dart</title>
<path d="M 800.0 105.0 C 845.0 105.0, 2705.0 140.0, 2750.0 140.0" class="folderEdge"/>
<title>lib → hardcoded_strings: hardcoded_string_issue.dart, hardcoded_string_analyzer.dart, hardcoded_string_visitor.dart</title>
<path d="M 800.0 105.0 C 845.0 105.0, 2255.0 157.5, 2300.0 157.5" class="folderEdge"/>
<title>lib → sort: sort.dart</title>
<path d="M 2150.0 122.5 C 2195.0 122.5, 2705.0 140.0, 2750.0 140.0" class="folderEdge"/>
<title>metrics → hardcoded_strings: hardcoded_string_issue.dart</title>
<path d="M 2150.0 122.5 C 2195.0 122.5, 3155.0 157.5, 3200.0 157.5" class="folderEdge"/>
<title>metrics → layers: layers_issue.dart</title>
<path d="M 2150.0 122.5 C 2195.0 122.5, 2255.0 157.5, 2300.0 157.5" class="folderEdge"/>
<title>metrics → sort: sort.dart</title>
<path d="M 3050.0 140.0 C 3095.0 140.0, 1355.0 157.5, 1400.0 157.5" class="folderEdge"/>
<title>hardcoded_strings → src: utils.dart</title>
<path d="M 3500.0 157.5 C 3545.0 157.5, 1355.0 157.5, 1400.0 157.5" class="folderEdge"/>
<title>layers → src: utils.dart</title>
<path d="M 2600.0 157.5 C 2645.0 157.5, 1355.0 157.5, 1400.0 157.5" class="folderEdge"/>
<title>sort → src: class_visitor.dart, class_visitor.dart, utils.dart</title>
<path d="M 1700.0 157.5 C 1745.0 157.5, 3155.0 157.5, 3200.0 157.5" class="folderEdge"/>
<title>src → layers: layers_results.dart, layers_analyzer.dart</title>
<path d="M 1700.0 157.5 C 1745.0 157.5, 1805.0 122.5, 1850.0 122.5" class="folderEdge"/>
<title>src → metrics: file_metrics.dart, project_metrics.dart</title>
<path d="M 1700.0 157.5 C 1745.0 157.5, 2705.0 140.0, 2750.0 140.0" class="folderEdge"/>
<title>src → hardcoded_strings: hardcoded_string_analyzer.dart</title>
<path d="M 1700.0 157.5 C 1745.0 157.5, 2255.0 157.5, 2300.0 157.5" class="folderEdge"/>
<title>src → sort: sort.dart</title>
<path d="M 1250.0 175.0 C 1295.0 175.0, 3155.0 157.5, 3200.0 157.5" class="folderEdge"/>
<title>graphs → layers: layers_results.dart, layers_results.dart, layers_results.dart, layers_results.dart, layers_results.dart</title>
<path d="M 1250.0 175.0 C 1295.0 175.0, 3605.0 105.0, 3650.0 105.0" class="folderEdge"/>
<title>graphs → models: rect.dart</title>
<rect x="50.0" y="50.0" width="300.0" height="110.0" rx="12" ry="12" class="folderBackground"/>
<text x="200.0" y="75.0" class="folderTitle">bin</text>
<text x="200.0" y="95.0" class="folderMetric">↓0 ↑6 dependencies</text>
<text x="70.0" y="110.0" class="fileItem">fcheck.dart</text>
<circle cx="85.0" cy="110.0" r="8" fill="#28a745" opacity="0.7"/>
<text x="85.0" y="113.0" class="folderBadge" font-size="10">6</text>
<title>Outgoing dependencies: 6</title>
<rect x="500.0" y="50.0" width="300.0" height="110.0" rx="12" ry="12" class="folderBackground"/>
<text x="650.0" y="75.0" class="folderTitle">lib</text>
<text x="650.0" y="95.0" class="folderMetric">↓1 ↑7 dependencies</text>
<text x="520.0" y="110.0" class="fileItem">fcheck.dart</text>
<circle cx="505.0" cy="110.0" r="8" fill="#007bff" opacity="0.7"/>
<text x="505.0" y="113.0" class="folderBadge" font-size="10">1</text>
<title>Incoming dependencies: 1</title>
<circle cx="535.0" cy="110.0" r="8" fill="#28a745" opacity="0.7"/>
<text x="535.0" y="113.0" class="folderBadge" font-size="10">7</text>
<title>Outgoing dependencies: 7</title>
<rect x="950.0" y="50.0" width="300.0" height="250.0" rx="12" ry="12" class="folderBackground"/>
<text x="1100.0" y="75.0" class="folderTitle">graphs</text>
<text x="1100.0" y="95.0" class="folderMetric">↓4 ↑6 dependencies</text>
<text x="970.0" y="110.0" class="fileItem">graph_format_utils.dart</text>
<circle cx="955.0" cy="110.0" r="8" fill="#007bff" opacity="0.7"/>
<text x="955.0" y="113.0" class="folderBadge" font-size="10">2</text>
<title>Incoming dependencies: 2</title>
<circle cx="985.0" cy="110.0" r="8" fill="#28a745" opacity="0.7"/>
<text x="985.0" y="113.0" class="folderBadge" font-size="10">1</text>
<title>Outgoing dependencies: 1</title>
<text x="970.0" y="145.0" class="fileItem">export_plantuml.dart</text>
<circle cx="955.0" cy="145.0" r="8" fill="#007bff" opacity="0.7"/>
<text x="955.0" y="148.0" class="folderBadge" font-size="10">1</text>
<title>Incoming dependencies: 1</title>
<circle cx="985.0" cy="145.0" r="8" fill="#28a745" opacity="0.7"/>
<text x="985.0" y="148.0" class="folderBadge" font-size="10">2</text>
<title>Outgoing dependencies: 2</title>
<text x="970.0" y="180.0" class="fileItem">export_svg_folders.dart</text>
<circle cx="955.0" cy="180.0" r="8" fill="#007bff" opacity="0.7"/>
<text x="955.0" y="183.0" class="folderBadge" font-size="10">1</text>
<title>Incoming dependencies: 1</title>
<circle cx="985.0" cy="180.0" r="8" fill="#28a745" opacity="0.7"/>
<text x="985.0" y="183.0" class="folderBadge" font-size="10">2</text>
<title>Outgoing dependencies: 2</title>
<text x="970.0" y="215.0" class="fileItem">export_svg.dart</text>
<circle cx="955.0" cy="215.0" r="8" fill="#007bff" opacity="0.7"/>
<text x="955.0" y="218.0" class="folderBadge" font-size="10">1</text>
<title>Incoming dependencies: 1</title>
<circle cx="985.0" cy="215.0" r="8" fill="#28a745" opacity="0.7"/>
<text x="985.0" y="218.0" class="folderBadge" font-size="10">1</text>
<title>Outgoing dependencies: 1</title>
<text x="970.0" y="250.0" class="fileItem">export_mermaid.dart</text>
<circle cx="955.0" cy="250.0" r="8" fill="#007bff" opacity="0.7"/>
<text x="955.0" y="253.0" class="folderBadge" font-size="10">1</text>
<title>Incoming dependencies: 1</title>
<circle cx="985.0" cy="250.0" r="8" fill="#28a745" opacity="0.7"/>
<text x="985.0" y="253.0" class="folderBadge" font-size="10">2</text>
<title>Outgoing dependencies: 2</title>
<rect x="1400.0" y="50.0" width="300.0" height="215.0" rx="12" ry="12" class="folderBackground"/>
<text x="1550.0" y="75.0" class="folderTitle">src</text>
<text x="1550.0" y="95.0" class="folderMetric">↓8 ↑6 dependencies</text>
<text x="1420.0" y="110.0" class="fileItem">utils.dart</text>
<circle cx="1405.0" cy="110.0" r="8" fill="#007bff" opacity="0.7"/>
<text x="1405.0" y="113.0" class="folderBadge" font-size="10">5</text>
<title>Incoming dependencies: 5</title>
<text x="1420.0" y="145.0" class="fileItem">class_visitor.dart</text>
<circle cx="1405.0" cy="145.0" r="8" fill="#007bff" opacity="0.7"/>
<text x="1405.0" y="148.0" class="folderBadge" font-size="10">2</text>
<title>Incoming dependencies: 2</title>
<text x="1420.0" y="180.0" class="fileItem">analyzer_engine.dart</text>
<circle cx="1405.0" cy="180.0" r="8" fill="#007bff" opacity="0.7"/>
<text x="1405.0" y="183.0" class="folderBadge" font-size="10">1</text>
<title>Incoming dependencies: 1</title>
<circle cx="1435.0" cy="180.0" r="8" fill="#28a745" opacity="0.7"/>
<text x="1435.0" y="183.0" class="folderBadge" font-size="10">7</text>
<title>Outgoing dependencies: 7</title>
<text x="1420.0" y="215.0" class="fileItem">version.dart</text>
<circle cx="1405.0" cy="215.0" r="8" fill="#007bff" opacity="0.7"/>
<text x="1405.0" y="218.0" class="folderBadge" font-size="10">1</text>
<title>Incoming dependencies: 1</title>
<rect x="1850.0" y="50.0" width="300.0" height="145.0" rx="12" ry="12" class="folderBackground"/>
<text x="2000.0" y="75.0" class="folderTitle">metrics</text>
<text x="2000.0" y="95.0" class="folderMetric">↓3 ↑3 dependencies</text>
<text x="1870.0" y="110.0" class="fileItem">file_metrics.dart</text>
<circle cx="1855.0" cy="110.0" r="8" fill="#007bff" opacity="0.7"/>
<text x="1855.0" y="113.0" class="folderBadge" font-size="10">2</text>
<title>Incoming dependencies: 2</title>
<text x="1870.0" y="145.0" class="fileItem">project_metrics.dart</text>
<circle cx="1855.0" cy="145.0" r="8" fill="#007bff" opacity="0.7"/>
<text x="1855.0" y="148.0" class="folderBadge" font-size="10">2</text>
<title>Incoming dependencies: 2</title>
<circle cx="1885.0" cy="145.0" r="8" fill="#28a745" opacity="0.7"/>
<text x="1885.0" y="148.0" class="folderBadge" font-size="10">4</text>
<title>Outgoing dependencies: 4</title>
<rect x="2300.0" y="50.0" width="300.0" height="215.0" rx="12" ry="12" class="folderBackground"/>
<text x="2450.0" y="75.0" class="folderTitle">sort</text>
<text x="2450.0" y="95.0" class="folderMetric">↓3 ↑3 dependencies</text>
<text x="2320.0" y="110.0" class="fileItem">sort.dart</text>
<circle cx="2305.0" cy="110.0" r="8" fill="#007bff" opacity="0.7"/>
<text x="2305.0" y="113.0" class="folderBadge" font-size="10">3</text>
<title>Incoming dependencies: 3</title>
<circle cx="2335.0" cy="110.0" r="8" fill="#28a745" opacity="0.7"/>
<text x="2335.0" y="113.0" class="folderBadge" font-size="10">4</text>
<title>Outgoing dependencies: 4</title>
<text x="2320.0" y="145.0" class="fileItem">sort_issue.dart</text>
<circle cx="2305.0" cy="145.0" r="8" fill="#007bff" opacity="0.7"/>
<text x="2305.0" y="148.0" class="folderBadge" font-size="10">2</text>
<title>Incoming dependencies: 2</title>
<text x="2320.0" y="180.0" class="fileItem">sort_members.dart</text>
<circle cx="2305.0" cy="180.0" r="8" fill="#007bff" opacity="0.7"/>
<text x="2305.0" y="183.0" class="folderBadge" font-size="10">2</text>
<title>Incoming dependencies: 2</title>
<text x="2320.0" y="215.0" class="fileItem">sort_analyzer.dart</text>
<circle cx="2305.0" cy="215.0" r="8" fill="#007bff" opacity="0.7"/>
<text x="2305.0" y="218.0" class="folderBadge" font-size="10">1</text>
<title>Incoming dependencies: 1</title>
<circle cx="2335.0" cy="215.0" r="8" fill="#28a745" opacity="0.7"/>
<text x="2335.0" y="218.0" class="folderBadge" font-size="10">4</text>
<title>Outgoing dependencies: 4</title>
<rect x="2750.0" y="50.0" width="300.0" height="180.0" rx="12" ry="12" class="folderBackground"/>
<text x="2900.0" y="75.0" class="folderTitle">hardcoded_strings</text>
<text x="2900.0" y="95.0" class="folderMetric">↓5 ↑1 dependencies</text>
<text x="2770.0" y="110.0" class="fileItem">hardcoded_string_visitor.dart</text>
<circle cx="2755.0" cy="110.0" r="8" fill="#007bff" opacity="0.7"/>
<text x="2755.0" y="113.0" class="folderBadge" font-size="10">2</text>
<title>Incoming dependencies: 2</title>
<circle cx="2785.0" cy="110.0" r="8" fill="#28a745" opacity="0.7"/>
<text x="2785.0" y="113.0" class="folderBadge" font-size="10">1</text>
<title>Outgoing dependencies: 1</title>
<text x="2770.0" y="145.0" class="fileItem">hardcoded_string_analyzer.dart</text>
<circle cx="2755.0" cy="145.0" r="8" fill="#007bff" opacity="0.7"/>
<text x="2755.0" y="148.0" class="folderBadge" font-size="10">2</text>
<title>Incoming dependencies: 2</title>
<circle cx="2785.0" cy="145.0" r="8" fill="#28a745" opacity="0.7"/>
<text x="2785.0" y="148.0" class="folderBadge" font-size="10">3</text>
<title>Outgoing dependencies: 3</title>
<text x="2770.0" y="180.0" class="fileItem">hardcoded_string_issue.dart</text>
<circle cx="2755.0" cy="180.0" r="8" fill="#007bff" opacity="0.7"/>
<text x="2755.0" y="183.0" class="folderBadge" font-size="10">4</text>
<title>Incoming dependencies: 4</title>
<rect x="3200.0" y="50.0" width="300.0" height="215.0" rx="12" ry="12" class="folderBackground"/>
<text x="3350.0" y="75.0" class="folderTitle">layers</text>
<text x="3350.0" y="95.0" class="folderMetric">↓8 ↑1 dependencies</text>
<text x="3220.0" y="110.0" class="fileItem">layers_visitor.dart</text>
<circle cx="3205.0" cy="110.0" r="8" fill="#007bff" opacity="0.7"/>
<text x="3205.0" y="113.0" class="folderBadge" font-size="10">1</text>
<title>Incoming dependencies: 1</title>
<text x="3220.0" y="145.0" class="fileItem">layers_results.dart</text>
<circle cx="3205.0" cy="145.0" r="8" fill="#007bff" opacity="0.7"/>
<text x="3205.0" y="148.0" class="folderBadge" font-size="10">7</text>
<title>Incoming dependencies: 7</title>
<circle cx="3235.0" cy="145.0" r="8" fill="#28a745" opacity="0.7"/>
<text x="3235.0" y="148.0" class="folderBadge" font-size="10">1</text>
<title>Outgoing dependencies: 1</title>
<text x="3220.0" y="180.0" class="fileItem">layers_issue.dart</text>
<circle cx="3205.0" cy="180.0" r="8" fill="#007bff" opacity="0.7"/>
<text x="3205.0" y="183.0" class="folderBadge" font-size="10">3</text>
<title>Incoming dependencies: 3</title>
<text x="3220.0" y="215.0" class="fileItem">layers_analyzer.dart</text>
<circle cx="3205.0" cy="215.0" r="8" fill="#007bff" opacity="0.7"/>
<text x="3205.0" y="218.0" class="folderBadge" font-size="10">1</text>
<title>Incoming dependencies: 1</title>
<circle cx="3235.0" cy="215.0" r="8" fill="#28a745" opacity="0.7"/>
<text x="3235.0" y="218.0" class="folderBadge" font-size="10">4</text>
<title>Outgoing dependencies: 4</title>
<rect x="3650.0" y="50.0" width="300.0" height="110.0" rx="12" ry="12" class="folderBackground"/>
<text x="3800.0" y="75.0" class="folderTitle">models</text>
<text x="3800.0" y="95.0" class="folderMetric">↓1 ↑0 dependencies</text>
<text x="3670.0" y="110.0" class="fileItem">rect.dart</text>
<circle cx="3655.0" cy="110.0" r="8" fill="#007bff" opacity="0.7"/>
<text x="3655.0" y="113.0" class="folderBadge" font-size="10">1</text>
<title>Incoming dependencies: 1</title>
</svg>
