<?xml version="1.0" encoding="UTF-8"?>
<svg width="556.0" height="1400.0" viewBox="0 0 556.0 1400.0" xmlns="http://www.w3.org/2000/svg" font-family="Arial, Helvetica, sans-serif">
<defs>
  <filter id="hierarchicalShadow" x="-20%" y="-20%" width="140%" height="140%">
    <feGaussianBlur in="SourceAlpha" stdDeviation="5"/>
    <feOffset dx="2" dy="2" result="offsetblur"/>
    <feFlood flood-color="rgba(0,0,0,0.1)" flood-opacity="0.8"/>
    <feComposite in2="offsetblur" operator="in"/>
    <feMerge>
      <feMergeNode/>
      <feMergeNode in="SourceGraphic"/>
    </feMerge>
  </filter>
  <filter id="outlineWhite">
    <feMorphology in="SourceAlpha" result="DILATED" operator="dilate" radius="2"/>
    <feFlood flood-color="white" flood-opacity="0.7" result="WHITE"/>
    <feComposite in="WHITE" in2="DILATED" operator="in" result="OUTLINE"/>
    <feMerge>
      <feMergeNode in="OUTLINE"/>
      <feMergeNode in="SourceGraphic"/>
    </feMerge>
  </filter>
  <linearGradient id="hierarchicalEdgeGradient" x1="0%" y1="0%" x2="100%" y2="100%">
    <stop offset="0%" stop-color="#6c757d" stop-opacity="0.4"/>
    <stop offset="100%" stop-color="#495057" stop-opacity="0.4"/>
  </linearGradient>
  <linearGradient id="edgeGradient" x1="0%" y1="0%" x2="100%" y2="100%">
    <stop offset="0%" stop-color="green" stop-opacity="0.3"/>
    <stop offset="100%" stop-color="blue" stop-opacity="0.3"/>
  </linearGradient>
</defs>
<style>
  .hierarchicalBackground { fill: #ffffff; stroke: #dee2e6; stroke-width: 2; rx: 12; ry: 12; filter: url(#hierarchicalShadow); }
  .hierarchicalBackground:hover { stroke: #007bff; stroke-width: 3; }
  .hierarchicalTitle { fill: #495057; font-size: 16px; font-weight: bold; text-anchor: middle; filter: url(#outlineWhite); }
  .hierarchicalMetric { fill: #6c757d; font-size: 12px; font-weight: normal; text-anchor: middle; }
  .hierarchicalItem { fill: #212529; font-size: 12px; font-weight: normal; cursor: pointer; filter: url(#outlineWhite); }
  .hierarchicalItem:hover { fill: #007bff; font-weight: bold; }
  .hierarchicalEdge { fill: none; stroke: url(#hierarchicalEdgeGradient); stroke-width: 3; }
  .hierarchicalEdge:hover { stroke: #007bff; stroke-width: 4; opacity: 1.0; }
  .hierarchicalBadge { font-size: 8px; font-weight: bold; fill: white; text-anchor: middle; dominant-baseline: middle; }
  .hierarchicalBadge:hover { opacity: 0.8; }
  .fileEdge { fill: none; stroke: url(#edgeGradient); stroke-width: 0.5; }
  .fileEdge:hover { stroke-width: 1; opacity: 1.0; stroke:purple}
  .fileNode { fill: #ffffff; stroke: #d0d7de; stroke-width: 1; }
  g.folderTitleLayer { pointer-events: none; isolation: isolate; }
</style>
<rect width="100%" height="100%" fill="#f8f9fa"/>
<path d="M 75.0 294.0 C 84.0 294.0, 67.0 294.0, 76.0 294.0" class="hierarchicalEdge"/>
<title>. → metrics (parent-child)</title>
<path d="M 75.0 455.0 C 84.0 455.0, 67.0 455.0, 76.0 455.0" class="hierarchicalEdge"/>
<title>. → hardcoded_strings (parent-child)</title>
<path d="M 75.0 633.0 C 84.0 633.0, 67.0 633.0, 76.0 633.0" class="hierarchicalEdge"/>
<title>. → layers (parent-child)</title>
<path d="M 75.0 825.0 C 84.0 825.0, 67.0 825.0, 76.0 825.0" class="hierarchicalEdge"/>
<title>. → sort (parent-child)</title>
<path d="M 75.0 1045.0 C 84.0 1045.0, 67.0 1045.0, 76.0 1045.0" class="hierarchicalEdge"/>
<title>. → dependencies (parent-child)</title>
<path d="M 75.0 1248.0 C 84.0 1248.0, 67.0 1248.0, 76.0 1248.0" class="hierarchicalEdge"/>
<title>. → models (parent-child)</title>
<g class="folderLayer">
<rect x="50.0" y="50.0" width="328.0" height="1300.0" rx="12" ry="12" class="hierarchicalBackground"/>
</g>
<g class="hierarchicalBadge">
<circle cx="50.0" cy="54.0" r="8.0" fill="#007bff" opacity="0.85"/>
<text x="50.0" y="56.0">5</text>
</g>
<g class="hierarchicalBadge">
<circle cx="50.0" cy="1346.0" r="8.0" fill="#28a745" opacity="0.85"/>
<text x="50.0" y="1348.0">4</text>
</g>
<g class="folderLayer">
<rect x="84.0" y="224.0" width="278.0" height="140.0" rx="12" ry="12" class="hierarchicalBackground"/>
</g>
<g class="hierarchicalBadge">
<circle cx="84.0" cy="228.0" r="8.0" fill="#007bff" opacity="0.85"/>
<text x="84.0" y="230.0">1</text>
</g>
<g class="folderLayer">
<rect x="84.0" y="382.0" width="278.0" height="146.0" rx="12" ry="12" class="hierarchicalBackground"/>
</g>
<g class="hierarchicalBadge">
<circle cx="84.0" cy="386.0" r="8.0" fill="#007bff" opacity="0.85"/>
<text x="84.0" y="388.0">1</text>
</g>
<g class="hierarchicalBadge">
<circle cx="84.0" cy="524.0" r="8.0" fill="#28a745" opacity="0.85"/>
<text x="84.0" y="526.0">1</text>
</g>
<g class="folderLayer">
<rect x="84.0" y="546.0" width="278.0" height="174.0" rx="12" ry="12" class="hierarchicalBackground"/>
</g>
<g class="hierarchicalBadge">
<circle cx="84.0" cy="550.0" r="8.0" fill="#007bff" opacity="0.85"/>
<text x="84.0" y="552.0">1</text>
</g>
<g class="hierarchicalBadge">
<circle cx="84.0" cy="716.0" r="8.0" fill="#28a745" opacity="0.85"/>
<text x="84.0" y="718.0">1</text>
</g>
<g class="folderLayer">
<rect x="84.0" y="738.0" width="278.0" height="174.0" rx="12" ry="12" class="hierarchicalBackground"/>
</g>
<g class="hierarchicalBadge">
<circle cx="84.0" cy="742.0" r="8.0" fill="#007bff" opacity="0.85"/>
<text x="84.0" y="744.0">1</text>
</g>
<g class="hierarchicalBadge">
<circle cx="84.0" cy="908.0" r="8.0" fill="#28a745" opacity="0.85"/>
<text x="84.0" y="910.0">3</text>
</g>
<g class="folderLayer">
<rect x="84.0" y="930.0" width="278.0" height="230.0" rx="12" ry="12" class="hierarchicalBackground"/>
</g>
<g class="folderLayer">
<rect x="84.0" y="1178.0" width="278.0" height="140.0" rx="12" ry="12" class="hierarchicalBackground"/>
</g>
<rect x="90.0" y="262.0" width="254.0" height="28.0" rx="5" ry="5" class="fileNode"/>
<rect x="90.0" y="290.0" width="254.0" height="28.0" rx="5" ry="5" class="fileNode"/>
<rect x="90.0" y="420.0" width="254.0" height="28.0" rx="5" ry="5" class="fileNode"/>
<rect x="90.0" y="448.0" width="254.0" height="28.0" rx="5" ry="5" class="fileNode"/>
<rect x="90.0" y="476.0" width="254.0" height="28.0" rx="5" ry="5" class="fileNode"/>
<rect x="90.0" y="584.0" width="254.0" height="28.0" rx="5" ry="5" class="fileNode"/>
<rect x="90.0" y="612.0" width="254.0" height="28.0" rx="5" ry="5" class="fileNode"/>
<rect x="90.0" y="640.0" width="254.0" height="28.0" rx="5" ry="5" class="fileNode"/>
<rect x="90.0" y="668.0" width="254.0" height="28.0" rx="5" ry="5" class="fileNode"/>
<rect x="90.0" y="776.0" width="254.0" height="28.0" rx="5" ry="5" class="fileNode"/>
<rect x="90.0" y="804.0" width="254.0" height="28.0" rx="5" ry="5" class="fileNode"/>
<rect x="90.0" y="832.0" width="254.0" height="28.0" rx="5" ry="5" class="fileNode"/>
<rect x="90.0" y="860.0" width="254.0" height="28.0" rx="5" ry="5" class="fileNode"/>
<rect x="90.0" y="968.0" width="254.0" height="28.0" rx="5" ry="5" class="fileNode"/>
<rect x="90.0" y="996.0" width="254.0" height="28.0" rx="5" ry="5" class="fileNode"/>
<rect x="90.0" y="1024.0" width="254.0" height="28.0" rx="5" ry="5" class="fileNode"/>
<rect x="90.0" y="1052.0" width="254.0" height="28.0" rx="5" ry="5" class="fileNode"/>
<rect x="90.0" y="1080.0" width="254.0" height="28.0" rx="5" ry="5" class="fileNode"/>
<rect x="90.0" y="1108.0" width="254.0" height="28.0" rx="5" ry="5" class="fileNode"/>
<rect x="90.0" y="1216.0" width="254.0" height="28.0" rx="5" ry="5" class="fileNode"/>
<rect x="56.0" y="88.0" width="254.0" height="28.0" rx="5" ry="5" class="fileNode"/>
<rect x="56.0" y="116.0" width="254.0" height="28.0" rx="5" ry="5" class="fileNode"/>
<rect x="56.0" y="144.0" width="254.0" height="28.0" rx="5" ry="5" class="fileNode"/>
<rect x="56.0" y="172.0" width="254.0" height="28.0" rx="5" ry="5" class="fileNode"/>
<path d="M 330.0 468.0 H 352.0 Q 358.0 468.0 358.0 474.0 V 478.0 Q 358.0 484.0 352.0 484.0 H 330.0" class="fileEdge"/>
<title>hardcoded_strings/hardcoded_string_visitor.dart → hardcoded_strings/hardcoded_string_issue.dart</title>
<path d="M 330.0 440.0 H 353.0 Q 359.0 440.0 359.0 446.0 V 478.0 Q 359.0 484.0 353.0 484.0 H 330.0" class="fileEdge"/>
<title>hardcoded_strings/hardcoded_string_analyzer.dart → hardcoded_strings/hardcoded_string_issue.dart</title>
<path d="M 330.0 440.0 H 354.0 Q 360.0 440.0 360.0 446.0 V 450.0 Q 360.0 456.0 354.0 456.0 H 330.0" class="fileEdge"/>
<title>hardcoded_strings/hardcoded_string_analyzer.dart → hardcoded_strings/hardcoded_string_visitor.dart</title>
<path d="M 330.0 440.0 H 355.0 Q 361.0 440.0 361.0 434.0 V 158.0 Q 361.0 152.0 355.0 152.0 H 296.0" class="fileEdge"/>
<title>hardcoded_strings/hardcoded_string_analyzer.dart → utils.dart</title>
<path d="M 330.0 604.0 H 356.0 Q 362.0 604.0 362.0 610.0 V 614.0 Q 362.0 620.0 356.0 620.0 H 330.0" class="fileEdge"/>
<title>layers/layers_analyzer.dart → layers/layers_issue.dart</title>
<path d="M 330.0 604.0 H 357.0 Q 363.0 604.0 363.0 610.0 V 642.0 Q 363.0 648.0 357.0 648.0 H 330.0" class="fileEdge"/>
<title>layers/layers_analyzer.dart → layers/layers_visitor.dart</title>
<path d="M 330.0 604.0 H 358.0 Q 364.0 604.0 364.0 598.0 V 158.0 Q 364.0 152.0 358.0 152.0 H 296.0" class="fileEdge"/>
<title>layers/layers_analyzer.dart → utils.dart</title>
<path d="M 330.0 796.0 H 359.0 Q 365.0 796.0 365.0 790.0 V 102.0 Q 365.0 96.0 359.0 96.0 H 296.0" class="fileEdge"/>
<title>sort/sort.dart → class_visitor.dart</title>
<path d="M 330.0 796.0 H 360.0 Q 366.0 796.0 366.0 802.0 V 862.0 Q 366.0 868.0 360.0 868.0 H 330.0" class="fileEdge"/>
<title>sort/sort.dart → sort/sort_members.dart</title>
<path d="M 330.0 796.0 H 361.0 Q 367.0 796.0 367.0 802.0 V 806.0 Q 367.0 812.0 361.0 812.0 H 330.0" class="fileEdge"/>
<title>sort/sort.dart → sort/sort_analyzer.dart</title>
<path d="M 330.0 796.0 H 362.0 Q 368.0 796.0 368.0 802.0 V 834.0 Q 368.0 840.0 362.0 840.0 H 330.0" class="fileEdge"/>
<title>sort/sort.dart → sort/sort_issue.dart</title>
<path d="M 330.0 824.0 H 363.0 Q 369.0 824.0 369.0 818.0 V 102.0 Q 369.0 96.0 363.0 96.0 H 296.0" class="fileEdge"/>
<title>sort/sort_analyzer.dart → class_visitor.dart</title>
<path d="M 330.0 824.0 H 364.0 Q 370.0 824.0 370.0 830.0 V 862.0 Q 370.0 868.0 364.0 868.0 H 330.0" class="fileEdge"/>
<title>sort/sort_analyzer.dart → sort/sort_members.dart</title>
<path d="M 330.0 824.0 H 365.0 Q 371.0 824.0 371.0 830.0 V 834.0 Q 371.0 840.0 365.0 840.0 H 330.0" class="fileEdge"/>
<title>sort/sort_analyzer.dart → sort/sort_issue.dart</title>
<path d="M 330.0 824.0 H 366.0 Q 372.0 824.0 372.0 818.0 V 158.0 Q 372.0 152.0 366.0 152.0 H 296.0" class="fileEdge"/>
<title>sort/sort_analyzer.dart → utils.dart</title>
<path d="M 296.0 136.0 H 333.0 Q 339.0 136.0 339.0 142.0 V 422.0 Q 339.0 428.0 333.0 428.0 H 330.0" class="fileEdge"/>
<title>analyzer_engine.dart → hardcoded_strings/hardcoded_string_analyzer.dart</title>
<path d="M 296.0 136.0 H 334.0 Q 340.0 136.0 340.0 142.0 V 586.0 Q 340.0 592.0 334.0 592.0 H 330.0" class="fileEdge"/>
<title>analyzer_engine.dart → layers/layers_analyzer.dart</title>
<path d="M 296.0 136.0 H 335.0 Q 341.0 136.0 341.0 142.0 V 778.0 Q 341.0 784.0 335.0 784.0 H 330.0" class="fileEdge"/>
<title>analyzer_engine.dart → sort/sort.dart</title>
<path d="M 296.0 136.0 H 336.0 Q 342.0 136.0 342.0 142.0 V 264.0 Q 342.0 270.0 336.0 270.0 H 330.0" class="fileEdge"/>
<title>analyzer_engine.dart → metrics/project_metrics.dart</title>
<path d="M 296.0 136.0 H 337.0 Q 343.0 136.0 343.0 142.0 V 146.0 Q 343.0 152.0 337.0 152.0 H 296.0" class="fileEdge"/>
<title>analyzer_engine.dart → utils.dart</title>
<g class="hierarchicalBadge">
<circle cx="330.0" cy="270.0" r="7.0" fill="#007bff" opacity="0.85"/>
<text x="330.0" y="272.0">1</text>
</g>
<text x="106.0" y="276.0" text-anchor="start" dominant-baseline="middle" class="hierarchicalItem">project_metrics.dart</text>
<text x="106.0" y="304.0" text-anchor="start" dominant-baseline="middle" class="hierarchicalItem">file_metrics.dart</text>
<g class="hierarchicalBadge">
<circle cx="330.0" cy="428.0" r="7.0" fill="#007bff" opacity="0.85"/>
<text x="330.0" y="430.0">1</text>
</g>
<g class="hierarchicalBadge">
<circle cx="330.0" cy="440.0" r="7.0" fill="#28a745" opacity="0.85"/>
<text x="330.0" y="442.0">3</text>
</g>
<text x="106.0" y="434.0" text-anchor="start" dominant-baseline="middle" class="hierarchicalItem">hardcoded_string_analyzer.dart</text>
<g class="hierarchicalBadge">
<circle cx="330.0" cy="456.0" r="7.0" fill="#007bff" opacity="0.85"/>
<text x="330.0" y="458.0">1</text>
</g>
<g class="hierarchicalBadge">
<circle cx="330.0" cy="468.0" r="7.0" fill="#28a745" opacity="0.85"/>
<text x="330.0" y="470.0">1</text>
</g>
<text x="106.0" y="462.0" text-anchor="start" dominant-baseline="middle" class="hierarchicalItem">hardcoded_string_visitor.dart</text>
<g class="hierarchicalBadge">
<circle cx="330.0" cy="484.0" r="7.0" fill="#007bff" opacity="0.85"/>
<text x="330.0" y="486.0">2</text>
</g>
<text x="106.0" y="490.0" text-anchor="start" dominant-baseline="middle" class="hierarchicalItem">hardcoded_string_issue.dart</text>
<g class="hierarchicalBadge">
<circle cx="330.0" cy="592.0" r="7.0" fill="#007bff" opacity="0.85"/>
<text x="330.0" y="594.0">1</text>
</g>
<g class="hierarchicalBadge">
<circle cx="330.0" cy="604.0" r="7.0" fill="#28a745" opacity="0.85"/>
<text x="330.0" y="606.0">3</text>
</g>
<text x="106.0" y="598.0" text-anchor="start" dominant-baseline="middle" class="hierarchicalItem">layers_analyzer.dart</text>
<g class="hierarchicalBadge">
<circle cx="330.0" cy="620.0" r="7.0" fill="#007bff" opacity="0.85"/>
<text x="330.0" y="622.0">1</text>
</g>
<text x="106.0" y="626.0" text-anchor="start" dominant-baseline="middle" class="hierarchicalItem">layers_issue.dart</text>
<g class="hierarchicalBadge">
<circle cx="330.0" cy="648.0" r="7.0" fill="#007bff" opacity="0.85"/>
<text x="330.0" y="650.0">1</text>
</g>
<text x="106.0" y="654.0" text-anchor="start" dominant-baseline="middle" class="hierarchicalItem">layers_visitor.dart</text>
<text x="106.0" y="682.0" text-anchor="start" dominant-baseline="middle" class="hierarchicalItem">layers_results.dart</text>
<g class="hierarchicalBadge">
<circle cx="330.0" cy="784.0" r="7.0" fill="#007bff" opacity="0.85"/>
<text x="330.0" y="786.0">1</text>
</g>
<g class="hierarchicalBadge">
<circle cx="330.0" cy="796.0" r="7.0" fill="#28a745" opacity="0.85"/>
<text x="330.0" y="798.0">4</text>
</g>
<text x="106.0" y="790.0" text-anchor="start" dominant-baseline="middle" class="hierarchicalItem">sort.dart</text>
<g class="hierarchicalBadge">
<circle cx="330.0" cy="812.0" r="7.0" fill="#007bff" opacity="0.85"/>
<text x="330.0" y="814.0">1</text>
</g>
<g class="hierarchicalBadge">
<circle cx="330.0" cy="824.0" r="7.0" fill="#28a745" opacity="0.85"/>
<text x="330.0" y="826.0">4</text>
</g>
<text x="106.0" y="818.0" text-anchor="start" dominant-baseline="middle" class="hierarchicalItem">sort_analyzer.dart</text>
<g class="hierarchicalBadge">
<circle cx="330.0" cy="840.0" r="7.0" fill="#007bff" opacity="0.85"/>
<text x="330.0" y="842.0">2</text>
</g>
<text x="106.0" y="846.0" text-anchor="start" dominant-baseline="middle" class="hierarchicalItem">sort_issue.dart</text>
<g class="hierarchicalBadge">
<circle cx="330.0" cy="868.0" r="7.0" fill="#007bff" opacity="0.85"/>
<text x="330.0" y="870.0">2</text>
</g>
<text x="106.0" y="874.0" text-anchor="start" dominant-baseline="middle" class="hierarchicalItem">sort_members.dart</text>
<text x="106.0" y="982.0" text-anchor="start" dominant-baseline="middle" class="hierarchicalItem">export_mermaid.dart</text>
<text x="106.0" y="1010.0" text-anchor="start" dominant-baseline="middle" class="hierarchicalItem">export_plantuml.dart</text>
<text x="106.0" y="1038.0" text-anchor="start" dominant-baseline="middle" class="hierarchicalItem">export_svg.dart</text>
<text x="106.0" y="1066.0" text-anchor="start" dominant-baseline="middle" class="hierarchicalItem">export_svg_folders.dart</text>
<text x="106.0" y="1094.0" text-anchor="start" dominant-baseline="middle" class="hierarchicalItem">export_svg_folders_hierarchical.dart</text>
<text x="106.0" y="1122.0" text-anchor="start" dominant-baseline="middle" class="hierarchicalItem">graph_format_utils.dart</text>
<text x="106.0" y="1230.0" text-anchor="start" dominant-baseline="middle" class="hierarchicalItem">rect.dart</text>
<g class="hierarchicalBadge">
<circle cx="296.0" cy="96.0" r="7.0" fill="#007bff" opacity="0.85"/>
<text x="296.0" y="98.0">2</text>
</g>
<text x="72.0" y="102.0" text-anchor="start" dominant-baseline="middle" class="hierarchicalItem">class_visitor.dart</text>
<g class="hierarchicalBadge">
<circle cx="296.0" cy="136.0" r="7.0" fill="#28a745" opacity="0.85"/>
<text x="296.0" y="138.0">5</text>
</g>
<text x="72.0" y="130.0" text-anchor="start" dominant-baseline="middle" class="hierarchicalItem">analyzer_engine.dart</text>
<g class="hierarchicalBadge">
<circle cx="296.0" cy="152.0" r="7.0" fill="#007bff" opacity="0.85"/>
<text x="296.0" y="154.0">4</text>
</g>
<text x="72.0" y="158.0" text-anchor="start" dominant-baseline="middle" class="hierarchicalItem">utils.dart</text>
<text x="72.0" y="186.0" text-anchor="start" dominant-baseline="middle" class="hierarchicalItem">version.dart</text>
<g class="folderTitleLayer">
<text x="214.0" y="75.0" class="hierarchicalTitle">.</text>
<text x="223.0" y="249.0" class="hierarchicalTitle">  metrics</text>
<text x="223.0" y="407.0" class="hierarchicalTitle">  hardcoded_strings</text>
<text x="223.0" y="571.0" class="hierarchicalTitle">  layers</text>
<text x="223.0" y="763.0" class="hierarchicalTitle">  sort</text>
<text x="223.0" y="955.0" class="hierarchicalTitle">  dependencies</text>
<text x="223.0" y="1203.0" class="hierarchicalTitle">  models</text>
</g>
</svg>
